<?xml version="1.0" encoding="utf-8" standalone="no"?>
<!DOCTYPE svg PUBLIC "-//W3C//DTD SVG 1.1//EN"
  "http://www.w3.org/Graphics/SVG/1.1/DTD/svg11.dtd">
<svg xmlns:xlink="http://www.w3.org/1999/xlink" width="872.39952pt" height="512.39952pt" viewBox="0 0 872.39952 512.39952" xmlns="http://www.w3.org/2000/svg" version="1.1">
 <metadata>
  <rdf:RDF xmlns:dc="http://purl.org/dc/elements/1.1/" xmlns:cc="http://creativecommons.org/ns#" xmlns:rdf="http://www.w3.org/1999/02/22-rdf-syntax-ns#">
   <cc:Work>
    <dc:type rdf:resource="http://purl.org/dc/dcmitype/StillImage"/>
    <dc:date>2026-04-25T14:14:13.388490</dc:date>
    <dc:format>image/svg+xml</dc:format>
    <dc:creator>
     <cc:Agent>
      <dc:title>Matplotlib v3.9.4, https://matplotlib.org/</dc:title>
     </cc:Agent>
    </dc:creator>
   </cc:Work>
  </rdf:RDF>
 </metadata>
 <defs>
  <style type="text/css">*{stroke-linejoin: round; stroke-linecap: butt}</style>
 </defs>
 <g id="figure_1">
  <g id="patch_1">
   <path d="M 0 512.39952 
L 872.39952 512.39952 
L 872.39952 0 
L 0 0 
z
" style="fill: #ffffff"/>
  </g>
  <g id="axes_1">
   <g id="patch_2">
    <path d="M 43.117188 139.203583 
L 865.19952 139.203583 
L 865.19952 10.8 
L 43.117188 10.8 
z
" style="fill: #f4f4f4"/>
   </g>
   <g id="matplotlib.axis_1">
    <g id="xtick_1">
     <g id="line2d_1">
      <path d="M 43.117188 139.203583 
L 43.117188 10.8 
" clip-path="url(#p1374ece1ec)" style="fill: none; stroke: #ffffff; stroke-width: 1.1; stroke-linecap: square"/>
     </g>
     <g id="line2d_2">
      <defs>
       <path id="m9eff2ec42f" d="M 0 0 
L 0 3.5 
" style="stroke: #5a5a5a; stroke-width: 0.8"/>
      </defs>
      <g>
       <use xlink:href="#m9eff2ec42f" x="43.117188" y="139.203583" style="fill: #5a5a5a; stroke: #5a5a5a; stroke-width: 0.8"/>
      </g>
     </g>
     <g id="text_1">
      <!-- 0 -->
      <g style="fill: #5a5a5a" transform="translate(40.771875 153.403583) scale(0.1 -0.1)">
       <defs>
        <path id="STSongti-SC-Black-30" d="M 1517 4448 
Q 1792 4448 2045 4285 
Q 2298 4122 2486 3840 
Q 2675 3558 2787 3177 
Q 2899 2797 2899 2362 
Q 2899 1933 2790 1555 
Q 2682 1178 2493 893 
Q 2304 608 2054 445 
Q 1805 282 1523 282 
Q 1248 282 995 442 
Q 742 602 550 880 
Q 358 1158 246 1539 
Q 134 1920 134 2355 
Q 134 2797 246 3181 
Q 358 3565 547 3846 
Q 736 4128 985 4288 
Q 1235 4448 1517 4448 
z
M 1517 518 
Q 1869 518 1997 966 
Q 2125 1414 2125 2362 
Q 2125 3309 1993 3760 
Q 1862 4211 1517 4211 
Q 1171 4211 1040 3763 
Q 909 3315 909 2362 
Q 909 518 1517 518 
z
" transform="scale(0.015625)"/>
       </defs>
       <use xlink:href="#STSongti-SC-Black-30"/>
      </g>
     </g>
    </g>
    <g id="xtick_2">
     <g id="line2d_3">
      <path d="M 134.969962 139.203583 
L 134.969962 10.8 
" clip-path="url(#p1374ece1ec)" style="fill: none; stroke: #ffffff; stroke-width: 1.1; stroke-linecap: square"/>
     </g>
     <g id="line2d_4">
      <g>
       <use xlink:href="#m9eff2ec42f" x="134.969962" y="139.203583" style="fill: #5a5a5a; stroke: #5a5a5a; stroke-width: 0.8"/>
      </g>
     </g>
     <g id="text_2">
      <!-- 20 -->
      <g style="fill: #5a5a5a" transform="translate(130.279337 153.403583) scale(0.1 -0.1)">
       <defs>
        <path id="STSongti-SC-Black-32" d="M 2726 365 
Q 2496 371 2227 377 
Q 1958 384 1542 384 
Q 1120 384 777 381 
Q 435 378 211 365 
Q 230 518 262 659 
Q 294 800 377 957 
Q 461 1114 605 1299 
Q 749 1485 992 1734 
L 1229 1978 
Q 1478 2227 1625 2412 
Q 1773 2598 1849 2748 
Q 1926 2899 1945 3033 
Q 1965 3168 1965 3322 
Q 1965 3622 1779 3801 
Q 1594 3981 1280 3981 
Q 954 3981 746 3769 
Q 538 3558 461 3162 
L 262 3238 
Q 352 3827 694 4137 
Q 1037 4448 1549 4448 
Q 1779 4448 1984 4384 
Q 2189 4320 2342 4195 
Q 2496 4070 2589 3888 
Q 2682 3706 2682 3469 
Q 2682 3219 2592 3008 
Q 2502 2797 2348 2608 
Q 2195 2419 1993 2246 
Q 1792 2074 1574 1907 
L 1382 1754 
Q 1216 1619 1030 1427 
Q 845 1235 685 979 
L 2074 979 
Q 2234 979 2317 1011 
Q 2400 1043 2448 1116 
Q 2496 1190 2531 1302 
Q 2566 1414 2624 1568 
L 2822 1568 
L 2726 365 
z
" transform="scale(0.015625)"/>
       </defs>
       <use xlink:href="#STSongti-SC-Black-32"/>
       <use xlink:href="#STSongti-SC-Black-30" x="46.899994"/>
      </g>
     </g>
    </g>
    <g id="xtick_3">
     <g id="line2d_5">
      <path d="M 226.822737 139.203583 
L 226.822737 10.8 
" clip-path="url(#p1374ece1ec)" style="fill: none; stroke: #ffffff; stroke-width: 1.1; stroke-linecap: square"/>
     </g>
     <g id="line2d_6">
      <g>
       <use xlink:href="#m9eff2ec42f" x="226.822737" y="139.203583" style="fill: #5a5a5a; stroke: #5a5a5a; stroke-width: 0.8"/>
      </g>
     </g>
     <g id="text_3">
      <!-- 40 -->
      <g style="fill: #5a5a5a" transform="translate(222.132112 153.403583) scale(0.1 -0.1)">
       <defs>
        <path id="STSongti-SC-Black-34" d="M 2086 4448 
L 2387 4448 
L 2387 1843 
L 2918 1843 
L 2918 1434 
L 2387 1434 
L 2387 282 
L 1670 282 
L 1670 1434 
L 122 1434 
L 122 1760 
L 966 2912 
Q 1254 3296 1529 3680 
Q 1805 4064 2086 4448 
z
M 1670 1843 
L 1670 3469 
Q 1453 3168 1289 2944 
Q 1126 2720 992 2537 
Q 858 2355 739 2188 
Q 621 2022 493 1843 
L 1670 1843 
z
" transform="scale(0.015625)"/>
       </defs>
       <use xlink:href="#STSongti-SC-Black-34"/>
       <use xlink:href="#STSongti-SC-Black-30" x="46.899994"/>
      </g>
     </g>
    </g>
    <g id="xtick_4">
     <g id="line2d_7">
      <path d="M 318.675511 139.203583 
L 318.675511 10.8 
" clip-path="url(#p1374ece1ec)" style="fill: none; stroke: #ffffff; stroke-width: 1.1; stroke-linecap: square"/>
     </g>
     <g id="line2d_8">
      <g>
       <use xlink:href="#m9eff2ec42f" x="318.675511" y="139.203583" style="fill: #5a5a5a; stroke: #5a5a5a; stroke-width: 0.8"/>
      </g>
     </g>
     <g id="text_4">
      <!-- 60 -->
      <g style="fill: #5a5a5a" transform="translate(313.984886 153.403583) scale(0.1 -0.1)">
       <defs>
        <path id="STSongti-SC-Black-36" d="M 2458 4467 
L 2509 4346 
Q 2138 4141 1846 3926 
Q 1555 3712 1356 3430 
Q 1158 3149 1056 2761 
Q 954 2374 954 1824 
Q 954 1645 973 1414 
Q 992 1184 1053 976 
Q 1114 768 1235 627 
Q 1357 486 1562 486 
Q 1824 486 1987 739 
Q 2150 992 2150 1562 
Q 2150 2042 1996 2282 
Q 1843 2522 1555 2522 
Q 1434 2522 1318 2470 
L 1267 2637 
Q 1370 2682 1482 2704 
Q 1594 2726 1747 2726 
Q 2278 2726 2560 2425 
Q 2842 2125 2842 1626 
Q 2842 1318 2736 1072 
Q 2630 826 2451 650 
Q 2272 474 2035 378 
Q 1798 282 1530 282 
Q 1190 282 944 403 
Q 698 525 534 739 
Q 371 954 294 1242 
Q 218 1530 218 1862 
Q 218 2426 394 2864 
Q 570 3302 874 3622 
Q 1178 3942 1587 4150 
Q 1997 4358 2458 4467 
z
" transform="scale(0.015625)"/>
       </defs>
       <use xlink:href="#STSongti-SC-Black-36"/>
       <use xlink:href="#STSongti-SC-Black-30" x="46.899994"/>
      </g>
     </g>
    </g>
    <g id="xtick_5">
     <g id="line2d_9">
      <path d="M 410.528286 139.203583 
L 410.528286 10.8 
" clip-path="url(#p1374ece1ec)" style="fill: none; stroke: #ffffff; stroke-width: 1.1; stroke-linecap: square"/>
     </g>
     <g id="line2d_10">
      <g>
       <use xlink:href="#m9eff2ec42f" x="410.528286" y="139.203583" style="fill: #5a5a5a; stroke: #5a5a5a; stroke-width: 0.8"/>
      </g>
     </g>
     <g id="text_5">
      <!-- 80 -->
      <g style="fill: #5a5a5a" transform="translate(405.837661 153.403583) scale(0.1 -0.1)">
       <defs>
        <path id="STSongti-SC-Black-38" d="M 1069 2368 
Q 282 2758 282 3424 
Q 282 3622 368 3804 
Q 454 3987 617 4131 
Q 781 4275 1005 4361 
Q 1229 4448 1510 4448 
Q 1760 4448 1968 4377 
Q 2176 4307 2326 4185 
Q 2477 4064 2560 3901 
Q 2643 3738 2643 3552 
Q 2643 3366 2588 3232 
Q 2534 3098 2438 2992 
Q 2342 2886 2201 2793 
Q 2061 2701 1888 2598 
Q 2202 2445 2381 2297 
Q 2560 2150 2646 2006 
Q 2733 1862 2752 1718 
Q 2771 1574 2771 1434 
Q 2771 1190 2665 979 
Q 2560 768 2384 614 
Q 2208 461 1971 371 
Q 1734 282 1466 282 
Q 1184 282 950 362 
Q 717 442 550 576 
Q 384 710 294 892 
Q 205 1075 205 1280 
Q 205 1434 246 1584 
Q 288 1734 390 1875 
Q 493 2016 659 2137 
Q 826 2259 1069 2368 
z
M 1683 2707 
Q 1920 2854 2022 3046 
Q 2125 3238 2125 3526 
Q 2125 3827 1968 4019 
Q 1811 4211 1472 4211 
Q 1158 4211 1011 4035 
Q 864 3859 864 3597 
Q 864 3334 1046 3126 
Q 1229 2918 1683 2707 
z
M 1254 2266 
Q 1107 2176 1011 2077 
Q 915 1978 860 1866 
Q 806 1754 784 1622 
Q 762 1491 762 1331 
Q 762 941 976 710 
Q 1190 480 1517 480 
Q 2163 480 2163 1235 
Q 2163 1414 2108 1555 
Q 2054 1696 1942 1817 
Q 1830 1939 1657 2048 
Q 1485 2157 1254 2266 
z
" transform="scale(0.015625)"/>
       </defs>
       <use xlink:href="#STSongti-SC-Black-38"/>
       <use xlink:href="#STSongti-SC-Black-30" x="46.899994"/>
      </g>
     </g>
    </g>
    <g id="xtick_6">
     <g id="line2d_11">
      <path d="M 502.38106 139.203583 
L 502.38106 10.8 
" clip-path="url(#p1374ece1ec)" style="fill: none; stroke: #ffffff; stroke-width: 1.1; stroke-linecap: square"/>
     </g>
     <g id="line2d_12">
      <g>
       <use xlink:href="#m9eff2ec42f" x="502.38106" y="139.203583" style="fill: #5a5a5a; stroke: #5a5a5a; stroke-width: 0.8"/>
      </g>
     </g>
     <g id="text_6">
      <!-- 100 -->
      <g style="fill: #5a5a5a" transform="translate(495.345123 153.403583) scale(0.1 -0.1)">
       <defs>
        <path id="STSongti-SC-Black-31" d="M 2464 365 
Q 2298 371 2045 377 
Q 1792 384 1523 384 
Q 1254 384 1001 377 
Q 749 371 582 365 
L 582 550 
L 979 608 
Q 1203 659 1203 858 
L 1203 3840 
L 442 3347 
L 333 3546 
Q 442 3616 608 3718 
Q 774 3821 960 3942 
Q 1146 4064 1331 4192 
Q 1517 4320 1670 4448 
L 1882 4448 
L 1882 858 
Q 1882 634 2106 602 
L 2464 550 
L 2464 365 
z
" transform="scale(0.015625)"/>
       </defs>
       <use xlink:href="#STSongti-SC-Black-31"/>
       <use xlink:href="#STSongti-SC-Black-30" x="46.899994"/>
       <use xlink:href="#STSongti-SC-Black-30" x="93.799988"/>
      </g>
     </g>
    </g>
    <g id="xtick_7">
     <g id="line2d_13">
      <path d="M 594.233835 139.203583 
L 594.233835 10.8 
" clip-path="url(#p1374ece1ec)" style="fill: none; stroke: #ffffff; stroke-width: 1.1; stroke-linecap: square"/>
     </g>
     <g id="line2d_14">
      <g>
       <use xlink:href="#m9eff2ec42f" x="594.233835" y="139.203583" style="fill: #5a5a5a; stroke: #5a5a5a; stroke-width: 0.8"/>
      </g>
     </g>
     <g id="text_7">
      <!-- 120 -->
      <g style="fill: #5a5a5a" transform="translate(587.197897 153.403583) scale(0.1 -0.1)">
       <use xlink:href="#STSongti-SC-Black-31"/>
       <use xlink:href="#STSongti-SC-Black-32" x="46.899994"/>
       <use xlink:href="#STSongti-SC-Black-30" x="93.799988"/>
      </g>
     </g>
    </g>
    <g id="xtick_8">
     <g id="line2d_15">
      <path d="M 686.08661 139.203583 
L 686.08661 10.8 
" clip-path="url(#p1374ece1ec)" style="fill: none; stroke: #ffffff; stroke-width: 1.1; stroke-linecap: square"/>
     </g>
     <g id="line2d_16">
      <g>
       <use xlink:href="#m9eff2ec42f" x="686.08661" y="139.203583" style="fill: #5a5a5a; stroke: #5a5a5a; stroke-width: 0.8"/>
      </g>
     </g>
     <g id="text_8">
      <!-- 140 -->
      <g style="fill: #5a5a5a" transform="translate(679.050672 153.403583) scale(0.1 -0.1)">
       <use xlink:href="#STSongti-SC-Black-31"/>
       <use xlink:href="#STSongti-SC-Black-34" x="46.899994"/>
       <use xlink:href="#STSongti-SC-Black-30" x="93.799988"/>
      </g>
     </g>
    </g>
    <g id="xtick_9">
     <g id="line2d_17">
      <path d="M 777.939384 139.203583 
L 777.939384 10.8 
" clip-path="url(#p1374ece1ec)" style="fill: none; stroke: #ffffff; stroke-width: 1.1; stroke-linecap: square"/>
     </g>
     <g id="line2d_18">
      <g>
       <use xlink:href="#m9eff2ec42f" x="777.939384" y="139.203583" style="fill: #5a5a5a; stroke: #5a5a5a; stroke-width: 0.8"/>
      </g>
     </g>
     <g id="text_9">
      <!-- 160 -->
      <g style="fill: #5a5a5a" transform="translate(770.903447 153.403583) scale(0.1 -0.1)">
       <use xlink:href="#STSongti-SC-Black-31"/>
       <use xlink:href="#STSongti-SC-Black-36" x="46.899994"/>
       <use xlink:href="#STSongti-SC-Black-30" x="93.799988"/>
      </g>
     </g>
    </g>
    <g id="text_10">
     <!-- 采样时间（秒） -->
     <g style="fill: #444444" transform="translate(415.658354 167.669833) scale(0.11 -0.11)">
      <defs>
       <path id="STSongti-SC-Black-91c7" d="M 2618 4294 
Q 1011 4224 762 4224 
Q 621 4224 621 4272 
Q 621 4320 755 4339 
Q 3552 4736 4864 5331 
Q 5146 5114 5363 4902 
Q 5581 4691 5622 4627 
Q 5664 4563 5664 4531 
Q 5664 4454 5555 4454 
Q 5523 4454 5417 4480 
Q 5312 4506 5190 4506 
Q 5069 4506 4973 4493 
Q 4294 4384 3002 4314 
Q 3680 4122 3680 3629 
Q 3680 3424 3549 3305 
Q 3418 3187 3248 3187 
Q 3078 3187 2992 3270 
Q 2906 3354 2906 3453 
Q 2906 3552 2922 3625 
Q 2938 3699 2938 3776 
Q 2938 4115 2618 4294 
z
M 4634 4288 
Q 4915 4186 5225 4029 
Q 5536 3872 5600 3821 
Q 5664 3770 5664 3718 
Q 5664 3667 5501 3638 
Q 5338 3610 5238 3562 
Q 5139 3514 4806 3242 
Q 4474 2970 4278 2803 
Q 4083 2637 4064 2637 
Q 4045 2637 4045 2650 
Q 4045 2682 4096 2784 
Q 4422 3469 4634 4288 
z
M 1101 3981 
Q 1306 3981 1594 3888 
Q 1882 3795 2032 3622 
Q 2182 3450 2182 3235 
Q 2182 3021 2060 2899 
Q 1939 2778 1772 2778 
Q 1606 2778 1513 2883 
Q 1421 2989 1421 3162 
Q 1421 3206 1430 3270 
Q 1440 3334 1440 3446 
Q 1440 3558 1366 3673 
Q 1293 3789 1171 3872 
Q 1050 3955 1050 3968 
Q 1050 3981 1101 3981 
z
M 3654 2298 
L 5050 2298 
Q 5318 2810 5356 2851 
Q 5395 2893 5427 2893 
Q 5504 2893 5910 2598 
Q 6317 2304 6317 2195 
Q 6317 2086 6157 2086 
L 4051 2086 
Q 4365 1434 4813 1104 
Q 5261 774 6227 518 
Q 6336 486 6336 460 
Q 6336 435 6176 361 
Q 6016 288 5885 173 
Q 5754 58 5600 -211 
Q 5562 -269 5517 -269 
Q 5427 -269 4966 48 
Q 4506 365 4221 845 
Q 3936 1325 3866 2086 
L 3654 2086 
L 3654 224 
Q 3654 13 3661 -224 
L 3674 -442 
Q 3674 -493 3610 -537 
Q 3546 -582 3392 -620 
Q 3238 -659 3091 -659 
Q 2944 -659 2912 -646 
Q 2880 -634 2880 -557 
L 2886 -307 
Q 2899 -51 2899 269 
L 2899 1632 
Q 2451 838 1971 441 
Q 1491 45 1004 -112 
Q 518 -269 397 -269 
Q 352 -269 352 -243 
Q 352 -218 461 -154 
Q 1741 557 2272 2086 
L 915 2086 
Q 787 2086 685 2016 
L 518 2317 
Q 672 2298 838 2298 
L 2899 2298 
L 2899 2515 
Q 2899 2835 2886 3085 
Q 3258 3078 3494 3046 
Q 3731 3014 3769 2988 
Q 3808 2963 3808 2925 
Q 3808 2848 3654 2771 
L 3654 2298 
z
" transform="scale(0.015625)"/>
       <path id="STSongti-SC-Black-6837" d="M 5133 1261 
Q 5197 1382 5315 1568 
Q 5434 1754 5456 1776 
Q 5478 1798 5504 1798 
Q 5574 1798 5939 1488 
Q 6304 1178 6304 1114 
Q 6304 1050 6182 1050 
L 4589 1050 
L 4589 173 
Q 4589 -141 4595 -262 
L 4602 -499 
Q 4602 -550 4573 -572 
Q 4544 -595 4368 -643 
Q 4192 -691 4009 -691 
Q 3827 -691 3795 -672 
Q 3763 -653 3763 -585 
Q 3763 -518 3776 -304 
Q 3789 -90 3789 230 
L 3789 1050 
L 2758 1050 
Q 2630 1050 2528 979 
L 2362 1280 
Q 2515 1261 2682 1261 
L 3789 1261 
L 3789 2368 
L 3008 2368 
Q 3021 2298 3021 2259 
Q 3021 2067 2886 1936 
Q 2752 1805 2608 1805 
Q 2464 1805 2371 1891 
Q 2278 1978 2278 2176 
Q 2278 2701 2016 2874 
L 2016 -480 
Q 2016 -538 1977 -570 
Q 1939 -602 1811 -637 
Q 1683 -672 1523 -672 
Q 1363 -672 1318 -659 
Q 1274 -646 1274 -589 
L 1286 -326 
Q 1293 -58 1293 269 
L 1293 1946 
Q 1043 1510 656 1139 
Q 269 768 211 768 
Q 205 768 205 774 
Q 205 800 256 877 
Q 691 1478 921 2124 
Q 1152 2771 1274 3571 
L 646 3571 
Q 518 3571 416 3501 
L 250 3802 
Q 403 3782 570 3782 
L 1293 3782 
L 1293 4557 
Q 1293 4979 1274 5286 
Q 1530 5280 1811 5241 
Q 2093 5203 2141 5174 
Q 2189 5146 2189 5107 
Q 2189 5024 2016 4947 
L 2016 3782 
L 2112 3782 
Q 2170 3898 2272 4058 
Q 2374 4218 2393 4237 
Q 2413 4256 2441 4256 
Q 2470 4256 2633 4131 
Q 2797 4006 3021 3770 
L 4365 3770 
Q 4634 4570 4742 5306 
Q 5792 5043 5792 4902 
Q 5792 4845 5680 4816 
Q 5568 4787 5334 4579 
Q 5101 4371 4538 3770 
L 5069 3770 
Q 5120 3866 5229 4032 
Q 5338 4198 5357 4217 
Q 5376 4237 5408 4237 
Q 5504 4237 5824 3968 
Q 6144 3699 6144 3628 
Q 6144 3558 6029 3558 
L 4698 3558 
Q 4659 3514 4589 3482 
L 4589 2579 
L 4890 2579 
Q 5107 2995 5142 3040 
Q 5178 3085 5216 3085 
Q 5306 3085 5632 2787 
Q 5958 2490 5958 2429 
Q 5958 2368 5843 2368 
L 4589 2368 
L 4589 1261 
L 5133 1261 
z
M 3789 2579 
L 3789 3558 
L 2650 3558 
Q 2522 3558 2419 3488 
L 2374 3571 
L 2016 3571 
L 2016 2989 
Q 2688 2893 2912 2579 
L 3789 2579 
z
M 2970 5126 
Q 3501 5126 3830 4931 
Q 4160 4736 4160 4397 
Q 4160 4198 4025 4064 
Q 3891 3930 3680 3930 
Q 3392 3930 3373 4269 
Q 3334 4851 2963 5037 
Q 2880 5082 2880 5104 
Q 2880 5126 2970 5126 
z
" transform="scale(0.015625)"/>
       <path id="STSongti-SC-Black-65f6" d="M 2592 3526 
Q 2714 3514 2867 3514 
L 4339 3514 
L 4339 4666 
Q 4339 4986 4326 5235 
Q 5037 5178 5158 5139 
Q 5280 5101 5280 5033 
Q 5280 4966 5114 4915 
L 5114 3514 
L 5158 3514 
Q 5299 3808 5356 3897 
Q 5414 3987 5475 3987 
Q 5536 3987 5849 3718 
Q 6163 3450 6163 3376 
Q 6163 3302 6042 3302 
L 5114 3302 
L 5114 147 
Q 5114 -141 5088 -278 
Q 5062 -416 4969 -499 
Q 4877 -582 4614 -652 
Q 4352 -723 4224 -723 
Q 4070 -723 4051 -563 
Q 4032 -403 3990 -300 
Q 3949 -198 3814 -118 
Q 3680 -38 3418 -6 
Q 3328 0 3328 41 
Q 3328 83 3424 83 
L 3814 70 
Q 4058 70 4170 99 
Q 4282 128 4310 185 
Q 4339 243 4339 352 
L 4339 3302 
L 2944 3302 
Q 2816 3302 2714 3232 
L 2592 3450 
L 2592 1152 
Q 2592 851 2598 736 
L 2605 525 
Q 2605 448 2566 397 
Q 2528 346 2358 294 
Q 2189 243 1971 243 
Q 1926 243 1888 291 
Q 1850 339 1850 410 
L 1850 749 
L 1133 749 
L 1133 256 
Q 1133 192 1094 144 
Q 1056 96 899 45 
Q 742 -6 602 -6 
Q 378 -6 378 109 
L 390 410 
Q 403 723 403 979 
L 403 4045 
Q 403 4435 390 4710 
Q 813 4563 1107 4422 
L 1747 4422 
Q 1907 4691 1952 4752 
Q 1997 4813 2045 4813 
Q 2093 4813 2345 4656 
Q 2598 4499 2707 4409 
Q 2816 4320 2816 4259 
Q 2816 4198 2592 4096 
L 2592 3526 
z
M 1133 2720 
L 1850 2720 
L 1850 4211 
L 1248 4211 
Q 1235 4128 1133 4096 
L 1133 2720 
z
M 1850 2509 
L 1133 2509 
L 1133 960 
L 1850 960 
L 1850 2509 
z
M 2970 2861 
Q 3142 2861 3376 2771 
Q 3610 2682 3770 2554 
Q 3930 2426 4003 2298 
Q 4077 2170 4077 1981 
Q 4077 1792 3939 1638 
Q 3802 1485 3603 1485 
Q 3405 1485 3312 1609 
Q 3219 1734 3238 1900 
Q 3258 2067 3258 2163 
Q 3258 2522 2989 2758 
Q 2925 2816 2925 2838 
Q 2925 2861 2970 2861 
z
" transform="scale(0.015625)"/>
       <path id="STSongti-SC-Black-95f4" d="M 1427 5254 
Q 1907 5254 2294 5052 
Q 2682 4851 2682 4512 
Q 2682 4307 2541 4156 
Q 2400 4006 2202 4006 
Q 2074 4006 1987 4054 
Q 1901 4102 1869 4176 
Q 1837 4250 1837 4397 
Q 1837 4864 1427 5171 
Q 1363 5222 1363 5238 
Q 1363 5254 1427 5254 
z
M 4781 4698 
Q 4934 4992 4988 5069 
Q 5043 5146 5088 5146 
Q 5197 5146 5606 4893 
Q 6016 4640 6016 4525 
Q 6016 4442 5766 4352 
L 5766 186 
Q 5766 -179 5664 -332 
Q 5562 -486 5296 -560 
Q 5030 -634 4870 -634 
Q 4710 -634 4698 -538 
Q 4678 -256 4502 -115 
Q 4326 26 3968 109 
Q 3840 141 3840 160 
Q 3840 179 4122 179 
Q 4557 179 4761 230 
Q 4966 282 4966 454 
L 4966 4486 
L 3290 4486 
Q 3162 4486 3059 4416 
L 2893 4717 
Q 3046 4698 3213 4698 
L 4781 4698 
z
M 614 4544 
Q 915 4499 1155 4428 
Q 1395 4358 1462 4320 
Q 1530 4282 1530 4237 
Q 1530 4154 1338 4077 
L 1338 -378 
Q 1338 -454 1293 -476 
Q 1248 -499 1117 -544 
Q 986 -589 710 -589 
Q 614 -589 614 -499 
L 621 -243 
Q 627 -90 627 301 
L 627 3974 
Q 627 4294 614 4544 
z
M 2650 3539 
L 3443 3539 
Q 3584 3770 3648 3846 
Q 3712 3923 3750 3923 
Q 3827 3923 4192 3699 
Q 4557 3475 4557 3388 
Q 4557 3302 4333 3226 
L 4333 1478 
L 4346 890 
Q 4346 838 4330 812 
Q 4314 787 4230 745 
Q 4147 704 4000 675 
Q 3853 646 3715 646 
Q 3578 646 3578 781 
L 3578 986 
L 2611 986 
L 2611 813 
Q 2611 717 2441 653 
Q 2272 589 2077 589 
Q 1882 589 1888 691 
Q 1914 979 1914 1261 
L 1914 3251 
Q 1914 3533 1894 3808 
Q 2330 3693 2650 3539 
z
M 2611 2426 
L 3578 2426 
L 3578 3328 
L 2714 3328 
Q 2688 3277 2611 3251 
L 2611 2426 
z
M 3578 2214 
L 2611 2214 
L 2611 1197 
L 3578 1197 
L 3578 2214 
z
" transform="scale(0.015625)"/>
       <path id="STSongti-SC-Black-ff08" d="M 6054 -563 
Q 5216 -70 4803 624 
Q 4390 1318 4390 2300 
Q 4390 3283 4816 4022 
Q 5242 4762 6054 5171 
L 6054 4986 
Q 5581 4685 5347 4198 
Q 5114 3712 5114 2409 
Q 5114 1107 5322 556 
Q 5530 6 6054 -378 
L 6054 -563 
z
" transform="scale(0.015625)"/>
       <path id="STSongti-SC-Black-79d2" d="M 1312 4294 
Q 698 4237 352 4237 
Q 250 4237 250 4269 
Q 250 4301 384 4333 
Q 1466 4608 2349 5158 
Q 2611 4947 2806 4764 
Q 3002 4582 3053 4528 
Q 3104 4474 3104 4435 
Q 3104 4397 3046 4397 
Q 2989 4397 2921 4406 
Q 2854 4416 2649 4416 
Q 2445 4416 2150 4390 
Q 2106 4307 1997 4262 
L 1997 3290 
L 2157 3290 
Q 2253 3475 2342 3603 
Q 2432 3731 2470 3731 
Q 2509 3731 2669 3619 
Q 2829 3507 3078 3258 
Q 3162 3706 3155 4019 
Q 3731 3827 3974 3706 
L 3974 4672 
Q 3974 4992 3962 5242 
Q 4877 5203 4877 5062 
Q 4877 5005 4723 4934 
L 4723 4032 
Q 5434 3872 5818 3536 
Q 6202 3200 6202 2835 
Q 6202 2611 6074 2480 
Q 5946 2349 5763 2349 
Q 5581 2349 5507 2432 
Q 5434 2515 5414 2701 
Q 5331 3584 4723 3962 
L 4723 2342 
Q 4723 2093 4730 1926 
L 4742 1638 
Q 4742 1568 4694 1523 
Q 4646 1478 4464 1430 
Q 4282 1382 4051 1382 
Q 3955 1382 3955 1517 
L 3968 1766 
Q 3974 2022 3974 2342 
L 3974 3469 
Q 3872 3456 3770 3270 
Q 3411 2624 2957 2131 
Q 3021 2022 3021 1868 
Q 3021 1715 2905 1584 
Q 2790 1453 2611 1453 
Q 2291 1453 2272 1824 
Q 2246 2426 1997 2624 
L 1997 -352 
Q 1997 -422 1929 -473 
Q 1862 -525 1702 -566 
Q 1542 -608 1436 -608 
Q 1331 -608 1312 -592 
Q 1293 -576 1293 -531 
L 1299 -269 
Q 1312 -6 1312 307 
L 1312 1741 
Q 1062 1325 678 937 
Q 294 550 230 550 
Q 211 550 211 579 
Q 211 608 275 691 
Q 966 1626 1242 3078 
L 576 3078 
Q 448 3078 346 3008 
L 179 3309 
Q 333 3290 499 3290 
L 1312 3290 
L 1312 4294 
z
M 3040 3078 
L 1997 3078 
L 1997 2720 
Q 2528 2573 2797 2336 
Q 2950 2701 3040 3078 
z
M 5062 2400 
Q 5427 2240 5667 2109 
Q 5907 1978 5942 1936 
Q 5978 1894 5978 1850 
Q 5978 1766 5878 1766 
Q 5779 1766 5740 1731 
Q 5702 1696 5638 1587 
Q 5350 1088 5004 717 
Q 4659 346 4172 54 
Q 3686 -237 2979 -448 
Q 2272 -659 2048 -659 
Q 1997 -659 1997 -630 
Q 1997 -602 2106 -563 
Q 3258 -192 4035 573 
Q 4813 1338 5062 2400 
z
" transform="scale(0.015625)"/>
       <path id="STSongti-SC-Black-ff09" d="M 346 5171 
Q 1158 4762 1584 4022 
Q 2010 3283 2010 2300 
Q 2010 1318 1597 624 
Q 1184 -70 346 -563 
L 346 -378 
Q 870 6 1078 556 
Q 1286 1107 1286 2409 
Q 1286 3712 1052 4198 
Q 819 4685 346 4986 
L 346 5171 
z
" transform="scale(0.015625)"/>
      </defs>
      <use xlink:href="#STSongti-SC-Black-91c7"/>
      <use xlink:href="#STSongti-SC-Black-6837" x="99.999985"/>
      <use xlink:href="#STSongti-SC-Black-65f6" x="199.999969"/>
      <use xlink:href="#STSongti-SC-Black-95f4" x="299.999954"/>
      <use xlink:href="#STSongti-SC-Black-ff08" x="399.999939"/>
      <use xlink:href="#STSongti-SC-Black-79d2" x="499.999924"/>
      <use xlink:href="#STSongti-SC-Black-ff09" x="599.999908"/>
     </g>
    </g>
   </g>
   <g id="matplotlib.axis_2">
    <g id="ytick_1">
     <g id="line2d_19">
      <path d="M 43.117188 139.203583 
L 865.19952 139.203583 
" clip-path="url(#p1374ece1ec)" style="fill: none; stroke: #ffffff; stroke-width: 1.1; stroke-linecap: square"/>
     </g>
     <g id="line2d_20">
      <defs>
       <path id="m0785726d6e" d="M 0 0 
L -3.5 0 
" style="stroke: #5a5a5a; stroke-width: 0.8"/>
      </defs>
      <g>
       <use xlink:href="#m0785726d6e" x="43.117188" y="139.203583" style="fill: #5a5a5a; stroke: #5a5a5a; stroke-width: 0.8"/>
      </g>
     </g>
     <g id="text_11">
      <!-- 0 -->
      <g style="fill: #5a5a5a" transform="translate(31.426562 142.803583) scale(0.1 -0.1)">
       <use xlink:href="#STSongti-SC-Black-30"/>
      </g>
     </g>
    </g>
    <g id="ytick_2">
     <g id="line2d_21">
      <path d="M 43.117188 113.522866 
L 865.19952 113.522866 
" clip-path="url(#p1374ece1ec)" style="fill: none; stroke: #ffffff; stroke-width: 1.1; stroke-linecap: square"/>
     </g>
     <g id="line2d_22">
      <g>
       <use xlink:href="#m0785726d6e" x="43.117188" y="113.522866" style="fill: #5a5a5a; stroke: #5a5a5a; stroke-width: 0.8"/>
      </g>
     </g>
     <g id="text_12">
      <!-- 20 -->
      <g style="fill: #5a5a5a" transform="translate(26.735937 117.122866) scale(0.1 -0.1)">
       <use xlink:href="#STSongti-SC-Black-32"/>
       <use xlink:href="#STSongti-SC-Black-30" x="46.899994"/>
      </g>
     </g>
    </g>
    <g id="ytick_3">
     <g id="line2d_23">
      <path d="M 43.117188 87.84215 
L 865.19952 87.84215 
" clip-path="url(#p1374ece1ec)" style="fill: none; stroke: #ffffff; stroke-width: 1.1; stroke-linecap: square"/>
     </g>
     <g id="line2d_24">
      <g>
       <use xlink:href="#m0785726d6e" x="43.117188" y="87.84215" style="fill: #5a5a5a; stroke: #5a5a5a; stroke-width: 0.8"/>
      </g>
     </g>
     <g id="text_13">
      <!-- 40 -->
      <g style="fill: #5a5a5a" transform="translate(26.735937 91.44215) scale(0.1 -0.1)">
       <use xlink:href="#STSongti-SC-Black-34"/>
       <use xlink:href="#STSongti-SC-Black-30" x="46.899994"/>
      </g>
     </g>
    </g>
    <g id="ytick_4">
     <g id="line2d_25">
      <path d="M 43.117188 62.161433 
L 865.19952 62.161433 
" clip-path="url(#p1374ece1ec)" style="fill: none; stroke: #ffffff; stroke-width: 1.1; stroke-linecap: square"/>
     </g>
     <g id="line2d_26">
      <g>
       <use xlink:href="#m0785726d6e" x="43.117188" y="62.161433" style="fill: #5a5a5a; stroke: #5a5a5a; stroke-width: 0.8"/>
      </g>
     </g>
     <g id="text_14">
      <!-- 60 -->
      <g style="fill: #5a5a5a" transform="translate(26.735937 65.761433) scale(0.1 -0.1)">
       <use xlink:href="#STSongti-SC-Black-36"/>
       <use xlink:href="#STSongti-SC-Black-30" x="46.899994"/>
      </g>
     </g>
    </g>
    <g id="ytick_5">
     <g id="line2d_27">
      <path d="M 43.117188 36.480716 
L 865.19952 36.480716 
" clip-path="url(#p1374ece1ec)" style="fill: none; stroke: #ffffff; stroke-width: 1.1; stroke-linecap: square"/>
     </g>
     <g id="line2d_28">
      <g>
       <use xlink:href="#m0785726d6e" x="43.117188" y="36.480716" style="fill: #5a5a5a; stroke: #5a5a5a; stroke-width: 0.8"/>
      </g>
     </g>
     <g id="text_15">
      <!-- 80 -->
      <g style="fill: #5a5a5a" transform="translate(26.735937 40.080716) scale(0.1 -0.1)">
       <use xlink:href="#STSongti-SC-Black-38"/>
       <use xlink:href="#STSongti-SC-Black-30" x="46.899994"/>
      </g>
     </g>
    </g>
    <g id="ytick_6">
     <g id="line2d_29">
      <path d="M 43.117188 10.8 
L 865.19952 10.8 
" clip-path="url(#p1374ece1ec)" style="fill: none; stroke: #ffffff; stroke-width: 1.1; stroke-linecap: square"/>
     </g>
     <g id="line2d_30">
      <g>
       <use xlink:href="#m0785726d6e" x="43.117188" y="10.8" style="fill: #5a5a5a; stroke: #5a5a5a; stroke-width: 0.8"/>
      </g>
     </g>
     <g id="text_16">
      <!-- 100 -->
      <g style="fill: #5a5a5a" transform="translate(22.045313 14.4) scale(0.1 -0.1)">
       <use xlink:href="#STSongti-SC-Black-31"/>
       <use xlink:href="#STSongti-SC-Black-30" x="46.899994"/>
       <use xlink:href="#STSongti-SC-Black-30" x="93.799988"/>
      </g>
     </g>
    </g>
    <g id="text_17">
     <!-- CPU 利用率（%） -->
     <g style="fill: #444444" transform="translate(16.44 119.116947) rotate(-90) scale(0.11 -0.11)">
      <defs>
       <path id="STSongti-SC-Black-43" d="M 3910 1459 
Q 3891 1363 3872 1232 
Q 3853 1101 3827 960 
Q 3802 819 3773 684 
Q 3744 550 3712 442 
Q 3507 358 3200 320 
Q 2893 282 2445 282 
Q 1997 282 1590 416 
Q 1184 550 873 806 
Q 563 1062 377 1436 
Q 192 1811 192 2298 
Q 192 2784 358 3181 
Q 525 3578 816 3859 
Q 1107 4141 1500 4294 
Q 1894 4448 2349 4448 
Q 2720 4448 2989 4406 
Q 3258 4365 3430 4314 
Q 3635 4256 3770 4186 
Q 3776 4109 3782 3971 
Q 3789 3834 3792 3680 
Q 3795 3526 3792 3385 
Q 3789 3245 3789 3162 
L 3603 3162 
Q 3584 3347 3517 3529 
Q 3450 3712 3318 3859 
Q 3187 4006 2985 4096 
Q 2784 4186 2496 4186 
Q 2176 4186 1917 4083 
Q 1658 3981 1475 3769 
Q 1293 3558 1190 3228 
Q 1088 2899 1088 2445 
Q 1088 1933 1206 1574 
Q 1325 1216 1526 989 
Q 1728 762 2003 656 
Q 2278 550 2598 550 
Q 2816 550 2989 614 
Q 3162 678 3299 793 
Q 3437 909 3549 1078 
Q 3661 1248 3763 1459 
L 3910 1459 
z
" transform="scale(0.015625)"/>
       <path id="STSongti-SC-Black-50" d="M 160 4384 
Q 474 4384 685 4387 
Q 896 4390 1005 4397 
L 1933 4448 
Q 2054 4454 2102 4454 
Q 2150 4454 2176 4454 
Q 2477 4454 2739 4387 
Q 3002 4320 3194 4176 
Q 3386 4032 3498 3808 
Q 3610 3584 3610 3277 
Q 3610 2995 3498 2784 
Q 3386 2573 3203 2429 
Q 3021 2285 2787 2214 
Q 2554 2144 2317 2144 
Q 2131 2144 1990 2195 
Q 1850 2246 1728 2368 
L 1741 2426 
Q 1824 2394 1920 2384 
Q 2016 2374 2086 2374 
Q 2246 2374 2377 2419 
Q 2509 2464 2605 2563 
Q 2701 2662 2755 2828 
Q 2810 2995 2810 3245 
Q 2810 3667 2598 3932 
Q 2387 4198 1952 4198 
Q 1862 4198 1801 4195 
Q 1741 4192 1690 4186 
Q 1638 4179 1603 4169 
Q 1568 4160 1536 4147 
L 1536 864 
Q 1536 768 1577 701 
Q 1619 634 1760 608 
L 2144 538 
L 2144 358 
Q 1875 371 1635 377 
Q 1395 384 1222 384 
Q 1024 384 816 377 
Q 608 371 288 365 
L 288 544 
L 646 614 
Q 742 634 774 685 
Q 806 736 806 858 
L 806 3744 
Q 806 3987 656 4070 
Q 506 4154 160 4192 
L 160 4384 
z
" transform="scale(0.015625)"/>
       <path id="STSongti-SC-Black-55" d="M 2099 4403 
L 2099 4224 
L 1715 4173 
Q 1600 4160 1552 4086 
Q 1504 4013 1504 3853 
L 1504 1645 
Q 1504 1126 1763 857 
Q 2022 589 2522 589 
Q 2829 589 3043 665 
Q 3258 742 3395 921 
Q 3533 1101 3593 1401 
Q 3654 1702 3654 2150 
L 3654 3846 
Q 3654 4102 3392 4154 
L 3014 4224 
L 3014 4403 
Q 3168 4384 3667 4384 
Q 3917 4384 4150 4387 
Q 4384 4390 4467 4403 
L 4467 4224 
L 4096 4141 
Q 3955 4115 3955 3846 
L 3955 1984 
Q 3955 1146 3603 714 
Q 3251 282 2458 282 
Q 1600 282 1142 627 
Q 685 973 685 1632 
L 685 3872 
Q 685 4026 653 4093 
Q 621 4160 531 4173 
L 160 4224 
L 160 4403 
Q 371 4390 643 4387 
Q 915 4384 1184 4384 
Q 1318 4384 1456 4384 
Q 1594 4384 1718 4387 
Q 1843 4390 1942 4393 
Q 2042 4397 2099 4403 
z
" transform="scale(0.015625)"/>
       <path id="STSongti-SC-Black-20" transform="scale(0.015625)"/>
       <path id="STSongti-SC-Black-5229" d="M 1805 4205 
Q 883 4134 467 4134 
Q 352 4134 352 4156 
Q 352 4179 499 4211 
Q 1280 4378 1971 4630 
Q 2662 4883 3072 5158 
Q 3302 4947 3497 4739 
Q 3693 4531 3721 4486 
Q 3750 4442 3750 4400 
Q 3750 4358 3648 4365 
L 3546 4371 
Q 3334 4371 2669 4288 
Q 2624 4186 2502 4141 
L 2502 3162 
L 2829 3162 
Q 2950 3379 3052 3504 
Q 3155 3629 3206 3629 
Q 3290 3629 3590 3376 
Q 3891 3123 3891 3036 
Q 3891 2950 3757 2950 
L 2502 2950 
L 2502 2522 
Q 3059 2445 3372 2195 
Q 3686 1946 3686 1664 
Q 3686 1459 3561 1324 
Q 3437 1190 3286 1190 
Q 3136 1190 3059 1244 
Q 2982 1299 2960 1369 
Q 2938 1440 2938 1622 
Q 2938 1805 2822 2022 
Q 2707 2240 2502 2406 
L 2502 -429 
Q 2502 -531 2310 -588 
Q 2118 -646 1977 -646 
Q 1837 -646 1811 -630 
Q 1786 -614 1786 -563 
L 1792 -301 
Q 1805 -38 1805 275 
L 1805 1702 
Q 1478 1222 934 774 
Q 390 326 320 326 
Q 307 326 307 339 
Q 307 365 384 442 
Q 1306 1402 1664 2950 
L 768 2950 
Q 640 2950 538 2880 
L 371 3181 
Q 525 3162 691 3162 
L 1805 3162 
L 1805 4205 
z
M 5190 5101 
Q 5542 5069 5808 5021 
Q 6074 4973 6122 4937 
Q 6170 4902 6170 4864 
Q 6170 4781 5958 4717 
L 5958 77 
Q 5958 -109 5920 -237 
Q 5882 -365 5779 -457 
Q 5677 -550 5472 -611 
Q 5267 -672 5120 -672 
Q 4973 -672 4931 -627 
Q 4890 -582 4870 -480 
Q 4832 -250 4672 -131 
Q 4512 -13 4294 32 
Q 4077 77 4077 109 
Q 4077 141 4192 134 
Q 4307 128 4553 128 
Q 4800 128 4960 166 
Q 5120 205 5161 275 
Q 5203 346 5203 499 
L 5203 4531 
Q 5203 4851 5190 5101 
z
M 3987 4243 
Q 4845 4186 4845 4051 
Q 4845 3987 4678 3923 
L 4678 1587 
L 4691 1011 
Q 4691 954 4643 915 
Q 4595 877 4422 829 
Q 4250 781 4051 781 
Q 3981 781 3981 851 
L 3987 1094 
Q 4000 1382 4000 1626 
L 4000 3731 
Q 4000 4019 3987 4243 
z
" transform="scale(0.015625)"/>
       <path id="STSongti-SC-Black-7528" d="M 2208 4723 
L 4774 4723 
Q 4992 5139 5082 5139 
Q 5146 5139 5533 4841 
Q 5920 4544 5920 4448 
Q 5920 4365 5670 4282 
L 5670 307 
Q 5670 -102 5577 -249 
Q 5485 -397 5206 -496 
Q 4928 -595 4826 -595 
Q 4685 -595 4672 -429 
Q 4653 -160 4512 -45 
Q 4371 70 4077 128 
Q 3962 154 3962 179 
Q 3962 205 4214 208 
Q 4467 211 4672 249 
Q 4877 288 4877 416 
L 4877 1786 
L 3853 1786 
L 3853 742 
L 3859 83 
Q 3859 0 3817 -51 
Q 3776 -102 3613 -153 
Q 3450 -205 3248 -205 
Q 3046 -205 3046 -32 
L 3059 237 
Q 3066 506 3066 742 
L 3066 1786 
L 2080 1786 
Q 2016 1088 1776 640 
Q 1536 192 1008 -243 
Q 480 -678 397 -678 
Q 378 -678 378 -656 
Q 378 -634 442 -570 
Q 870 -141 1072 364 
Q 1274 870 1334 1497 
Q 1395 2125 1395 3014 
Q 1395 3904 1370 5030 
Q 1843 4896 2208 4723 
z
M 2150 3379 
L 3066 3379 
L 3066 4512 
L 2214 4512 
Q 2150 4480 2150 4224 
L 2150 3379 
z
M 3853 3379 
L 4877 3379 
L 4877 4512 
L 3968 4512 
Q 3981 4448 3853 4358 
L 3853 3379 
z
M 3066 3168 
L 2144 3168 
Q 2138 2426 2099 1997 
L 3066 1997 
L 3066 3168 
z
M 4877 3168 
L 3853 3168 
L 3853 1997 
L 4877 1997 
L 4877 3168 
z
" transform="scale(0.015625)"/>
       <path id="STSongti-SC-Black-7387" d="M 2976 4538 
Q 2938 4576 2915 4627 
Q 2893 4678 2893 4736 
L 2899 4832 
Q 2899 5114 2650 5254 
Q 2566 5299 2566 5325 
Q 2566 5363 2950 5363 
Q 3750 5363 3750 4922 
Q 3750 4672 3475 4538 
L 4890 4538 
Q 5139 4960 5180 5005 
Q 5222 5050 5261 5050 
Q 5357 5050 5699 4762 
Q 6042 4474 6042 4400 
Q 6042 4326 5914 4326 
L 3302 4326 
Q 3533 4230 3613 4172 
Q 3693 4115 3693 4054 
Q 3693 3994 3613 3994 
Q 3533 3994 3449 3958 
Q 3366 3923 3088 3724 
Q 2810 3526 2605 3341 
L 3430 3334 
Q 3661 3642 3744 3814 
Q 3872 3738 4102 3558 
Q 4333 3379 4358 3350 
Q 4384 3322 4384 3296 
Q 4384 3245 4307 3241 
Q 4230 3238 3932 3017 
Q 3635 2797 3443 2669 
Q 3923 2592 4246 2393 
Q 4570 2195 4570 1888 
Q 4570 1709 4419 1587 
Q 4269 1466 4160 1466 
Q 4051 1466 3984 1514 
Q 3917 1562 3897 1619 
Q 3878 1677 3878 1776 
Q 3878 1875 3846 1990 
L 2989 1734 
Q 3091 1728 3366 1686 
Q 3642 1645 3680 1616 
Q 3718 1587 3718 1532 
Q 3718 1478 3616 1421 
L 3616 941 
L 5062 941 
Q 5306 1350 5357 1421 
Q 5146 1408 5056 1523 
Q 4966 1638 4902 1926 
Q 4864 2080 4672 2320 
Q 4480 2560 4256 2714 
Q 4678 3494 4781 4160 
Q 4954 4109 5245 3977 
Q 5536 3846 5632 3788 
Q 5728 3731 5728 3680 
Q 5728 3597 5574 3584 
Q 5466 3571 5373 3516 
Q 5280 3462 4941 3190 
Q 4602 2918 4378 2714 
Q 5101 2586 5411 2381 
Q 5722 2176 5722 1894 
Q 5722 1613 5510 1478 
Q 5658 1414 5971 1142 
Q 6285 870 6285 800 
Q 6285 730 6157 730 
L 3616 730 
L 3616 211 
Q 3616 -109 3622 -230 
L 3629 -454 
Q 3629 -563 3395 -627 
Q 3162 -691 3024 -691 
Q 2886 -691 2844 -665 
Q 2803 -640 2803 -557 
L 2816 -307 
Q 2822 -58 2822 243 
L 2822 730 
L 634 730 
Q 506 730 403 659 
L 237 960 
Q 390 941 557 941 
L 2822 941 
L 2822 1190 
L 2816 1670 
Q 2438 1555 2352 1510 
Q 2266 1466 2253 1466 
Q 2227 1466 2217 1507 
Q 2208 1549 2125 1798 
Q 2042 2048 2042 2086 
Q 2042 2157 2102 2144 
Q 2163 2131 2195 2131 
Q 2336 2131 2646 2428 
Q 2957 2726 3206 3040 
Q 2586 2880 2362 2771 
Q 2336 2758 2307 2758 
Q 2278 2758 2265 2780 
Q 2253 2803 2169 3049 
Q 2086 3296 2086 3334 
Q 2086 3373 2125 3379 
Q 2349 3411 2502 3648 
Q 2656 3885 2803 4326 
L 883 4326 
Q 755 4326 653 4256 
L 486 4557 
Q 640 4538 806 4538 
L 2976 4538 
z
M 3379 2624 
Q 2842 2272 2630 2125 
L 3789 2138 
Q 3654 2426 3379 2624 
z
M 787 4070 
Q 883 4070 1180 3961 
Q 1478 3853 1670 3667 
Q 1862 3482 1862 3277 
Q 1862 3072 1740 2937 
Q 1619 2803 1402 2803 
Q 1274 2803 1181 2912 
Q 1088 3021 1088 3162 
L 1094 3296 
Q 1094 3501 1014 3696 
Q 934 3891 800 3994 
Q 749 4032 749 4051 
Q 749 4070 787 4070 
z
M 410 2208 
Q 787 2298 1292 2470 
Q 1798 2643 1977 2736 
Q 2157 2829 2185 2829 
Q 2214 2829 2214 2816 
Q 2214 2784 2012 2601 
Q 1811 2419 1446 2035 
Q 1082 1651 1005 1536 
Q 928 1421 905 1421 
Q 883 1421 864 1440 
Q 845 1459 678 1712 
Q 512 1965 410 2208 
z
" transform="scale(0.015625)"/>
       <path id="STSongti-SC-Black-25" d="M 4819 4576 
L 858 -934 
L 518 -672 
L 4467 4819 
L 4819 4576 
z
M 1837 4762 
Q 2016 4762 2182 4666 
Q 2349 4570 2477 4400 
Q 2605 4230 2681 3996 
Q 2758 3763 2758 3482 
Q 2758 3200 2688 2963 
Q 2618 2726 2496 2550 
Q 2374 2374 2201 2275 
Q 2029 2176 1830 2176 
Q 1626 2176 1456 2272 
Q 1286 2368 1164 2541 
Q 1043 2714 972 2950 
Q 902 3187 902 3475 
Q 902 3763 976 4003 
Q 1050 4243 1178 4409 
Q 1306 4576 1475 4669 
Q 1645 4762 1837 4762 
z
M 2150 3040 
Q 2150 3386 2150 3677 
Q 2150 3968 2124 4179 
Q 2099 4390 2032 4508 
Q 1965 4627 1824 4627 
Q 1715 4627 1651 4572 
Q 1587 4518 1555 4396 
Q 1523 4275 1513 4080 
Q 1504 3885 1504 3603 
Q 1504 3283 1510 3040 
Q 1517 2797 1545 2633 
Q 1574 2470 1638 2384 
Q 1702 2298 1824 2298 
Q 2150 2298 2150 3040 
z
M 3475 1754 
Q 3648 1754 3811 1658 
Q 3974 1562 4096 1392 
Q 4218 1222 4291 985 
Q 4365 749 4365 467 
Q 4365 186 4297 -51 
Q 4230 -288 4112 -461 
Q 3994 -634 3834 -733 
Q 3674 -832 3488 -832 
Q 3302 -832 3139 -736 
Q 2976 -640 2857 -470 
Q 2739 -301 2668 -61 
Q 2598 179 2598 467 
Q 2598 755 2668 995 
Q 2739 1235 2857 1401 
Q 2976 1568 3136 1661 
Q 3296 1754 3475 1754 
z
M 3776 32 
Q 3776 378 3776 669 
Q 3776 960 3753 1171 
Q 3731 1382 3667 1500 
Q 3603 1619 3475 1619 
Q 3379 1619 3321 1571 
Q 3264 1523 3235 1404 
Q 3206 1286 3196 1088 
Q 3187 890 3187 595 
Q 3187 256 3190 13 
Q 3194 -230 3222 -390 
Q 3251 -550 3308 -624 
Q 3366 -698 3482 -698 
Q 3776 -698 3776 32 
z
" transform="scale(0.015625)"/>
      </defs>
      <use xlink:href="#STSongti-SC-Black-43"/>
      <use xlink:href="#STSongti-SC-Black-50" x="63.599991"/>
      <use xlink:href="#STSongti-SC-Black-55" x="122.499985"/>
      <use xlink:href="#STSongti-SC-Black-20" x="194.799973"/>
      <use xlink:href="#STSongti-SC-Black-5229" x="219.799957"/>
      <use xlink:href="#STSongti-SC-Black-7528" x="319.799942"/>
      <use xlink:href="#STSongti-SC-Black-7387" x="419.799927"/>
      <use xlink:href="#STSongti-SC-Black-ff08" x="519.799911"/>
      <use xlink:href="#STSongti-SC-Black-25" x="619.799896"/>
      <use xlink:href="#STSongti-SC-Black-ff09" x="702.099884"/>
     </g>
    </g>
   </g>
   <g id="line2d_31">
    <path d="M 43.117188 90.406746 
L 47.709826 88.136675 
L 52.302465 88.353201 
L 56.895104 88.74792 
L 61.487742 86.251128 
L 66.080381 86.608604 
L 70.67302 82.606526 
L 75.265659 78.108164 
L 79.858297 82.567975 
L 84.450936 82.393462 
L 89.043575 78.910249 
L 93.636214 79.13603 
L 98.228852 79.896425 
L 102.821491 83.071525 
L 107.41413 80.968556 
L 112.006768 79.550013 
L 116.599407 86.112792 
L 121.192046 84.5672 
L 125.784685 89.743046 
L 130.377323 89.230462 
L 134.969962 92.099569 
L 139.562601 88.938594 
L 144.15524 93.274041 
L 148.747878 90.360482 
L 153.340517 92.10313 
L 157.933156 94.451575 
L 162.525794 102.342249 
L 167.118433 97.969753 
L 171.711072 97.682764 
L 176.303711 98.184459 
L 180.896349 103.628116 
L 185.488988 101.283052 
L 190.081627 103.13976 
L 194.674266 102.908048 
L 199.266904 97.674269 
L 203.859543 102.799334 
L 208.452182 100.25821 
L 213.04482 97.123248 
L 217.637459 100.541405 
L 222.230098 98.307633 
L 226.822737 96.621751 
L 231.415375 95.554039 
L 236.008014 97.871456 
L 245.193292 87.625536 
L 249.78593 94.245206 
L 254.378569 85.800369 
L 263.563846 86.618525 
L 268.156485 77.394039 
L 272.749124 79.099251 
L 277.341763 82.814809 
L 281.934401 77.352846 
L 286.52704 74.026145 
L 291.119679 74.22937 
L 295.712318 69.752102 
L 300.304956 69.797835 
L 309.490234 61.263561 
L 314.082873 65.060897 
L 318.675511 60.422379 
L 323.26815 60.212447 
L 327.860789 56.569419 
L 332.453427 58.488091 
L 337.046066 55.223872 
L 341.638705 52.91061 
L 346.231344 48.96741 
L 350.823982 47.858868 
L 355.416621 54.902098 
L 360.00926 53.985924 
L 364.601899 51.00698 
L 369.194537 60.056318 
L 373.787176 57.793031 
L 378.379815 59.221094 
L 382.972453 58.185795 
L 387.565092 62.818288 
L 392.157731 68.858598 
L 396.75037 72.180647 
L 401.343008 74.987452 
L 405.935647 72.960574 
L 410.528286 81.217628 
L 415.120925 83.303916 
L 419.713563 83.531018 
L 424.306202 86.56075 
L 428.898841 88.067061 
L 433.491479 91.547471 
L 438.084118 88.941638 
L 442.676757 90.319071 
L 447.269396 85.616713 
L 451.862034 86.64549 
L 456.454673 87.923644 
L 461.047312 85.170735 
L 465.639951 87.113228 
L 470.232589 82.216943 
L 474.825228 84.229417 
L 479.417867 81.623826 
L 484.010505 86.047239 
L 488.603144 80.65469 
L 493.195783 85.768989 
L 497.788422 86.27072 
L 502.38106 81.074684 
L 506.973699 82.634232 
L 511.566338 79.696789 
L 516.158977 74.079597 
L 520.751615 83.220105 
L 525.344254 83.264619 
L 529.936893 81.72292 
L 534.529532 81.865002 
L 539.12217 84.843688 
L 543.714809 86.123417 
L 548.307448 84.833608 
L 552.900086 86.67233 
L 557.492725 92.392611 
L 562.085364 90.992887 
L 566.678003 91.881779 
L 571.270641 96.032811 
L 575.86328 93.191954 
L 580.455919 96.955649 
L 585.048558 92.059014 
L 589.641196 94.135087 
L 594.233835 93.845541 
L 598.826474 94.685355 
L 603.419112 91.745947 
L 608.011751 94.932737 
L 612.60439 89.887994 
L 617.197029 82.672132 
L 621.789667 86.433524 
L 626.382306 74.618077 
L 630.974945 78.565758 
L 635.567584 68.330185 
L 640.160222 70.069542 
L 644.752861 63.214405 
L 649.3455 63.401555 
L 653.938138 67.144276 
L 658.530777 58.979149 
L 663.123416 58.761435 
L 667.716055 63.8734 
L 672.308693 65.719328 
L 676.901332 66.924544 
L 681.493971 70.892088 
L 686.08661 66.719603 
L 690.679248 72.973139 
L 695.271887 73.072229 
L 699.864526 76.49977 
L 704.457164 77.200817 
L 709.049803 80.078092 
L 713.642442 73.852162 
L 718.235081 78.713401 
L 722.827719 76.407671 
L 727.420358 79.978785 
L 732.012997 82.911335 
L 736.605636 82.880934 
L 741.198274 84.636212 
L 745.790913 84.216703 
L 750.383552 86.569461 
L 754.976191 87.699212 
L 759.568829 92.143653 
L 764.161468 91.959172 
L 768.754107 86.446951 
L 773.346745 94.438299 
L 777.939384 96.899309 
L 782.532023 94.278907 
L 787.124662 92.472286 
L 791.7173 101.653177 
L 796.309939 99.093843 
L 800.902578 101.09171 
L 805.495217 104.909167 
L 810.087855 98.30129 
L 814.680494 100.692458 
L 819.273133 100.474434 
L 823.865771 102.651637 
L 828.45841 98.895036 
L 833.051049 101.166341 
L 837.643688 99.330017 
L 842.236326 101.17472 
L 846.828965 100.448463 
L 851.421604 92.080988 
L 856.014243 96.020846 
L 860.606881 92.417685 
L 865.19952 91.935301 
L 865.19952 91.935301 
" clip-path="url(#p1374ece1ec)" style="fill: none; stroke: #1f1f1f; stroke-width: 2; stroke-linecap: square"/>
   </g>
   <g id="patch_3">
    <path d="M 43.117188 139.203583 
L 43.117188 10.8 
" style="fill: none; stroke: #bbbbbb; stroke-linejoin: miter; stroke-linecap: square"/>
   </g>
   <g id="patch_4">
    <path d="M 43.117188 139.203583 
L 865.19952 139.203583 
" style="fill: none; stroke: #bbbbbb; stroke-linejoin: miter; stroke-linecap: square"/>
   </g>
   <g id="text_18">
    <g id="patch_5">
     <path d="M 75.944871 112.789604 
L 75.944871 37.213979 
L 51.393621 37.213979 
L 51.393621 112.789604 
z
" style="fill: #d9d9d9; stroke: #d9d9d9; stroke-width: 0.5; stroke-linejoin: miter"/>
    </g>
    <!-- CPU 利用率 -->
    <g style="fill: #3a3a3a" transform="translate(67.676121 106.189604) rotate(-90) scale(0.12 -0.12)">
     <use xlink:href="#STSongti-SC-Black-43"/>
     <use xlink:href="#STSongti-SC-Black-50" x="63.599991"/>
     <use xlink:href="#STSongti-SC-Black-55" x="122.499985"/>
     <use xlink:href="#STSongti-SC-Black-20" x="194.799973"/>
     <use xlink:href="#STSongti-SC-Black-5229" x="219.799957"/>
     <use xlink:href="#STSongti-SC-Black-7528" x="319.799942"/>
     <use xlink:href="#STSongti-SC-Black-7387" x="419.799927"/>
    </g>
   </g>
  </g>
  <g id="axes_2">
   <g id="patch_6">
    <path d="M 43.117188 307.203582 
L 865.19952 307.203582 
L 865.19952 178.8 
L 43.117188 178.8 
z
" style="fill: #f4f4f4"/>
   </g>
   <g id="matplotlib.axis_3">
    <g id="xtick_10">
     <g id="line2d_32">
      <path d="M 43.117188 307.203582 
L 43.117188 178.8 
" clip-path="url(#p8d622b9391)" style="fill: none; stroke: #ffffff; stroke-width: 1.1; stroke-linecap: square"/>
     </g>
     <g id="line2d_33">
      <g>
       <use xlink:href="#m9eff2ec42f" x="43.117188" y="307.203582" style="fill: #5a5a5a; stroke: #5a5a5a; stroke-width: 0.8"/>
      </g>
     </g>
     <g id="text_19">
      <!-- 0 -->
      <g style="fill: #5a5a5a" transform="translate(40.771875 321.403582) scale(0.1 -0.1)">
       <use xlink:href="#STSongti-SC-Black-30"/>
      </g>
     </g>
    </g>
    <g id="xtick_11">
     <g id="line2d_34">
      <path d="M 134.969962 307.203582 
L 134.969962 178.8 
" clip-path="url(#p8d622b9391)" style="fill: none; stroke: #ffffff; stroke-width: 1.1; stroke-linecap: square"/>
     </g>
     <g id="line2d_35">
      <g>
       <use xlink:href="#m9eff2ec42f" x="134.969962" y="307.203582" style="fill: #5a5a5a; stroke: #5a5a5a; stroke-width: 0.8"/>
      </g>
     </g>
     <g id="text_20">
      <!-- 20 -->
      <g style="fill: #5a5a5a" transform="translate(130.279337 321.403582) scale(0.1 -0.1)">
       <use xlink:href="#STSongti-SC-Black-32"/>
       <use xlink:href="#STSongti-SC-Black-30" x="46.899994"/>
      </g>
     </g>
    </g>
    <g id="xtick_12">
     <g id="line2d_36">
      <path d="M 226.822737 307.203582 
L 226.822737 178.8 
" clip-path="url(#p8d622b9391)" style="fill: none; stroke: #ffffff; stroke-width: 1.1; stroke-linecap: square"/>
     </g>
     <g id="line2d_37">
      <g>
       <use xlink:href="#m9eff2ec42f" x="226.822737" y="307.203582" style="fill: #5a5a5a; stroke: #5a5a5a; stroke-width: 0.8"/>
      </g>
     </g>
     <g id="text_21">
      <!-- 40 -->
      <g style="fill: #5a5a5a" transform="translate(222.132112 321.403582) scale(0.1 -0.1)">
       <use xlink:href="#STSongti-SC-Black-34"/>
       <use xlink:href="#STSongti-SC-Black-30" x="46.899994"/>
      </g>
     </g>
    </g>
    <g id="xtick_13">
     <g id="line2d_38">
      <path d="M 318.675511 307.203582 
L 318.675511 178.8 
" clip-path="url(#p8d622b9391)" style="fill: none; stroke: #ffffff; stroke-width: 1.1; stroke-linecap: square"/>
     </g>
     <g id="line2d_39">
      <g>
       <use xlink:href="#m9eff2ec42f" x="318.675511" y="307.203582" style="fill: #5a5a5a; stroke: #5a5a5a; stroke-width: 0.8"/>
      </g>
     </g>
     <g id="text_22">
      <!-- 60 -->
      <g style="fill: #5a5a5a" transform="translate(313.984886 321.403582) scale(0.1 -0.1)">
       <use xlink:href="#STSongti-SC-Black-36"/>
       <use xlink:href="#STSongti-SC-Black-30" x="46.899994"/>
      </g>
     </g>
    </g>
    <g id="xtick_14">
     <g id="line2d_40">
      <path d="M 410.528286 307.203582 
L 410.528286 178.8 
" clip-path="url(#p8d622b9391)" style="fill: none; stroke: #ffffff; stroke-width: 1.1; stroke-linecap: square"/>
     </g>
     <g id="line2d_41">
      <g>
       <use xlink:href="#m9eff2ec42f" x="410.528286" y="307.203582" style="fill: #5a5a5a; stroke: #5a5a5a; stroke-width: 0.8"/>
      </g>
     </g>
     <g id="text_23">
      <!-- 80 -->
      <g style="fill: #5a5a5a" transform="translate(405.837661 321.403582) scale(0.1 -0.1)">
       <use xlink:href="#STSongti-SC-Black-38"/>
       <use xlink:href="#STSongti-SC-Black-30" x="46.899994"/>
      </g>
     </g>
    </g>
    <g id="xtick_15">
     <g id="line2d_42">
      <path d="M 502.38106 307.203582 
L 502.38106 178.8 
" clip-path="url(#p8d622b9391)" style="fill: none; stroke: #ffffff; stroke-width: 1.1; stroke-linecap: square"/>
     </g>
     <g id="line2d_43">
      <g>
       <use xlink:href="#m9eff2ec42f" x="502.38106" y="307.203582" style="fill: #5a5a5a; stroke: #5a5a5a; stroke-width: 0.8"/>
      </g>
     </g>
     <g id="text_24">
      <!-- 100 -->
      <g style="fill: #5a5a5a" transform="translate(495.345123 321.403582) scale(0.1 -0.1)">
       <use xlink:href="#STSongti-SC-Black-31"/>
       <use xlink:href="#STSongti-SC-Black-30" x="46.899994"/>
       <use xlink:href="#STSongti-SC-Black-30" x="93.799988"/>
      </g>
     </g>
    </g>
    <g id="xtick_16">
     <g id="line2d_44">
      <path d="M 594.233835 307.203582 
L 594.233835 178.8 
" clip-path="url(#p8d622b9391)" style="fill: none; stroke: #ffffff; stroke-width: 1.1; stroke-linecap: square"/>
     </g>
     <g id="line2d_45">
      <g>
       <use xlink:href="#m9eff2ec42f" x="594.233835" y="307.203582" style="fill: #5a5a5a; stroke: #5a5a5a; stroke-width: 0.8"/>
      </g>
     </g>
     <g id="text_25">
      <!-- 120 -->
      <g style="fill: #5a5a5a" transform="translate(587.197897 321.403582) scale(0.1 -0.1)">
       <use xlink:href="#STSongti-SC-Black-31"/>
       <use xlink:href="#STSongti-SC-Black-32" x="46.899994"/>
       <use xlink:href="#STSongti-SC-Black-30" x="93.799988"/>
      </g>
     </g>
    </g>
    <g id="xtick_17">
     <g id="line2d_46">
      <path d="M 686.08661 307.203582 
L 686.08661 178.8 
" clip-path="url(#p8d622b9391)" style="fill: none; stroke: #ffffff; stroke-width: 1.1; stroke-linecap: square"/>
     </g>
     <g id="line2d_47">
      <g>
       <use xlink:href="#m9eff2ec42f" x="686.08661" y="307.203582" style="fill: #5a5a5a; stroke: #5a5a5a; stroke-width: 0.8"/>
      </g>
     </g>
     <g id="text_26">
      <!-- 140 -->
      <g style="fill: #5a5a5a" transform="translate(679.050672 321.403582) scale(0.1 -0.1)">
       <use xlink:href="#STSongti-SC-Black-31"/>
       <use xlink:href="#STSongti-SC-Black-34" x="46.899994"/>
       <use xlink:href="#STSongti-SC-Black-30" x="93.799988"/>
      </g>
     </g>
    </g>
    <g id="xtick_18">
     <g id="line2d_48">
      <path d="M 777.939384 307.203582 
L 777.939384 178.8 
" clip-path="url(#p8d622b9391)" style="fill: none; stroke: #ffffff; stroke-width: 1.1; stroke-linecap: square"/>
     </g>
     <g id="line2d_49">
      <g>
       <use xlink:href="#m9eff2ec42f" x="777.939384" y="307.203582" style="fill: #5a5a5a; stroke: #5a5a5a; stroke-width: 0.8"/>
      </g>
     </g>
     <g id="text_27">
      <!-- 160 -->
      <g style="fill: #5a5a5a" transform="translate(770.903447 321.403582) scale(0.1 -0.1)">
       <use xlink:href="#STSongti-SC-Black-31"/>
       <use xlink:href="#STSongti-SC-Black-36" x="46.899994"/>
       <use xlink:href="#STSongti-SC-Black-30" x="93.799988"/>
      </g>
     </g>
    </g>
    <g id="text_28">
     <!-- 采样时间（秒） -->
     <g style="fill: #444444" transform="translate(415.658354 335.669832) scale(0.11 -0.11)">
      <use xlink:href="#STSongti-SC-Black-91c7"/>
      <use xlink:href="#STSongti-SC-Black-6837" x="99.999985"/>
      <use xlink:href="#STSongti-SC-Black-65f6" x="199.999969"/>
      <use xlink:href="#STSongti-SC-Black-95f4" x="299.999954"/>
      <use xlink:href="#STSongti-SC-Black-ff08" x="399.999939"/>
      <use xlink:href="#STSongti-SC-Black-79d2" x="499.999924"/>
      <use xlink:href="#STSongti-SC-Black-ff09" x="599.999908"/>
     </g>
    </g>
   </g>
   <g id="matplotlib.axis_4">
    <g id="ytick_7">
     <g id="line2d_50">
      <path d="M 43.117188 307.203582 
L 865.19952 307.203582 
" clip-path="url(#p8d622b9391)" style="fill: none; stroke: #ffffff; stroke-width: 1.1; stroke-linecap: square"/>
     </g>
     <g id="line2d_51">
      <g>
       <use xlink:href="#m0785726d6e" x="43.117188" y="307.203582" style="fill: #5a5a5a; stroke: #5a5a5a; stroke-width: 0.8"/>
      </g>
     </g>
     <g id="text_29">
      <!-- 0 -->
      <g style="fill: #5a5a5a" transform="translate(31.426562 310.803582) scale(0.1 -0.1)">
       <use xlink:href="#STSongti-SC-Black-30"/>
      </g>
     </g>
    </g>
    <g id="ytick_8">
     <g id="line2d_52">
      <path d="M 43.117188 281.522866 
L 865.19952 281.522866 
" clip-path="url(#p8d622b9391)" style="fill: none; stroke: #ffffff; stroke-width: 1.1; stroke-linecap: square"/>
     </g>
     <g id="line2d_53">
      <g>
       <use xlink:href="#m0785726d6e" x="43.117188" y="281.522866" style="fill: #5a5a5a; stroke: #5a5a5a; stroke-width: 0.8"/>
      </g>
     </g>
     <g id="text_30">
      <!-- 20 -->
      <g style="fill: #5a5a5a" transform="translate(26.735937 285.122866) scale(0.1 -0.1)">
       <use xlink:href="#STSongti-SC-Black-32"/>
       <use xlink:href="#STSongti-SC-Black-30" x="46.899994"/>
      </g>
     </g>
    </g>
    <g id="ytick_9">
     <g id="line2d_54">
      <path d="M 43.117188 255.842149 
L 865.19952 255.842149 
" clip-path="url(#p8d622b9391)" style="fill: none; stroke: #ffffff; stroke-width: 1.1; stroke-linecap: square"/>
     </g>
     <g id="line2d_55">
      <g>
       <use xlink:href="#m0785726d6e" x="43.117188" y="255.842149" style="fill: #5a5a5a; stroke: #5a5a5a; stroke-width: 0.8"/>
      </g>
     </g>
     <g id="text_31">
      <!-- 40 -->
      <g style="fill: #5a5a5a" transform="translate(26.735937 259.442149) scale(0.1 -0.1)">
       <use xlink:href="#STSongti-SC-Black-34"/>
       <use xlink:href="#STSongti-SC-Black-30" x="46.899994"/>
      </g>
     </g>
    </g>
    <g id="ytick_10">
     <g id="line2d_56">
      <path d="M 43.117188 230.161433 
L 865.19952 230.161433 
" clip-path="url(#p8d622b9391)" style="fill: none; stroke: #ffffff; stroke-width: 1.1; stroke-linecap: square"/>
     </g>
     <g id="line2d_57">
      <g>
       <use xlink:href="#m0785726d6e" x="43.117188" y="230.161433" style="fill: #5a5a5a; stroke: #5a5a5a; stroke-width: 0.8"/>
      </g>
     </g>
     <g id="text_32">
      <!-- 60 -->
      <g style="fill: #5a5a5a" transform="translate(26.735937 233.761433) scale(0.1 -0.1)">
       <use xlink:href="#STSongti-SC-Black-36"/>
       <use xlink:href="#STSongti-SC-Black-30" x="46.899994"/>
      </g>
     </g>
    </g>
    <g id="ytick_11">
     <g id="line2d_58">
      <path d="M 43.117188 204.480716 
L 865.19952 204.480716 
" clip-path="url(#p8d622b9391)" style="fill: none; stroke: #ffffff; stroke-width: 1.1; stroke-linecap: square"/>
     </g>
     <g id="line2d_59">
      <g>
       <use xlink:href="#m0785726d6e" x="43.117188" y="204.480716" style="fill: #5a5a5a; stroke: #5a5a5a; stroke-width: 0.8"/>
      </g>
     </g>
     <g id="text_33">
      <!-- 80 -->
      <g style="fill: #5a5a5a" transform="translate(26.735937 208.080716) scale(0.1 -0.1)">
       <use xlink:href="#STSongti-SC-Black-38"/>
       <use xlink:href="#STSongti-SC-Black-30" x="46.899994"/>
      </g>
     </g>
    </g>
    <g id="ytick_12">
     <g id="line2d_60">
      <path d="M 43.117188 178.8 
L 865.19952 178.8 
" clip-path="url(#p8d622b9391)" style="fill: none; stroke: #ffffff; stroke-width: 1.1; stroke-linecap: square"/>
     </g>
     <g id="line2d_61">
      <g>
       <use xlink:href="#m0785726d6e" x="43.117188" y="178.8" style="fill: #5a5a5a; stroke: #5a5a5a; stroke-width: 0.8"/>
      </g>
     </g>
     <g id="text_34">
      <!-- 100 -->
      <g style="fill: #5a5a5a" transform="translate(22.045313 182.4) scale(0.1 -0.1)">
       <use xlink:href="#STSongti-SC-Black-31"/>
       <use xlink:href="#STSongti-SC-Black-30" x="46.899994"/>
       <use xlink:href="#STSongti-SC-Black-30" x="93.799988"/>
      </g>
     </g>
    </g>
    <g id="text_35">
     <!-- 内存占用率（%） -->
     <g style="fill: #444444" transform="translate(16.44 286.028119) rotate(-90) scale(0.11 -0.11)">
      <defs>
       <path id="STSongti-SC-Black-5185" d="M 3424 2643 
Q 3149 1363 1530 685 
L 1530 -224 
Q 1530 -275 1523 -300 
Q 1517 -326 1389 -390 
Q 1261 -454 1046 -492 
Q 832 -531 790 -531 
Q 749 -531 749 -480 
L 762 -198 
Q 774 -13 774 205 
L 774 3744 
Q 774 4045 755 4198 
Q 1069 4115 1542 3904 
L 2752 3904 
Q 2765 4781 2746 5306 
Q 3098 5286 3360 5257 
Q 3622 5229 3696 5216 
Q 3770 5203 3808 5168 
Q 3846 5133 3846 5094 
Q 3846 5018 3753 4970 
Q 3661 4922 3638 4870 
Q 3616 4819 3609 4595 
Q 3603 4371 3565 3904 
L 4762 3904 
Q 4864 4115 4915 4195 
Q 4966 4275 5017 4275 
Q 5069 4275 5286 4163 
Q 5504 4051 5693 3926 
Q 5882 3802 5926 3750 
Q 5971 3699 5971 3654 
Q 5971 3539 5722 3475 
L 5722 179 
Q 5722 -51 5677 -185 
Q 5632 -320 5507 -403 
Q 5382 -486 5142 -537 
Q 4902 -589 4803 -589 
Q 4704 -589 4662 -553 
Q 4621 -518 4608 -429 
Q 4570 -166 4403 -67 
Q 4237 32 3898 96 
Q 3814 109 3814 147 
Q 3814 186 3974 186 
L 4224 186 
Q 4538 186 4672 205 
Q 4806 224 4841 272 
Q 4877 320 4877 435 
L 4877 3693 
L 3552 3693 
Q 3520 3187 3450 2746 
Q 4070 2509 4454 2182 
Q 4838 1856 4838 1517 
Q 4838 1293 4700 1158 
Q 4563 1024 4339 1024 
Q 4237 1024 4160 1072 
Q 4083 1120 4044 1200 
Q 4006 1280 4006 1357 
L 4013 1485 
Q 4013 1747 3872 2019 
Q 3731 2291 3424 2643 
z
M 1530 762 
Q 1850 998 2074 1248 
Q 2298 1498 2442 1792 
Q 2586 2086 2656 2432 
Q 2726 2778 2733 3117 
L 2752 3693 
L 1645 3693 
Q 1626 3610 1530 3590 
L 1530 762 
z
" transform="scale(0.015625)"/>
       <path id="STSongti-SC-Black-5b58" d="M 1984 4064 
L 774 4064 
Q 646 4064 544 3994 
L 378 4294 
Q 531 4275 698 4275 
L 2061 4275 
Q 2266 4826 2336 5376 
Q 2746 5299 3024 5219 
Q 3302 5139 3356 5107 
Q 3411 5075 3411 5027 
Q 3411 4979 3309 4941 
Q 3258 4922 3187 4797 
Q 3117 4672 2938 4275 
L 5114 4275 
Q 5261 4538 5353 4669 
Q 5446 4800 5498 4800 
Q 5568 4800 5754 4653 
L 6118 4358 
Q 6304 4211 6304 4137 
Q 6304 4064 6176 4064 
L 2848 4064 
Q 2566 3462 2227 3008 
Q 2349 2957 2349 2899 
Q 2349 2816 2131 2771 
L 2131 -429 
Q 2131 -512 2080 -557 
Q 2029 -602 1856 -640 
Q 1683 -678 1414 -678 
Q 1318 -678 1318 -602 
L 1331 -301 
Q 1344 13 1344 269 
L 1344 2125 
Q 1030 1888 694 1677 
Q 358 1466 307 1440 
Q 256 1414 224 1414 
Q 192 1414 192 1449 
Q 192 1485 282 1562 
Q 845 2016 1344 2797 
Q 1344 3059 1331 3270 
L 1587 3206 
Q 1824 3642 1984 4064 
z
M 4422 2496 
L 4704 3213 
L 3117 3213 
Q 2989 3213 2886 3142 
L 2720 3443 
Q 2874 3424 3040 3424 
L 4691 3424 
Q 4877 3731 4953 3731 
Q 5030 3731 5401 3443 
Q 5773 3155 5773 3024 
Q 5773 2893 5619 2912 
Q 5574 2918 5530 2918 
Q 5165 2918 4589 2464 
Q 4800 2432 4800 2349 
Q 4800 2285 4646 2234 
L 4646 1773 
L 5357 1773 
Q 5498 2003 5581 2118 
Q 5664 2234 5715 2234 
Q 5773 2234 6077 1981 
Q 6381 1728 6381 1645 
Q 6381 1562 6253 1562 
L 4646 1562 
L 4646 128 
Q 4646 -218 4537 -358 
Q 4429 -499 4144 -576 
Q 3859 -653 3696 -653 
Q 3533 -653 3533 -493 
Q 3526 -275 3376 -160 
Q 3226 -45 3002 0 
Q 2778 45 2778 67 
Q 2778 90 2867 90 
L 3232 83 
Q 3526 83 3667 115 
Q 3808 147 3849 211 
Q 3891 275 3891 397 
L 3891 1562 
L 2662 1562 
Q 2534 1562 2432 1491 
L 2266 1792 
Q 2419 1773 2586 1773 
L 3891 1773 
L 3891 1818 
Q 3891 2266 3878 2560 
Q 4186 2541 4422 2496 
z
" transform="scale(0.015625)"/>
       <path id="STSongti-SC-Black-5360" d="M 2061 2246 
L 2758 2246 
L 2758 4614 
Q 2758 4934 2746 5184 
Q 3181 5158 3430 5120 
Q 3680 5082 3753 5046 
Q 3827 5011 3827 4954 
Q 3827 4858 3622 4781 
L 3622 3802 
L 4960 3802 
Q 5107 4102 5190 4233 
Q 5274 4365 5325 4365 
Q 5402 4365 5776 4077 
Q 6150 3789 6150 3689 
Q 6150 3590 5997 3590 
L 3622 3590 
L 3622 2246 
L 4333 2246 
Q 4467 2470 4524 2540 
Q 4582 2611 4675 2611 
Q 4768 2611 5046 2441 
Q 5325 2272 5453 2185 
Q 5581 2099 5581 2009 
Q 5581 1920 5376 1850 
L 5376 269 
Q 5376 -70 5382 -166 
L 5389 -346 
Q 5389 -384 5363 -406 
Q 5338 -429 5238 -473 
Q 5139 -518 4835 -560 
Q 4531 -602 4489 -602 
Q 4448 -602 4435 -570 
Q 4422 -538 4422 -454 
L 4422 32 
L 2022 32 
L 2022 -346 
Q 2022 -397 1993 -425 
Q 1965 -454 1849 -492 
Q 1734 -531 1520 -556 
Q 1306 -582 1184 -582 
Q 1133 -582 1133 -531 
L 1146 -250 
Q 1158 -58 1158 102 
L 1158 1978 
Q 1158 2259 1139 2534 
Q 1734 2400 2061 2246 
z
M 4422 243 
L 4422 2035 
L 2125 2035 
Q 2093 1997 2022 1965 
L 2022 243 
L 4422 243 
z
" transform="scale(0.015625)"/>
      </defs>
      <use xlink:href="#STSongti-SC-Black-5185"/>
      <use xlink:href="#STSongti-SC-Black-5b58" x="99.999985"/>
      <use xlink:href="#STSongti-SC-Black-5360" x="199.999969"/>
      <use xlink:href="#STSongti-SC-Black-7528" x="299.999954"/>
      <use xlink:href="#STSongti-SC-Black-7387" x="399.999939"/>
      <use xlink:href="#STSongti-SC-Black-ff08" x="499.999924"/>
      <use xlink:href="#STSongti-SC-Black-25" x="599.999908"/>
      <use xlink:href="#STSongti-SC-Black-ff09" x="682.299896"/>
     </g>
    </g>
   </g>
   <g id="line2d_62">
    <path d="M 43.117188 241.934665 
L 47.709826 241.446863 
L 52.302465 239.616462 
L 56.895104 240.231804 
L 66.080381 239.107043 
L 70.67302 237.489092 
L 75.265659 237.840927 
L 79.858297 238.027109 
L 89.043575 239.93882 
L 93.636214 237.272816 
L 98.228852 237.340382 
L 102.821491 238.762943 
L 107.41413 238.169798 
L 112.006768 238.137249 
L 121.192046 238.591444 
L 125.784685 240.543968 
L 130.377323 238.655821 
L 134.969962 242.258128 
L 139.562601 240.248133 
L 144.15524 241.108596 
L 148.747878 241.10764 
L 153.340517 240.379366 
L 157.933156 241.258106 
L 162.525794 244.702477 
L 167.118433 245.712504 
L 171.711072 243.169383 
L 176.303711 245.603523 
L 180.896349 244.721458 
L 185.488988 243.967873 
L 190.081627 247.019307 
L 194.674266 247.685844 
L 199.266904 245.018808 
L 208.452182 245.564245 
L 213.04482 245.123161 
L 217.637459 245.986377 
L 222.230098 246.50206 
L 226.822737 244.644312 
L 231.415375 245.212458 
L 236.008014 245.567815 
L 240.600653 242.607228 
L 245.193292 242.733033 
L 249.78593 241.61414 
L 254.378569 242.60495 
L 258.971208 241.560797 
L 263.563846 241.259783 
L 268.156485 240.406909 
L 272.749124 238.411655 
L 277.341763 238.782013 
L 281.934401 236.696419 
L 286.52704 235.943597 
L 291.119679 233.228453 
L 295.712318 236.421726 
L 300.304956 233.046741 
L 304.897595 233.460449 
L 309.490234 232.687012 
L 314.082873 233.695324 
L 318.675511 231.941199 
L 323.26815 229.985505 
L 327.860789 230.424441 
L 332.453427 229.773807 
L 337.046066 229.798608 
L 341.638705 227.782986 
L 346.231344 228.858038 
L 350.823982 231.154739 
L 355.416621 229.253556 
L 364.601899 232.08376 
L 369.194537 228.967263 
L 373.787176 226.900655 
L 382.972453 230.135569 
L 387.565092 230.111933 
L 392.157731 228.006656 
L 396.75037 229.458587 
L 405.935647 230.452875 
L 410.528286 230.757669 
L 415.120925 230.297736 
L 424.306202 231.852468 
L 428.898841 233.740501 
L 433.491479 232.367446 
L 438.084118 234.154332 
L 442.676757 232.481458 
L 447.269396 235.566795 
L 451.862034 234.574102 
L 456.454673 234.700146 
L 461.047312 236.453613 
L 465.639951 233.114236 
L 470.232589 233.54431 
L 474.825228 235.838716 
L 479.417867 234.422711 
L 484.010505 234.827098 
L 488.603144 238.172528 
L 493.195783 234.68709 
L 497.788422 234.808429 
L 502.38106 234.340072 
L 506.973699 235.318512 
L 511.566338 233.964342 
L 516.158977 233.382131 
L 520.751615 231.2736 
L 525.344254 231.681983 
L 529.936893 231.452629 
L 534.529532 229.017917 
L 539.12217 230.73144 
L 543.714809 229.816835 
L 548.307448 230.721496 
L 552.900086 226.048394 
L 557.492725 225.978008 
L 562.085364 225.261211 
L 566.678003 224.780314 
L 571.270641 224.669403 
L 575.86328 223.808325 
L 580.455919 223.632781 
L 585.048558 222.890606 
L 589.641196 221.94158 
L 594.233835 219.646786 
L 598.826474 220.186718 
L 608.011751 220.521561 
L 612.60439 220.180992 
L 617.197029 230.089985 
L 621.789667 231.072558 
L 630.974945 231.678712 
L 635.567584 232.465382 
L 640.160222 231.228439 
L 644.752861 230.169896 
L 649.3455 231.720267 
L 653.938138 231.672344 
L 658.530777 231.860851 
L 663.123416 231.723058 
L 667.716055 233.979042 
L 672.308693 232.737658 
L 676.901332 233.814208 
L 681.493971 232.193717 
L 686.08661 234.517453 
L 690.679248 233.386514 
L 695.271887 232.727111 
L 699.864526 235.289024 
L 704.457164 236.055409 
L 709.049803 235.561753 
L 713.642442 236.190818 
L 718.235081 237.718675 
L 722.827719 236.390153 
L 727.420358 234.910746 
L 732.012997 237.814804 
L 736.605636 237.982139 
L 741.198274 239.136638 
L 745.790913 237.688133 
L 750.383552 239.568908 
L 754.976191 239.418621 
L 759.568829 236.610762 
L 764.161468 239.023464 
L 768.754107 236.551685 
L 773.346745 235.800819 
L 777.939384 236.961434 
L 782.532023 236.259402 
L 787.124662 234.22187 
L 791.7173 236.228354 
L 796.309939 236.156775 
L 800.902578 236.457174 
L 810.087855 231.900376 
L 814.680494 231.805717 
L 819.273133 233.280387 
L 823.865771 232.435374 
L 828.45841 231.269218 
L 833.051049 229.579546 
L 837.643688 229.382893 
L 842.236326 228.130364 
L 846.828965 227.278652 
L 851.421604 227.227502 
L 860.606881 225.241453 
L 865.19952 224.926252 
L 865.19952 224.926252 
" clip-path="url(#p8d622b9391)" style="fill: none; stroke: #3b3b3b; stroke-width: 2.2; stroke-linecap: square"/>
   </g>
   <g id="patch_7">
    <path d="M 43.117188 307.203582 
L 43.117188 178.8 
" style="fill: none; stroke: #bbbbbb; stroke-linejoin: miter; stroke-linecap: square"/>
   </g>
   <g id="patch_8">
    <path d="M 43.117188 307.203582 
L 865.19952 307.203582 
" style="fill: none; stroke: #bbbbbb; stroke-linejoin: miter; stroke-linecap: square"/>
   </g>
   <g id="text_36">
    <g id="patch_9">
     <path d="M 75.957058 279.601791 
L 75.957058 206.401791 
L 51.381433 206.401791 
L 51.381433 279.601791 
z
" style="fill: #d9d9d9; stroke: #d9d9d9; stroke-width: 0.5; stroke-linejoin: miter"/>
    </g>
    <!-- 内存占用率 -->
    <g style="fill: #3a3a3a" transform="translate(67.688308 273.001791) rotate(-90) scale(0.12 -0.12)">
     <use xlink:href="#STSongti-SC-Black-5185"/>
     <use xlink:href="#STSongti-SC-Black-5b58" x="99.999985"/>
     <use xlink:href="#STSongti-SC-Black-5360" x="199.999969"/>
     <use xlink:href="#STSongti-SC-Black-7528" x="299.999954"/>
     <use xlink:href="#STSongti-SC-Black-7387" x="399.999939"/>
    </g>
   </g>
  </g>
  <g id="axes_3">
   <g id="patch_10">
    <path d="M 43.117188 475.203582 
L 865.19952 475.203582 
L 865.19952 346.8 
L 43.117188 346.8 
z
" style="fill: #f4f4f4"/>
   </g>
   <g id="matplotlib.axis_5">
    <g id="xtick_19">
     <g id="line2d_63">
      <path d="M 43.117188 475.203582 
L 43.117188 346.8 
" clip-path="url(#p08b920805b)" style="fill: none; stroke: #ffffff; stroke-width: 1.1; stroke-linecap: square"/>
     </g>
     <g id="line2d_64">
      <g>
       <use xlink:href="#m9eff2ec42f" x="43.117188" y="475.203582" style="fill: #5a5a5a; stroke: #5a5a5a; stroke-width: 0.8"/>
      </g>
     </g>
     <g id="text_37">
      <!-- 0 -->
      <g style="fill: #5a5a5a" transform="translate(40.771875 489.403582) scale(0.1 -0.1)">
       <use xlink:href="#STSongti-SC-Black-30"/>
      </g>
     </g>
    </g>
    <g id="xtick_20">
     <g id="line2d_65">
      <path d="M 134.969962 475.203582 
L 134.969962 346.8 
" clip-path="url(#p08b920805b)" style="fill: none; stroke: #ffffff; stroke-width: 1.1; stroke-linecap: square"/>
     </g>
     <g id="line2d_66">
      <g>
       <use xlink:href="#m9eff2ec42f" x="134.969962" y="475.203582" style="fill: #5a5a5a; stroke: #5a5a5a; stroke-width: 0.8"/>
      </g>
     </g>
     <g id="text_38">
      <!-- 20 -->
      <g style="fill: #5a5a5a" transform="translate(130.279337 489.403582) scale(0.1 -0.1)">
       <use xlink:href="#STSongti-SC-Black-32"/>
       <use xlink:href="#STSongti-SC-Black-30" x="46.899994"/>
      </g>
     </g>
    </g>
    <g id="xtick_21">
     <g id="line2d_67">
      <path d="M 226.822737 475.203582 
L 226.822737 346.8 
" clip-path="url(#p08b920805b)" style="fill: none; stroke: #ffffff; stroke-width: 1.1; stroke-linecap: square"/>
     </g>
     <g id="line2d_68">
      <g>
       <use xlink:href="#m9eff2ec42f" x="226.822737" y="475.203582" style="fill: #5a5a5a; stroke: #5a5a5a; stroke-width: 0.8"/>
      </g>
     </g>
     <g id="text_39">
      <!-- 40 -->
      <g style="fill: #5a5a5a" transform="translate(222.132112 489.403582) scale(0.1 -0.1)">
       <use xlink:href="#STSongti-SC-Black-34"/>
       <use xlink:href="#STSongti-SC-Black-30" x="46.899994"/>
      </g>
     </g>
    </g>
    <g id="xtick_22">
     <g id="line2d_69">
      <path d="M 318.675511 475.203582 
L 318.675511 346.8 
" clip-path="url(#p08b920805b)" style="fill: none; stroke: #ffffff; stroke-width: 1.1; stroke-linecap: square"/>
     </g>
     <g id="line2d_70">
      <g>
       <use xlink:href="#m9eff2ec42f" x="318.675511" y="475.203582" style="fill: #5a5a5a; stroke: #5a5a5a; stroke-width: 0.8"/>
      </g>
     </g>
     <g id="text_40">
      <!-- 60 -->
      <g style="fill: #5a5a5a" transform="translate(313.984886 489.403582) scale(0.1 -0.1)">
       <use xlink:href="#STSongti-SC-Black-36"/>
       <use xlink:href="#STSongti-SC-Black-30" x="46.899994"/>
      </g>
     </g>
    </g>
    <g id="xtick_23">
     <g id="line2d_71">
      <path d="M 410.528286 475.203582 
L 410.528286 346.8 
" clip-path="url(#p08b920805b)" style="fill: none; stroke: #ffffff; stroke-width: 1.1; stroke-linecap: square"/>
     </g>
     <g id="line2d_72">
      <g>
       <use xlink:href="#m9eff2ec42f" x="410.528286" y="475.203582" style="fill: #5a5a5a; stroke: #5a5a5a; stroke-width: 0.8"/>
      </g>
     </g>
     <g id="text_41">
      <!-- 80 -->
      <g style="fill: #5a5a5a" transform="translate(405.837661 489.403582) scale(0.1 -0.1)">
       <use xlink:href="#STSongti-SC-Black-38"/>
       <use xlink:href="#STSongti-SC-Black-30" x="46.899994"/>
      </g>
     </g>
    </g>
    <g id="xtick_24">
     <g id="line2d_73">
      <path d="M 502.38106 475.203582 
L 502.38106 346.8 
" clip-path="url(#p08b920805b)" style="fill: none; stroke: #ffffff; stroke-width: 1.1; stroke-linecap: square"/>
     </g>
     <g id="line2d_74">
      <g>
       <use xlink:href="#m9eff2ec42f" x="502.38106" y="475.203582" style="fill: #5a5a5a; stroke: #5a5a5a; stroke-width: 0.8"/>
      </g>
     </g>
     <g id="text_42">
      <!-- 100 -->
      <g style="fill: #5a5a5a" transform="translate(495.345123 489.403582) scale(0.1 -0.1)">
       <use xlink:href="#STSongti-SC-Black-31"/>
       <use xlink:href="#STSongti-SC-Black-30" x="46.899994"/>
       <use xlink:href="#STSongti-SC-Black-30" x="93.799988"/>
      </g>
     </g>
    </g>
    <g id="xtick_25">
     <g id="line2d_75">
      <path d="M 594.233835 475.203582 
L 594.233835 346.8 
" clip-path="url(#p08b920805b)" style="fill: none; stroke: #ffffff; stroke-width: 1.1; stroke-linecap: square"/>
     </g>
     <g id="line2d_76">
      <g>
       <use xlink:href="#m9eff2ec42f" x="594.233835" y="475.203582" style="fill: #5a5a5a; stroke: #5a5a5a; stroke-width: 0.8"/>
      </g>
     </g>
     <g id="text_43">
      <!-- 120 -->
      <g style="fill: #5a5a5a" transform="translate(587.197897 489.403582) scale(0.1 -0.1)">
       <use xlink:href="#STSongti-SC-Black-31"/>
       <use xlink:href="#STSongti-SC-Black-32" x="46.899994"/>
       <use xlink:href="#STSongti-SC-Black-30" x="93.799988"/>
      </g>
     </g>
    </g>
    <g id="xtick_26">
     <g id="line2d_77">
      <path d="M 686.08661 475.203582 
L 686.08661 346.8 
" clip-path="url(#p08b920805b)" style="fill: none; stroke: #ffffff; stroke-width: 1.1; stroke-linecap: square"/>
     </g>
     <g id="line2d_78">
      <g>
       <use xlink:href="#m9eff2ec42f" x="686.08661" y="475.203582" style="fill: #5a5a5a; stroke: #5a5a5a; stroke-width: 0.8"/>
      </g>
     </g>
     <g id="text_44">
      <!-- 140 -->
      <g style="fill: #5a5a5a" transform="translate(679.050672 489.403582) scale(0.1 -0.1)">
       <use xlink:href="#STSongti-SC-Black-31"/>
       <use xlink:href="#STSongti-SC-Black-34" x="46.899994"/>
       <use xlink:href="#STSongti-SC-Black-30" x="93.799988"/>
      </g>
     </g>
    </g>
    <g id="xtick_27">
     <g id="line2d_79">
      <path d="M 777.939384 475.203582 
L 777.939384 346.8 
" clip-path="url(#p08b920805b)" style="fill: none; stroke: #ffffff; stroke-width: 1.1; stroke-linecap: square"/>
     </g>
     <g id="line2d_80">
      <g>
       <use xlink:href="#m9eff2ec42f" x="777.939384" y="475.203582" style="fill: #5a5a5a; stroke: #5a5a5a; stroke-width: 0.8"/>
      </g>
     </g>
     <g id="text_45">
      <!-- 160 -->
      <g style="fill: #5a5a5a" transform="translate(770.903447 489.403582) scale(0.1 -0.1)">
       <use xlink:href="#STSongti-SC-Black-31"/>
       <use xlink:href="#STSongti-SC-Black-36" x="46.899994"/>
       <use xlink:href="#STSongti-SC-Black-30" x="93.799988"/>
      </g>
     </g>
    </g>
    <g id="text_46">
     <!-- 采样时间（秒） -->
     <g style="fill: #444444" transform="translate(415.658354 503.669832) scale(0.11 -0.11)">
      <use xlink:href="#STSongti-SC-Black-91c7"/>
      <use xlink:href="#STSongti-SC-Black-6837" x="99.999985"/>
      <use xlink:href="#STSongti-SC-Black-65f6" x="199.999969"/>
      <use xlink:href="#STSongti-SC-Black-95f4" x="299.999954"/>
      <use xlink:href="#STSongti-SC-Black-ff08" x="399.999939"/>
      <use xlink:href="#STSongti-SC-Black-79d2" x="499.999924"/>
      <use xlink:href="#STSongti-SC-Black-ff09" x="599.999908"/>
     </g>
    </g>
   </g>
   <g id="matplotlib.axis_6">
    <g id="ytick_13">
     <g id="line2d_81">
      <path d="M 43.117188 463.53053 
L 865.19952 463.53053 
" clip-path="url(#p08b920805b)" style="fill: none; stroke: #ffffff; stroke-width: 1.1; stroke-linecap: square"/>
     </g>
     <g id="line2d_82">
      <g>
       <use xlink:href="#m0785726d6e" x="43.117188" y="463.53053" style="fill: #5a5a5a; stroke: #5a5a5a; stroke-width: 0.8"/>
      </g>
     </g>
     <g id="text_47">
      <!-- 40 -->
      <g style="fill: #5a5a5a" transform="translate(26.735937 467.13053) scale(0.1 -0.1)">
       <use xlink:href="#STSongti-SC-Black-34"/>
       <use xlink:href="#STSongti-SC-Black-30" x="46.899994"/>
      </g>
     </g>
    </g>
    <g id="ytick_14">
     <g id="line2d_83">
      <path d="M 43.117188 440.184424 
L 865.19952 440.184424 
" clip-path="url(#p08b920805b)" style="fill: none; stroke: #ffffff; stroke-width: 1.1; stroke-linecap: square"/>
     </g>
     <g id="line2d_84">
      <g>
       <use xlink:href="#m0785726d6e" x="43.117188" y="440.184424" style="fill: #5a5a5a; stroke: #5a5a5a; stroke-width: 0.8"/>
      </g>
     </g>
     <g id="text_48">
      <!-- 50 -->
      <g style="fill: #5a5a5a" transform="translate(26.735937 443.784424) scale(0.1 -0.1)">
       <defs>
        <path id="STSongti-SC-Black-35" d="M 2490 3763 
L 1536 3763 
Q 1286 3763 1094 3760 
Q 902 3757 877 3744 
L 819 2880 
Q 960 2950 1145 2982 
Q 1331 3014 1478 3014 
Q 1805 3014 2051 2908 
Q 2298 2803 2464 2627 
Q 2630 2451 2713 2220 
Q 2797 1990 2797 1741 
Q 2797 1414 2662 1145 
Q 2528 877 2310 685 
Q 2093 493 1817 387 
Q 1542 282 1254 282 
Q 1107 282 934 310 
Q 762 339 611 393 
Q 461 448 361 528 
Q 262 608 262 717 
Q 262 794 313 854 
Q 365 915 435 950 
Q 506 986 582 986 
Q 659 986 710 941 
Q 864 813 963 723 
Q 1062 634 1139 576 
Q 1216 518 1286 492 
Q 1357 467 1453 467 
Q 1632 467 1766 550 
Q 1901 634 1993 778 
Q 2086 922 2134 1114 
Q 2182 1306 2182 1523 
Q 2182 1728 2118 1897 
Q 2054 2067 1939 2192 
Q 1824 2317 1667 2387 
Q 1510 2458 1318 2458 
Q 1101 2458 957 2410 
Q 813 2362 723 2272 
L 614 2272 
L 736 4384 
L 1542 4384 
Q 1792 4384 1952 4384 
Q 2112 4384 2205 4400 
Q 2298 4416 2336 4451 
Q 2374 4486 2387 4557 
L 2547 4557 
L 2490 3763 
z
" transform="scale(0.015625)"/>
       </defs>
       <use xlink:href="#STSongti-SC-Black-35"/>
       <use xlink:href="#STSongti-SC-Black-30" x="46.899994"/>
      </g>
     </g>
    </g>
    <g id="ytick_15">
     <g id="line2d_85">
      <path d="M 43.117188 416.838318 
L 865.19952 416.838318 
" clip-path="url(#p08b920805b)" style="fill: none; stroke: #ffffff; stroke-width: 1.1; stroke-linecap: square"/>
     </g>
     <g id="line2d_86">
      <g>
       <use xlink:href="#m0785726d6e" x="43.117188" y="416.838318" style="fill: #5a5a5a; stroke: #5a5a5a; stroke-width: 0.8"/>
      </g>
     </g>
     <g id="text_49">
      <!-- 60 -->
      <g style="fill: #5a5a5a" transform="translate(26.735937 420.438318) scale(0.1 -0.1)">
       <use xlink:href="#STSongti-SC-Black-36"/>
       <use xlink:href="#STSongti-SC-Black-30" x="46.899994"/>
      </g>
     </g>
    </g>
    <g id="ytick_16">
     <g id="line2d_87">
      <path d="M 43.117188 393.492212 
L 865.19952 393.492212 
" clip-path="url(#p08b920805b)" style="fill: none; stroke: #ffffff; stroke-width: 1.1; stroke-linecap: square"/>
     </g>
     <g id="line2d_88">
      <g>
       <use xlink:href="#m0785726d6e" x="43.117188" y="393.492212" style="fill: #5a5a5a; stroke: #5a5a5a; stroke-width: 0.8"/>
      </g>
     </g>
     <g id="text_50">
      <!-- 70 -->
      <g style="fill: #5a5a5a" transform="translate(26.735937 397.092212) scale(0.1 -0.1)">
       <defs>
        <path id="STSongti-SC-Black-37" d="M 358 4384 
L 2822 4384 
L 2822 4275 
Q 2714 4083 2522 3596 
Q 2330 3110 2042 2310 
Q 1485 736 1427 384 
L 1043 384 
Q 1120 717 1222 1065 
Q 1325 1414 1462 1817 
Q 1600 2221 1779 2691 
Q 1958 3162 2189 3731 
L 634 3731 
Q 467 3731 461 3648 
L 410 3379 
L 269 3379 
L 358 4384 
z
" transform="scale(0.015625)"/>
       </defs>
       <use xlink:href="#STSongti-SC-Black-37"/>
       <use xlink:href="#STSongti-SC-Black-30" x="46.899994"/>
      </g>
     </g>
    </g>
    <g id="ytick_17">
     <g id="line2d_89">
      <path d="M 43.117188 370.146106 
L 865.19952 370.146106 
" clip-path="url(#p08b920805b)" style="fill: none; stroke: #ffffff; stroke-width: 1.1; stroke-linecap: square"/>
     </g>
     <g id="line2d_90">
      <g>
       <use xlink:href="#m0785726d6e" x="43.117188" y="370.146106" style="fill: #5a5a5a; stroke: #5a5a5a; stroke-width: 0.8"/>
      </g>
     </g>
     <g id="text_51">
      <!-- 80 -->
      <g style="fill: #5a5a5a" transform="translate(26.735937 373.746106) scale(0.1 -0.1)">
       <use xlink:href="#STSongti-SC-Black-38"/>
       <use xlink:href="#STSongti-SC-Black-30" x="46.899994"/>
      </g>
     </g>
    </g>
    <g id="ytick_18">
     <g id="line2d_91">
      <path d="M 43.117188 346.8 
L 865.19952 346.8 
" clip-path="url(#p08b920805b)" style="fill: none; stroke: #ffffff; stroke-width: 1.1; stroke-linecap: square"/>
     </g>
     <g id="line2d_92">
      <g>
       <use xlink:href="#m0785726d6e" x="43.117188" y="346.8" style="fill: #5a5a5a; stroke: #5a5a5a; stroke-width: 0.8"/>
      </g>
     </g>
     <g id="text_52">
      <!-- 90 -->
      <g style="fill: #5a5a5a" transform="translate(26.735937 350.4) scale(0.1 -0.1)">
       <defs>
        <path id="STSongti-SC-Black-39" d="M 1658 2022 
Q 1485 1939 1299 1939 
Q 1069 1939 864 2009 
Q 659 2080 505 2221 
Q 352 2362 265 2579 
Q 179 2797 179 3091 
Q 179 3386 281 3635 
Q 384 3885 560 4067 
Q 736 4250 969 4349 
Q 1203 4448 1466 4448 
Q 1747 4448 1984 4339 
Q 2221 4230 2390 4022 
Q 2560 3814 2656 3520 
Q 2752 3226 2752 2861 
Q 2752 2374 2582 1932 
Q 2413 1491 2118 1142 
Q 1824 794 1417 560 
Q 1011 326 544 262 
L 518 403 
Q 915 506 1187 742 
Q 1459 979 1628 1308 
Q 1798 1638 1872 2051 
Q 1946 2464 1946 2918 
Q 1946 3194 1930 3446 
Q 1914 3699 1866 3891 
Q 1818 4083 1722 4195 
Q 1626 4307 1466 4307 
Q 1318 4307 1219 4204 
Q 1120 4102 1059 3939 
Q 998 3776 972 3571 
Q 947 3366 947 3162 
Q 947 2989 982 2806 
Q 1018 2624 1088 2477 
Q 1158 2330 1260 2234 
Q 1363 2138 1498 2138 
Q 1587 2138 1638 2157 
L 1658 2022 
z
" transform="scale(0.015625)"/>
       </defs>
       <use xlink:href="#STSongti-SC-Black-39"/>
       <use xlink:href="#STSongti-SC-Black-30" x="46.899994"/>
      </g>
     </g>
    </g>
    <g id="text_53">
     <!-- CPU 温度（°C） -->
     <g style="fill: #444444" transform="translate(21.20625 454.088276) rotate(-90) scale(0.11 -0.11)">
      <defs>
       <path id="STSongti-SC-Black-6e29" d="M 3136 4774 
L 4531 4774 
Q 4698 5075 4730 5107 
Q 4762 5139 4832 5139 
Q 4947 5139 5324 4908 
Q 5702 4678 5702 4576 
Q 5702 4499 5485 4410 
L 5485 3194 
L 5498 2605 
Q 5498 2554 5478 2525 
Q 5459 2496 5356 2445 
Q 5254 2394 5088 2368 
Q 4922 2342 4704 2342 
Q 4646 2342 4630 2368 
Q 4614 2394 4614 2490 
L 4614 2547 
L 3162 2547 
L 3162 2451 
Q 3162 2246 2438 2246 
Q 2368 2246 2368 2298 
L 2381 2579 
Q 2394 2771 2394 2931 
L 2394 4454 
Q 2394 4736 2374 5011 
Q 2918 4870 3136 4774 
z
M 4614 3776 
L 4614 4563 
L 3277 4563 
Q 3251 4486 3162 4461 
L 3162 3776 
L 4614 3776 
z
M 4614 2758 
L 4614 3565 
L 3162 3565 
L 3162 2758 
L 4614 2758 
z
M 1888 4320 
Q 1888 4115 1725 3987 
Q 1562 3859 1427 3859 
Q 1293 3859 1203 3945 
Q 1114 4032 1094 4166 
Q 1043 4493 956 4665 
Q 870 4838 646 4941 
Q 595 4966 595 4988 
Q 595 5011 710 5011 
Q 1274 5011 1581 4819 
Q 1888 4627 1888 4320 
z
M 1478 -371 
Q 1344 -525 1123 -525 
Q 902 -525 790 -416 
Q 678 -307 678 -137 
Q 678 32 730 198 
Q 864 646 864 867 
Q 864 1088 752 1209 
Q 640 1331 352 1414 
Q 282 1434 282 1459 
Q 282 1485 346 1485 
L 525 1478 
Q 877 1478 1046 1670 
Q 1216 1862 1478 2592 
L 2163 4480 
Q 2195 4576 2230 4576 
Q 2266 4576 2266 4537 
Q 2266 4499 2253 4461 
L 1715 2528 
Q 1478 1683 1478 1260 
Q 1478 838 1536 480 
Q 1594 122 1594 22 
Q 1594 -77 1574 -160 
L 2042 -160 
L 2042 1498 
Q 2042 1888 2029 2163 
Q 2458 2080 2746 1958 
L 4813 1958 
Q 4896 2131 4947 2185 
Q 4998 2240 5059 2240 
Q 5120 2240 5251 2169 
Q 5382 2099 5584 1961 
Q 5786 1824 5856 1757 
Q 5926 1690 5926 1622 
Q 5926 1555 5664 1459 
L 5664 38 
Q 5722 128 5757 192 
Q 5792 256 5830 256 
Q 5869 256 5961 144 
Q 6054 32 6166 -93 
Q 6278 -218 6278 -294 
Q 6278 -371 6099 -371 
L 1478 -371 
z
M 3072 1747 
L 2880 1747 
Q 2854 1690 2790 1645 
L 2790 -160 
L 3072 -160 
L 3072 1747 
z
M 3962 1747 
L 3763 1747 
Q 3757 1702 3680 1664 
L 3680 -160 
L 3962 -160 
L 3962 1747 
z
M 4864 -160 
L 4864 1747 
L 4666 1747 
Q 4659 1702 4576 1670 
L 4576 -160 
L 4864 -160 
z
M 1395 2995 
Q 1395 2765 1244 2627 
Q 1094 2490 953 2490 
Q 813 2490 726 2576 
Q 640 2662 627 2797 
Q 589 3110 521 3254 
Q 454 3398 313 3488 
Q 173 3578 173 3600 
Q 173 3622 269 3622 
Q 819 3622 1107 3456 
Q 1395 3290 1395 2995 
z
" transform="scale(0.015625)"/>
       <path id="STSongti-SC-Black-5ea6" d="M 3264 4365 
Q 3200 4410 3165 4467 
Q 3130 4525 3130 4595 
L 3136 4749 
Q 3136 4915 3091 4995 
Q 3046 5075 2924 5145 
Q 2803 5216 2803 5229 
Q 2803 5254 3053 5254 
Q 3482 5254 3747 5113 
Q 4013 4973 4013 4755 
Q 4013 4512 3795 4365 
L 5018 4365 
Q 5094 4512 5200 4665 
Q 5306 4819 5341 4857 
Q 5376 4896 5408 4896 
Q 5466 4896 5846 4617 
Q 6227 4339 6227 4246 
Q 6227 4154 6035 4154 
L 4320 4154 
Q 5037 4083 5037 3987 
Q 5037 3936 4883 3859 
L 4883 3360 
L 5120 3360 
Q 5190 3507 5283 3644 
Q 5376 3782 5405 3814 
Q 5434 3846 5466 3846 
Q 5549 3846 5894 3571 
Q 6240 3296 6240 3206 
Q 6240 3149 6099 3149 
L 4883 3149 
L 4883 2464 
Q 4883 2330 4890 2272 
L 4896 2157 
Q 4896 2042 4474 2003 
Q 4512 2003 4889 1843 
Q 5267 1683 5334 1635 
Q 5402 1587 5402 1542 
Q 5402 1478 5302 1462 
Q 5203 1446 5142 1385 
Q 5082 1325 4790 982 
Q 4499 640 4237 422 
Q 5024 198 6214 198 
Q 6291 198 6291 166 
Q 6291 134 6195 90 
Q 5997 0 5849 -208 
Q 5702 -416 5645 -640 
Q 5619 -717 5526 -717 
Q 5434 -717 4746 -499 
Q 4058 -282 3603 0 
Q 2931 -365 2131 -489 
Q 1331 -614 909 -614 
Q 794 -614 794 -572 
Q 794 -531 947 -499 
Q 2221 -256 3149 346 
Q 2688 787 2426 1472 
L 2291 1472 
Q 2163 1472 2061 1402 
L 1894 1702 
Q 2048 1683 2214 1683 
L 4211 1683 
Q 4403 2003 4429 1997 
Q 4211 1984 4166 2009 
Q 4122 2035 4122 2150 
L 4122 2266 
L 3168 2266 
L 3168 2208 
Q 3168 2067 2976 2012 
Q 2784 1958 2643 1958 
Q 2502 1958 2464 1980 
Q 2426 2003 2426 2061 
L 2432 2272 
Q 2438 2400 2438 2842 
L 2438 3149 
L 2074 3149 
Q 1946 3149 1843 3078 
L 1715 3309 
Q 1683 1626 1459 989 
Q 1235 352 796 -169 
Q 358 -691 294 -691 
Q 282 -691 282 -665 
Q 282 -640 320 -576 
Q 659 -32 816 672 
Q 973 1376 973 2384 
Q 973 3392 947 4646 
Q 1440 4538 1837 4365 
L 3264 4365 
z
M 2419 4154 
L 1766 4154 
Q 1722 4083 1722 4006 
Q 1722 3565 1715 3373 
Q 1843 3360 1997 3360 
L 2438 3360 
L 2438 3718 
Q 2438 3923 2419 4154 
z
M 4109 4154 
L 2733 4154 
Q 3021 4122 3171 4090 
Q 3322 4058 3322 3997 
Q 3322 3936 3168 3859 
L 3168 3360 
L 4122 3360 
L 4122 3834 
Q 4122 3968 4109 4154 
z
M 4122 3149 
L 3168 3149 
L 3168 2477 
L 4122 2477 
L 4122 3149 
z
M 3584 666 
Q 4013 1043 4218 1472 
L 2586 1472 
Q 2931 979 3584 666 
z
" transform="scale(0.015625)"/>
       <path id="STSongti-SC-Black-b0" d="M 1306 5062 
Q 1600 5062 1811 4851 
Q 2022 4640 2022 4345 
Q 2022 4051 1811 3840 
Q 1600 3629 1305 3629 
Q 1011 3629 800 3840 
Q 589 4051 589 4345 
Q 589 4640 800 4851 
Q 1011 5062 1306 5062 
z
M 1306 3974 
Q 1459 3974 1568 4086 
Q 1677 4198 1677 4352 
Q 1677 4506 1568 4611 
Q 1459 4717 1305 4717 
Q 1152 4717 1043 4608 
Q 934 4499 934 4345 
Q 934 4192 1043 4083 
Q 1152 3974 1306 3974 
z
" transform="scale(0.015625)"/>
      </defs>
      <use xlink:href="#STSongti-SC-Black-43"/>
      <use xlink:href="#STSongti-SC-Black-50" x="63.599991"/>
      <use xlink:href="#STSongti-SC-Black-55" x="122.499985"/>
      <use xlink:href="#STSongti-SC-Black-20" x="194.799973"/>
      <use xlink:href="#STSongti-SC-Black-6e29" x="219.799957"/>
      <use xlink:href="#STSongti-SC-Black-5ea6" x="319.799942"/>
      <use xlink:href="#STSongti-SC-Black-ff08" x="419.799927"/>
      <use xlink:href="#STSongti-SC-Black-b0" x="519.799911"/>
      <use xlink:href="#STSongti-SC-Black-43" x="619.799896"/>
      <use xlink:href="#STSongti-SC-Black-ff09" x="683.399887"/>
     </g>
    </g>
   </g>
   <g id="line2d_93">
    <path d="M 43.117188 441.227041 
L 47.709826 436.80321 
L 52.302465 435.92014 
L 56.895104 434.211185 
L 61.487742 434.209497 
L 66.080381 428.740572 
L 70.67302 429.482703 
L 75.265659 428.329646 
L 79.858297 425.015329 
L 84.450936 425.006419 
L 89.043575 425.936463 
L 93.636214 428.260563 
L 98.228852 426.466297 
L 102.821491 427.388922 
L 107.41413 426.227863 
L 112.006768 424.590978 
L 116.599407 427.97448 
L 121.192046 430.242892 
L 125.784685 431.545421 
L 130.377323 430.79354 
L 134.969962 431.748008 
L 139.562601 434.33213 
L 144.15524 433.657037 
L 148.747878 436.247987 
L 153.340517 433.984172 
L 157.933156 434.972426 
L 162.525794 435.782136 
L 167.118433 438.760773 
L 171.711072 438.290795 
L 176.303711 439.69873 
L 180.896349 440.893068 
L 185.488988 441.466026 
L 190.081627 443.209195 
L 194.674266 443.604987 
L 199.266904 440.738746 
L 203.859543 442.311594 
L 208.452182 441.847583 
L 213.04482 440.701913 
L 217.637459 444.348745 
L 222.230098 442.516118 
L 226.822737 440.936164 
L 231.415375 440.236191 
L 236.008014 440.691933 
L 240.600653 438.200716 
L 245.193292 438.542242 
L 249.78593 439.632684 
L 254.378569 438.559358 
L 258.971208 435.26388 
L 263.563846 434.757688 
L 268.156485 436.968052 
L 272.749124 431.322755 
L 277.341763 431.471891 
L 281.934401 429.045242 
L 286.52704 430.234189 
L 291.119679 429.004273 
L 295.712318 428.827378 
L 300.304956 422.719766 
L 304.897595 425.299834 
L 309.490234 421.519955 
L 314.082873 423.420265 
L 318.675511 421.085639 
L 323.26815 422.272601 
L 327.860789 419.21947 
L 332.453427 416.348257 
L 337.046066 418.658394 
L 341.638705 414.638013 
L 346.231344 415.1259 
L 350.823982 416.622327 
L 355.416621 415.498423 
L 360.00926 415.191883 
L 364.601899 414.494917 
L 373.787176 416.399501 
L 378.379815 416.500927 
L 382.972453 418.323035 
L 387.565092 419.570009 
L 392.157731 418.856342 
L 396.75037 418.733411 
L 401.343008 423.059569 
L 405.935647 422.041833 
L 410.528286 424.197059 
L 415.120925 425.85277 
L 419.713563 424.372662 
L 424.306202 426.947644 
L 428.898841 424.705101 
L 433.491479 428.439323 
L 438.084118 427.34373 
L 442.676757 428.499566 
L 447.269396 429.262735 
L 451.862034 427.509459 
L 456.454673 428.461262 
L 461.047312 427.458193 
L 465.639951 428.074769 
L 470.232589 429.584185 
L 474.825228 428.244341 
L 479.417867 428.065129 
L 484.010505 426.872295 
L 488.603144 429.398868 
L 493.195783 427.992259 
L 497.788422 430.475307 
L 502.38106 427.497822 
L 506.973699 430.130976 
L 511.566338 431.47605 
L 516.158977 429.302607 
L 520.751615 428.231305 
L 525.344254 432.205735 
L 529.936893 431.940809 
L 534.529532 432.264782 
L 539.12217 433.482533 
L 543.714809 432.201358 
L 548.307448 435.102123 
L 552.900086 435.701468 
L 557.492725 434.738842 
L 562.085364 437.322991 
L 566.678003 436.433606 
L 571.270641 439.019746 
L 575.86328 439.938838 
L 580.455919 441.303755 
L 585.048558 436.653316 
L 589.641196 439.757661 
L 594.233835 438.745904 
L 598.826474 439.007351 
L 603.419112 437.913874 
L 608.011751 437.505108 
L 612.60439 433.718924 
L 617.197029 436.920028 
L 621.789667 436.314416 
L 626.382306 434.212781 
L 630.974945 433.425024 
L 635.567584 429.022483 
L 640.160222 427.264146 
L 644.752861 428.511561 
L 649.3455 428.225955 
L 653.938138 425.758331 
L 658.530777 422.944728 
L 663.123416 428.111129 
L 667.716055 423.373717 
L 672.308693 425.48213 
L 676.901332 422.803255 
L 681.493971 426.064556 
L 686.08661 425.200537 
L 690.679248 427.229662 
L 695.271887 427.015614 
L 699.864526 423.912269 
L 704.457164 424.980567 
L 709.049803 427.040964 
L 713.642442 427.876501 
L 718.235081 429.743725 
L 722.827719 427.797229 
L 727.420358 427.546169 
L 736.605636 428.139778 
L 741.198274 429.799545 
L 745.790913 428.585037 
L 750.383552 428.958903 
L 754.976191 427.728961 
L 759.568829 427.309932 
L 764.161468 430.323742 
L 768.754107 431.824401 
L 773.346745 431.300481 
L 777.939384 432.644955 
L 782.532023 433.504445 
L 787.124662 432.91382 
L 791.7173 434.598498 
L 796.309939 432.617715 
L 800.902578 434.294031 
L 805.495217 434.007512 
L 810.087855 434.840948 
L 814.680494 435.889139 
L 819.273133 436.663989 
L 823.865771 435.738336 
L 828.45841 436.02181 
L 833.051049 434.877849 
L 837.643688 434.871039 
L 842.236326 436.712937 
L 846.828965 436.573679 
L 851.421604 440.438935 
L 856.014243 441.235669 
L 860.606881 442.772811 
L 865.19952 447.172518 
L 865.19952 447.172518 
" clip-path="url(#p08b920805b)" style="fill: none; stroke: #454545; stroke-width: 1.8; stroke-linecap: square"/>
   </g>
   <g id="patch_11">
    <path d="M 43.117188 475.203582 
L 43.117188 346.8 
" style="fill: none; stroke: #bbbbbb; stroke-linejoin: miter; stroke-linecap: square"/>
   </g>
   <g id="patch_12">
    <path d="M 43.117188 475.203582 
L 865.19952 475.203582 
" style="fill: none; stroke: #bbbbbb; stroke-linejoin: miter; stroke-linecap: square"/>
   </g>
   <g id="text_54">
    <g id="patch_13">
     <path d="M 75.867058 442.789604 
L 75.867058 379.213979 
L 51.471433 379.213979 
L 51.471433 442.789604 
z
" style="fill: #d9d9d9; stroke: #d9d9d9; stroke-width: 0.5; stroke-linejoin: miter"/>
    </g>
    <!-- CPU 温度 -->
    <g style="fill: #3a3a3a" transform="translate(67.598308 436.189604) rotate(-90) scale(0.12 -0.12)">
     <use xlink:href="#STSongti-SC-Black-43"/>
     <use xlink:href="#STSongti-SC-Black-50" x="63.599991"/>
     <use xlink:href="#STSongti-SC-Black-55" x="122.499985"/>
     <use xlink:href="#STSongti-SC-Black-20" x="194.799973"/>
     <use xlink:href="#STSongti-SC-Black-6e29" x="219.799957"/>
     <use xlink:href="#STSongti-SC-Black-5ea6" x="319.799942"/>
    </g>
   </g>
  </g>
 </g>
 <defs>
  <clipPath id="p1374ece1ec">
   <rect x="43.117188" y="10.8" width="822.082332" height="128.403583"/>
  </clipPath>
  <clipPath id="p8d622b9391">
   <rect x="43.117188" y="178.8" width="822.082332" height="128.403582"/>
  </clipPath>
  <clipPath id="p08b920805b">
   <rect x="43.117188" y="346.8" width="822.082332" height="128.403583"/>
  </clipPath>
 </defs>
</svg>
