<?xml version="1.0" standalone="no"?><!DOCTYPE svg PUBLIC "-//W3C//DTD SVG 1.1//EN" "http://www.w3.org/Graphics/SVG/1.1/DTD/svg11.dtd"><svg t="1745832764236" class="icon" viewBox="0 0 1024 1024" version="1.1" xmlns="http://www.w3.org/2000/svg" p-id="3988" xmlns:xlink="http://www.w3.org/1999/xlink" width="200" height="200"><path d="M653.88544 0a92.16 92.16 0 0 1 65.09568 26.9312l187.61728 187.21792a92.16 92.16 0 0 1 27.05408 65.2288v120.6272A80.10752 80.10752 0 0 1 1013.76 480.09216v319.7952a80.10752 80.10752 0 0 1-77.55776 80.06656l-2.54976 0.03072v48.00512c0 53.02272-43.02848 96-96.12288 96H196.7104c-53.0944 0-96.12288-42.97728-96.12288-96v-48.00512A80.10752 80.10752 0 0 1 20.48 799.8976v-319.7952a80.10752 80.10752 0 0 1 77.55776-80.06656l2.54976-0.04096V96C100.58752 42.97728 143.616 0 196.7104 0h457.17504zM837.5296 879.99488H196.7104v17.28512a30.72 30.72 0 0 0 30.72 30.72h579.3792a30.72 30.72 0 0 0 30.72-30.72v-17.28512zM504.832 555.78624c-15.89248 0-30.03392 3.11296-42.41408 9.33888-12.36992 6.22592-23.1424 15.63648-32.28672 28.23168-5.69344 7.80288-10.10688 16.9984-13.2096 27.56608a116.13184 116.13184 0 0 0-4.66944 32.96256c0 21.74976 6.2464 38.7584 18.72896 51.01568 12.4928 12.26752 29.87008 18.40128 52.14208 18.40128 14.91968 0 28.55936-3.06176 40.88832-9.17504 12.3392-6.11328 22.86592-14.98112 31.55968-26.60352 6.144-8.32512 10.98752-18.05312 14.51008-29.19424 3.5328-11.14112 5.29408-22.44608 5.29408-33.91488 0-21.52448-6.22592-38.3488-18.67776-50.46272-12.45184-12.11392-29.73696-18.16576-51.8656-18.16576z m193.28-0.22528c-18.83136 0-34.80576 2.3552-47.9232 7.08608a88.22784 88.22784 0 0 0-34.31424 22.38464 79.59552 79.59552 0 0 0-17.7152 27.72992 94.8224 94.8224 0 0 0-6.02112 34.03776c0 24.00256 7.1168 42.63936 21.37088 55.9104 14.25408 13.27104 34.304 19.9168 60.19072 19.9168 10.72128 0 20.5824-0.65536 29.5936-1.97632a150.016 150.016 0 0 0 25.41568-5.89824l18.90304-88.43264h-66.60096L674.816 655.36h26.3168l-7.19872 33.41312a89.8048 89.8048 0 0 1-9.00096 1.85344c-2.7648 0.4096-5.46816 0.6144-8.0896 0.6144-12.9024 0-23.04-3.8912-30.38208-11.69408-7.35232-7.80288-11.02848-18.56512-11.02848-32.28672 0-18.83136 6.00064-33.6384 18.00192-44.4416 12.00128-10.79296 28.5696-16.19968 49.72544-16.19968 6.97344 0 13.6704 0.80896 20.08064 2.41664a80.86528 80.86528 0 0 1 18.62656 7.26016l9.216-32.84992a146.4832 146.4832 0 0 0-25.31328-5.95968 192.45056 192.45056 0 0 0-27.66848-1.91488z m-344.3712 3.93216h-43.07968L276.57216 719.36h108.9024l6.9632-31.8464h-66.14016l27.4432-128.02048z m148.2752 25.98912c9.30816 0 16.50688 3.19488 21.6064 9.56416 5.09952 6.37952 7.64928 15.4112 7.64928 27.11552 0 8.17152-1.15712 16.57856-3.4816 25.1904-2.33472 8.63232-5.36576 15.91296-9.1136 21.83168-5.09952 7.7312-10.42432 13.44512-15.9744 17.16224a31.92832 31.92832 0 0 1-18.1248 5.56032c-8.99072 0-16.0768-3.23584-21.25824-9.728-5.1712-6.48192-7.76192-15.36-7.76192-26.60352 0-8.25344 1.16736-16.71168 3.4816-25.37472 2.33472-8.66304 5.376-16.0256 9.1136-22.09792 4.58752-7.43424 9.73824-13.056 15.47264-16.87552a32.5632 32.5632 0 0 1 18.40128-5.7344zM608.34816 88.32H227.4304a30.72 30.72 0 0 0-30.72 30.72v280.95488h640.8192v-81.5616H700.52864c-50.8928-0.01024-92.14976-41.2672-92.16-92.16l-0.03072-137.95328z m96.12288 59.84256v58.91072a15.36 15.36 0 0 0 15.36 15.36h59.0848l-74.4448-74.27072z" fill="#2c2c2c" p-id="3989"></path></svg>