<?xml version="1.0" encoding="utf-8" standalone="no"?>
<!DOCTYPE svg PUBLIC "-//W3C//DTD SVG 1.1//EN"
  "http://www.w3.org/Graphics/SVG/1.1/DTD/svg11.dtd">
<svg xmlns:xlink="http://www.w3.org/1999/xlink" width="872.39952pt" height="656.39952pt" viewBox="0 0 872.39952 656.39952" xmlns="http://www.w3.org/2000/svg" version="1.1">
 <metadata>
  <rdf:RDF xmlns:dc="http://purl.org/dc/elements/1.1/" xmlns:cc="http://creativecommons.org/ns#" xmlns:rdf="http://www.w3.org/1999/02/22-rdf-syntax-ns#">
   <cc:Work>
    <dc:type rdf:resource="http://purl.org/dc/dcmitype/StillImage"/>
    <dc:date>2026-04-13T01:06:05.379468</dc:date>
    <dc:format>image/svg+xml</dc:format>
    <dc:creator>
     <cc:Agent>
      <dc:title>Matplotlib v3.9.4, https://matplotlib.org/</dc:title>
     </cc:Agent>
    </dc:creator>
   </cc:Work>
  </rdf:RDF>
 </metadata>
 <defs>
  <style type="text/css">*{stroke-linejoin: round; stroke-linecap: butt}</style>
 </defs>
 <g id="figure_1">
  <g id="patch_1">
   <path d="M 0 656.39952 
L 872.39952 656.39952 
L 872.39952 0 
L 0 0 
z
" style="fill: #ffffff"/>
  </g>
  <g id="axes_1">
   <g id="patch_2">
    <path d="M 35.304688 158.659676 
L 865.19952 158.659676 
L 865.19952 10.999219 
L 35.304688 10.999219 
z
" style="fill: #f4f4f4"/>
   </g>
   <g id="matplotlib.axis_1">
    <g id="xtick_1">
     <g id="line2d_1">
      <path d="M 52.780627 158.659676 
L 52.780627 10.999219 
" clip-path="url(#p7394a4bdef)" style="fill: none; stroke: #ffffff; stroke-width: 1.1; stroke-linecap: square"/>
     </g>
     <g id="line2d_2">
      <defs>
       <path id="m6318d3a7db" d="M 0 0 
L 0 3.5 
" style="stroke: #5a5a5a; stroke-width: 0.8"/>
      </defs>
      <g>
       <use xlink:href="#m6318d3a7db" x="52.780627" y="158.659676" style="fill: #5a5a5a; stroke: #5a5a5a; stroke-width: 0.8"/>
      </g>
     </g>
    </g>
    <g id="xtick_2">
     <g id="line2d_3">
      <path d="M 175.947922 158.659676 
L 175.947922 10.999219 
" clip-path="url(#p7394a4bdef)" style="fill: none; stroke: #ffffff; stroke-width: 1.1; stroke-linecap: square"/>
     </g>
     <g id="line2d_4">
      <g>
       <use xlink:href="#m6318d3a7db" x="175.947922" y="158.659676" style="fill: #5a5a5a; stroke: #5a5a5a; stroke-width: 0.8"/>
      </g>
     </g>
    </g>
    <g id="xtick_3">
     <g id="line2d_5">
      <path d="M 298.946726 158.659676 
L 298.946726 10.999219 
" clip-path="url(#p7394a4bdef)" style="fill: none; stroke: #ffffff; stroke-width: 1.1; stroke-linecap: square"/>
     </g>
     <g id="line2d_6">
      <g>
       <use xlink:href="#m6318d3a7db" x="298.946726" y="158.659676" style="fill: #5a5a5a; stroke: #5a5a5a; stroke-width: 0.8"/>
      </g>
     </g>
    </g>
    <g id="xtick_4">
     <g id="line2d_7">
      <path d="M 422.114021 158.659676 
L 422.114021 10.999219 
" clip-path="url(#p7394a4bdef)" style="fill: none; stroke: #ffffff; stroke-width: 1.1; stroke-linecap: square"/>
     </g>
     <g id="line2d_8">
      <g>
       <use xlink:href="#m6318d3a7db" x="422.114021" y="158.659676" style="fill: #5a5a5a; stroke: #5a5a5a; stroke-width: 0.8"/>
      </g>
     </g>
    </g>
    <g id="xtick_5">
     <g id="line2d_9">
      <path d="M 545.112825 158.659676 
L 545.112825 10.999219 
" clip-path="url(#p7394a4bdef)" style="fill: none; stroke: #ffffff; stroke-width: 1.1; stroke-linecap: square"/>
     </g>
     <g id="line2d_10">
      <g>
       <use xlink:href="#m6318d3a7db" x="545.112825" y="158.659676" style="fill: #5a5a5a; stroke: #5a5a5a; stroke-width: 0.8"/>
      </g>
     </g>
    </g>
    <g id="xtick_6">
     <g id="line2d_11">
      <path d="M 668.28012 158.659676 
L 668.28012 10.999219 
" clip-path="url(#p7394a4bdef)" style="fill: none; stroke: #ffffff; stroke-width: 1.1; stroke-linecap: square"/>
     </g>
     <g id="line2d_12">
      <g>
       <use xlink:href="#m6318d3a7db" x="668.28012" y="158.659676" style="fill: #5a5a5a; stroke: #5a5a5a; stroke-width: 0.8"/>
      </g>
     </g>
    </g>
    <g id="xtick_7">
     <g id="line2d_13">
      <path d="M 791.278924 158.659676 
L 791.278924 10.999219 
" clip-path="url(#p7394a4bdef)" style="fill: none; stroke: #ffffff; stroke-width: 1.1; stroke-linecap: square"/>
     </g>
     <g id="line2d_14">
      <g>
       <use xlink:href="#m6318d3a7db" x="791.278924" y="158.659676" style="fill: #5a5a5a; stroke: #5a5a5a; stroke-width: 0.8"/>
      </g>
     </g>
    </g>
   </g>
   <g id="matplotlib.axis_2">
    <g id="ytick_1">
     <g id="line2d_15">
      <path d="M 35.304688 158.659676 
L 865.19952 158.659676 
" clip-path="url(#p7394a4bdef)" style="fill: none; stroke: #ffffff; stroke-width: 1.1; stroke-linecap: square"/>
     </g>
     <g id="line2d_16">
      <defs>
       <path id="me2a73ff8ee" d="M 0 0 
L -3.5 0 
" style="stroke: #5a5a5a; stroke-width: 0.8"/>
      </defs>
      <g>
       <use xlink:href="#me2a73ff8ee" x="35.304688" y="158.659676" style="fill: #5a5a5a; stroke: #5a5a5a; stroke-width: 0.8"/>
      </g>
     </g>
     <g id="text_1">
      <!-- 60 -->
      <g style="fill: #5a5a5a" transform="translate(15.579687 162.458895) scale(0.1 -0.1)">
       <defs>
        <path id="DejaVuSans-36" d="M 2113 2584 
Q 1688 2584 1439 2293 
Q 1191 2003 1191 1497 
Q 1191 994 1439 701 
Q 1688 409 2113 409 
Q 2538 409 2786 701 
Q 3034 994 3034 1497 
Q 3034 2003 2786 2293 
Q 2538 2584 2113 2584 
z
M 3366 4563 
L 3366 3988 
Q 3128 4100 2886 4159 
Q 2644 4219 2406 4219 
Q 1781 4219 1451 3797 
Q 1122 3375 1075 2522 
Q 1259 2794 1537 2939 
Q 1816 3084 2150 3084 
Q 2853 3084 3261 2657 
Q 3669 2231 3669 1497 
Q 3669 778 3244 343 
Q 2819 -91 2113 -91 
Q 1303 -91 875 529 
Q 447 1150 447 2328 
Q 447 3434 972 4092 
Q 1497 4750 2381 4750 
Q 2619 4750 2861 4703 
Q 3103 4656 3366 4563 
z
" transform="scale(0.015625)"/>
        <path id="DejaVuSans-30" d="M 2034 4250 
Q 1547 4250 1301 3770 
Q 1056 3291 1056 2328 
Q 1056 1369 1301 889 
Q 1547 409 2034 409 
Q 2525 409 2770 889 
Q 3016 1369 3016 2328 
Q 3016 3291 2770 3770 
Q 2525 4250 2034 4250 
z
M 2034 4750 
Q 2819 4750 3233 4129 
Q 3647 3509 3647 2328 
Q 3647 1150 3233 529 
Q 2819 -91 2034 -91 
Q 1250 -91 836 529 
Q 422 1150 422 2328 
Q 422 3509 836 4129 
Q 1250 4750 2034 4750 
z
" transform="scale(0.015625)"/>
       </defs>
       <use xlink:href="#DejaVuSans-36"/>
       <use xlink:href="#DejaVuSans-30" x="63.623047"/>
      </g>
     </g>
    </g>
    <g id="ytick_2">
     <g id="line2d_17">
      <path d="M 35.304688 137.565325 
L 865.19952 137.565325 
" clip-path="url(#p7394a4bdef)" style="fill: none; stroke: #ffffff; stroke-width: 1.1; stroke-linecap: square"/>
     </g>
     <g id="line2d_18">
      <g>
       <use xlink:href="#me2a73ff8ee" x="35.304688" y="137.565325" style="fill: #5a5a5a; stroke: #5a5a5a; stroke-width: 0.8"/>
      </g>
     </g>
     <g id="text_2">
      <!-- 70 -->
      <g style="fill: #5a5a5a" transform="translate(15.579687 141.364544) scale(0.1 -0.1)">
       <defs>
        <path id="DejaVuSans-37" d="M 525 4666 
L 3525 4666 
L 3525 4397 
L 1831 0 
L 1172 0 
L 2766 4134 
L 525 4134 
L 525 4666 
z
" transform="scale(0.015625)"/>
       </defs>
       <use xlink:href="#DejaVuSans-37"/>
       <use xlink:href="#DejaVuSans-30" x="63.623047"/>
      </g>
     </g>
    </g>
    <g id="ytick_3">
     <g id="line2d_19">
      <path d="M 35.304688 116.470974 
L 865.19952 116.470974 
" clip-path="url(#p7394a4bdef)" style="fill: none; stroke: #ffffff; stroke-width: 1.1; stroke-linecap: square"/>
     </g>
     <g id="line2d_20">
      <g>
       <use xlink:href="#me2a73ff8ee" x="35.304688" y="116.470974" style="fill: #5a5a5a; stroke: #5a5a5a; stroke-width: 0.8"/>
      </g>
     </g>
     <g id="text_3">
      <!-- 80 -->
      <g style="fill: #5a5a5a" transform="translate(15.579687 120.270193) scale(0.1 -0.1)">
       <defs>
        <path id="DejaVuSans-38" d="M 2034 2216 
Q 1584 2216 1326 1975 
Q 1069 1734 1069 1313 
Q 1069 891 1326 650 
Q 1584 409 2034 409 
Q 2484 409 2743 651 
Q 3003 894 3003 1313 
Q 3003 1734 2745 1975 
Q 2488 2216 2034 2216 
z
M 1403 2484 
Q 997 2584 770 2862 
Q 544 3141 544 3541 
Q 544 4100 942 4425 
Q 1341 4750 2034 4750 
Q 2731 4750 3128 4425 
Q 3525 4100 3525 3541 
Q 3525 3141 3298 2862 
Q 3072 2584 2669 2484 
Q 3125 2378 3379 2068 
Q 3634 1759 3634 1313 
Q 3634 634 3220 271 
Q 2806 -91 2034 -91 
Q 1263 -91 848 271 
Q 434 634 434 1313 
Q 434 1759 690 2068 
Q 947 2378 1403 2484 
z
M 1172 3481 
Q 1172 3119 1398 2916 
Q 1625 2713 2034 2713 
Q 2441 2713 2670 2916 
Q 2900 3119 2900 3481 
Q 2900 3844 2670 4047 
Q 2441 4250 2034 4250 
Q 1625 4250 1398 4047 
Q 1172 3844 1172 3481 
z
" transform="scale(0.015625)"/>
       </defs>
       <use xlink:href="#DejaVuSans-38"/>
       <use xlink:href="#DejaVuSans-30" x="63.623047"/>
      </g>
     </g>
    </g>
    <g id="ytick_4">
     <g id="line2d_21">
      <path d="M 35.304688 95.376623 
L 865.19952 95.376623 
" clip-path="url(#p7394a4bdef)" style="fill: none; stroke: #ffffff; stroke-width: 1.1; stroke-linecap: square"/>
     </g>
     <g id="line2d_22">
      <g>
       <use xlink:href="#me2a73ff8ee" x="35.304688" y="95.376623" style="fill: #5a5a5a; stroke: #5a5a5a; stroke-width: 0.8"/>
      </g>
     </g>
     <g id="text_4">
      <!-- 90 -->
      <g style="fill: #5a5a5a" transform="translate(15.579687 99.175842) scale(0.1 -0.1)">
       <defs>
        <path id="DejaVuSans-39" d="M 703 97 
L 703 672 
Q 941 559 1184 500 
Q 1428 441 1663 441 
Q 2288 441 2617 861 
Q 2947 1281 2994 2138 
Q 2813 1869 2534 1725 
Q 2256 1581 1919 1581 
Q 1219 1581 811 2004 
Q 403 2428 403 3163 
Q 403 3881 828 4315 
Q 1253 4750 1959 4750 
Q 2769 4750 3195 4129 
Q 3622 3509 3622 2328 
Q 3622 1225 3098 567 
Q 2575 -91 1691 -91 
Q 1453 -91 1209 -44 
Q 966 3 703 97 
z
M 1959 2075 
Q 2384 2075 2632 2365 
Q 2881 2656 2881 3163 
Q 2881 3666 2632 3958 
Q 2384 4250 1959 4250 
Q 1534 4250 1286 3958 
Q 1038 3666 1038 3163 
Q 1038 2656 1286 2365 
Q 1534 2075 1959 2075 
z
" transform="scale(0.015625)"/>
       </defs>
       <use xlink:href="#DejaVuSans-39"/>
       <use xlink:href="#DejaVuSans-30" x="63.623047"/>
      </g>
     </g>
    </g>
    <g id="ytick_5">
     <g id="line2d_23">
      <path d="M 35.304688 74.282272 
L 865.19952 74.282272 
" clip-path="url(#p7394a4bdef)" style="fill: none; stroke: #ffffff; stroke-width: 1.1; stroke-linecap: square"/>
     </g>
     <g id="line2d_24">
      <g>
       <use xlink:href="#me2a73ff8ee" x="35.304688" y="74.282272" style="fill: #5a5a5a; stroke: #5a5a5a; stroke-width: 0.8"/>
      </g>
     </g>
     <g id="text_5">
      <!-- 100 -->
      <g style="fill: #5a5a5a" transform="translate(9.217187 78.081491) scale(0.1 -0.1)">
       <defs>
        <path id="DejaVuSans-31" d="M 794 531 
L 1825 531 
L 1825 4091 
L 703 3866 
L 703 4441 
L 1819 4666 
L 2450 4666 
L 2450 531 
L 3481 531 
L 3481 0 
L 794 0 
L 794 531 
z
" transform="scale(0.015625)"/>
       </defs>
       <use xlink:href="#DejaVuSans-31"/>
       <use xlink:href="#DejaVuSans-30" x="63.623047"/>
       <use xlink:href="#DejaVuSans-30" x="127.246094"/>
      </g>
     </g>
    </g>
    <g id="ytick_6">
     <g id="line2d_25">
      <path d="M 35.304688 53.187921 
L 865.19952 53.187921 
" clip-path="url(#p7394a4bdef)" style="fill: none; stroke: #ffffff; stroke-width: 1.1; stroke-linecap: square"/>
     </g>
     <g id="line2d_26">
      <g>
       <use xlink:href="#me2a73ff8ee" x="35.304688" y="53.187921" style="fill: #5a5a5a; stroke: #5a5a5a; stroke-width: 0.8"/>
      </g>
     </g>
     <g id="text_6">
      <!-- 110 -->
      <g style="fill: #5a5a5a" transform="translate(9.217187 56.98714) scale(0.1 -0.1)">
       <use xlink:href="#DejaVuSans-31"/>
       <use xlink:href="#DejaVuSans-31" x="63.623047"/>
       <use xlink:href="#DejaVuSans-30" x="127.246094"/>
      </g>
     </g>
    </g>
    <g id="ytick_7">
     <g id="line2d_27">
      <path d="M 35.304688 32.09357 
L 865.19952 32.09357 
" clip-path="url(#p7394a4bdef)" style="fill: none; stroke: #ffffff; stroke-width: 1.1; stroke-linecap: square"/>
     </g>
     <g id="line2d_28">
      <g>
       <use xlink:href="#me2a73ff8ee" x="35.304688" y="32.09357" style="fill: #5a5a5a; stroke: #5a5a5a; stroke-width: 0.8"/>
      </g>
     </g>
     <g id="text_7">
      <!-- 120 -->
      <g style="fill: #5a5a5a" transform="translate(9.217187 35.892789) scale(0.1 -0.1)">
       <defs>
        <path id="DejaVuSans-32" d="M 1228 531 
L 3431 531 
L 3431 0 
L 469 0 
L 469 531 
Q 828 903 1448 1529 
Q 2069 2156 2228 2338 
Q 2531 2678 2651 2914 
Q 2772 3150 2772 3378 
Q 2772 3750 2511 3984 
Q 2250 4219 1831 4219 
Q 1534 4219 1204 4116 
Q 875 4013 500 3803 
L 500 4441 
Q 881 4594 1212 4672 
Q 1544 4750 1819 4750 
Q 2544 4750 2975 4387 
Q 3406 4025 3406 3419 
Q 3406 3131 3298 2873 
Q 3191 2616 2906 2266 
Q 2828 2175 2409 1742 
Q 1991 1309 1228 531 
z
" transform="scale(0.015625)"/>
       </defs>
       <use xlink:href="#DejaVuSans-31"/>
       <use xlink:href="#DejaVuSans-32" x="63.623047"/>
       <use xlink:href="#DejaVuSans-30" x="127.246094"/>
      </g>
     </g>
    </g>
    <g id="ytick_8">
     <g id="line2d_29">
      <path d="M 35.304688 10.999219 
L 865.19952 10.999219 
" clip-path="url(#p7394a4bdef)" style="fill: none; stroke: #ffffff; stroke-width: 1.1; stroke-linecap: square"/>
     </g>
     <g id="line2d_30">
      <g>
       <use xlink:href="#me2a73ff8ee" x="35.304688" y="10.999219" style="fill: #5a5a5a; stroke: #5a5a5a; stroke-width: 0.8"/>
      </g>
     </g>
     <g id="text_8">
      <!-- 130 -->
      <g style="fill: #5a5a5a" transform="translate(9.217187 14.798437) scale(0.1 -0.1)">
       <defs>
        <path id="DejaVuSans-33" d="M 2597 2516 
Q 3050 2419 3304 2112 
Q 3559 1806 3559 1356 
Q 3559 666 3084 287 
Q 2609 -91 1734 -91 
Q 1441 -91 1130 -33 
Q 819 25 488 141 
L 488 750 
Q 750 597 1062 519 
Q 1375 441 1716 441 
Q 2309 441 2620 675 
Q 2931 909 2931 1356 
Q 2931 1769 2642 2001 
Q 2353 2234 1838 2234 
L 1294 2234 
L 1294 2753 
L 1863 2753 
Q 2328 2753 2575 2939 
Q 2822 3125 2822 3475 
Q 2822 3834 2567 4026 
Q 2313 4219 1838 4219 
Q 1578 4219 1281 4162 
Q 984 4106 628 3988 
L 628 4550 
Q 988 4650 1302 4700 
Q 1616 4750 1894 4750 
Q 2613 4750 3031 4423 
Q 3450 4097 3450 3541 
Q 3450 3153 3228 2886 
Q 3006 2619 2597 2516 
z
" transform="scale(0.015625)"/>
       </defs>
       <use xlink:href="#DejaVuSans-31"/>
       <use xlink:href="#DejaVuSans-33" x="63.623047"/>
       <use xlink:href="#DejaVuSans-30" x="127.246094"/>
      </g>
     </g>
    </g>
   </g>
   <g id="line2d_31">
    <path d="M 52.780627 132.366212 
L 58.003864 93.80317 
L 62.890118 126.961503 
L 68.113355 121.560052 
L 73.1681 108.472489 
L 78.391337 131.887966 
L 83.446082 107.3309 
L 88.669319 86.904099 
L 93.892556 123.384581 
L 98.947301 116.60045 
L 104.170538 122.757865 
L 109.225284 123.971059 
L 114.44852 102.987886 
L 119.671757 88.912046 
L 124.38952 117.896166 
L 129.612757 108.773366 
L 134.667502 102.531245 
L 139.890739 122.214294 
L 150.168721 86.820451 
L 155.391958 141.627265 
L 160.446703 109.84815 
L 165.66994 101.70108 
L 170.724685 120.338561 
L 175.947922 89.768609 
L 181.171159 84.833949 
L 185.888922 123.592542 
L 191.112158 111.946368 
L 196.166904 99.624068 
L 201.390141 122.037378 
L 206.444886 126.879801 
L 211.668123 99.97562 
L 216.89136 120.639938 
L 221.946105 113.952837 
L 227.169342 97.847461 
L 232.224087 125.828237 
L 237.447324 102.753088 
L 242.670561 83.662755 
L 247.388323 118.910952 
L 252.61156 109.483416 
L 257.666306 116.505288 
L 262.889542 115.528474 
L 267.944288 95.245439 
L 273.167525 72.616117 
L 278.390762 98.409561 
L 283.445507 97.098028 
L 288.668744 76.461946 
L 293.723489 82.257949 
L 298.946726 76.558668 
L 304.169963 50.252816 
L 309.056217 104.053424 
L 314.279454 79.05769 
L 319.334199 61.527834 
L 324.557436 79.949096 
L 329.612181 58.230852 
L 334.835418 36.779343 
L 340.058655 68.438719 
L 345.1134 58.0261 
L 350.336637 55.869099 
L 355.391383 72.163819 
L 360.614619 70.844358 
L 365.837856 36.916632 
L 370.555619 69.301511 
L 375.778855 68.319141 
L 380.833601 57.308886 
L 386.056838 80.750157 
L 391.111583 58.623608 
L 396.33482 43.580151 
L 401.558057 84.354514 
L 406.612802 78.317193 
L 411.836039 86.115192 
L 416.890784 96.750414 
L 422.114021 73.432927 
L 427.337258 58.061975 
L 432.05502 88.352515 
L 437.278257 85.322078 
L 442.333003 78.766662 
L 447.55624 92.191931 
L 452.610985 83.923428 
L 457.834222 64.6918 
L 463.057459 124.977428 
L 468.112204 98.460715 
L 473.335441 86.329001 
L 478.390186 110.47093 
L 483.613423 89.414479 
L 488.83666 75.088943 
L 493.554422 103.433072 
L 498.777659 97.394124 
L 503.832405 80.999829 
L 509.055641 104.261773 
L 514.110387 105.452603 
L 519.333624 65.454768 
L 524.556861 99.587261 
L 529.611606 88.546267 
L 534.834843 79.466239 
L 539.889588 99.706697 
L 545.112825 83.085787 
L 550.336062 61.590729 
L 555.222316 98.538523 
L 560.445553 92.266661 
L 565.500298 96.634511 
L 570.723535 86.160544 
L 575.77828 74.349709 
L 581.001517 51.639469 
L 586.224754 91.403145 
L 591.279499 83.488235 
L 596.502736 68.991194 
L 601.557481 89.653038 
L 606.780718 69.202232 
L 612.003955 51.672036 
L 616.721718 100.99572 
L 621.944954 72.531 
L 626.9997 64.164081 
L 632.222937 82.754444 
L 637.277682 60.032658 
L 642.500919 45.36949 
L 647.724156 72.485654 
L 652.778901 67.679962 
L 658.002138 67.964493 
L 663.056883 93.20793 
L 668.28012 87.326354 
L 673.503357 35.469063 
L 678.221119 64.893954 
L 683.444356 62.176061 
L 688.499102 47.173072 
L 693.722338 64.28329 
L 698.777084 49.061075 
L 704.000321 2.795215 
L 709.223558 64.263148 
L 714.278303 53.064427 
L 719.50154 70.521687 
L 724.556285 71.48395 
L 729.779522 56.510284 
L 735.002759 49.089308 
L 739.720521 77.826911 
L 744.943758 75.085002 
L 749.998503 72.248864 
L 755.22174 99.684523 
L 760.276486 82.621006 
L 765.499723 72.862246 
L 770.722959 115.36585 
L 775.777705 105.840521 
L 781.000942 97.522008 
L 786.055687 126.026503 
L 791.278924 107.630612 
L 796.502161 95.050012 
L 801.388415 120.521251 
L 806.611651 117.035408 
L 811.666397 108.444145 
L 816.889634 124.210053 
L 821.944379 124.166115 
L 827.167616 83.740588 
L 832.390853 114.430237 
L 837.445598 104.461781 
L 842.668835 92.609766 
L 847.72358 113.730844 
L 847.72358 113.730844 
" clip-path="url(#p7394a4bdef)" style="fill: none; stroke: #1f1f1f; stroke-width: 2; stroke-linecap: square"/>
   </g>
   <g id="patch_3">
    <path d="M 35.304688 158.659676 
L 35.304688 10.999219 
" style="fill: none; stroke: #bbbbbb; stroke-linejoin: miter; stroke-linecap: square"/>
   </g>
   <g id="patch_4">
    <path d="M 35.304688 158.659676 
L 865.19952 158.659676 
" style="fill: none; stroke: #bbbbbb; stroke-linejoin: miter; stroke-linecap: square"/>
   </g>
   <g id="text_9">
    <g id="patch_5">
     <path d="M 68.458933 104.944447 
L 68.458933 64.714447 
L 43.645183 64.714447 
L 43.645183 104.944447 
z
" style="fill: #d9d9d9; stroke: #d9d9d9; stroke-width: 0.5; stroke-linejoin: miter"/>
    </g>
    <!-- data -->
    <g style="fill: #3a3a3a" transform="translate(59.363308 98.344447) rotate(-90) scale(0.12 -0.12)">
     <defs>
      <path id="DejaVuSans-64" d="M 2906 2969 
L 2906 4863 
L 3481 4863 
L 3481 0 
L 2906 0 
L 2906 525 
Q 2725 213 2448 61 
Q 2172 -91 1784 -91 
Q 1150 -91 751 415 
Q 353 922 353 1747 
Q 353 2572 751 3078 
Q 1150 3584 1784 3584 
Q 2172 3584 2448 3432 
Q 2725 3281 2906 2969 
z
M 947 1747 
Q 947 1113 1208 752 
Q 1469 391 1925 391 
Q 2381 391 2643 752 
Q 2906 1113 2906 1747 
Q 2906 2381 2643 2742 
Q 2381 3103 1925 3103 
Q 1469 3103 1208 2742 
Q 947 2381 947 1747 
z
" transform="scale(0.015625)"/>
      <path id="DejaVuSans-61" d="M 2194 1759 
Q 1497 1759 1228 1600 
Q 959 1441 959 1056 
Q 959 750 1161 570 
Q 1363 391 1709 391 
Q 2188 391 2477 730 
Q 2766 1069 2766 1631 
L 2766 1759 
L 2194 1759 
z
M 3341 1997 
L 3341 0 
L 2766 0 
L 2766 531 
Q 2569 213 2275 61 
Q 1981 -91 1556 -91 
Q 1019 -91 701 211 
Q 384 513 384 1019 
Q 384 1609 779 1909 
Q 1175 2209 1959 2209 
L 2766 2209 
L 2766 2266 
Q 2766 2663 2505 2880 
Q 2244 3097 1772 3097 
Q 1472 3097 1187 3025 
Q 903 2953 641 2809 
L 641 3341 
Q 956 3463 1253 3523 
Q 1550 3584 1831 3584 
Q 2591 3584 2966 3190 
Q 3341 2797 3341 1997 
z
" transform="scale(0.015625)"/>
      <path id="DejaVuSans-74" d="M 1172 4494 
L 1172 3500 
L 2356 3500 
L 2356 3053 
L 1172 3053 
L 1172 1153 
Q 1172 725 1289 603 
Q 1406 481 1766 481 
L 2356 481 
L 2356 0 
L 1766 0 
Q 1100 0 847 248 
Q 594 497 594 1153 
L 594 3053 
L 172 3053 
L 172 3500 
L 594 3500 
L 594 4494 
L 1172 4494 
z
" transform="scale(0.015625)"/>
     </defs>
     <use xlink:href="#DejaVuSans-64"/>
     <use xlink:href="#DejaVuSans-61" x="63.476562"/>
     <use xlink:href="#DejaVuSans-74" x="124.755859"/>
     <use xlink:href="#DejaVuSans-61" x="163.964844"/>
    </g>
   </g>
  </g>
  <g id="axes_2">
   <g id="patch_6">
    <path d="M 35.304688 318.19952 
L 865.19952 318.19952 
L 865.19952 170.539062 
L 35.304688 170.539062 
z
" style="fill: #f4f4f4"/>
   </g>
   <g id="matplotlib.axis_3">
    <g id="xtick_8">
     <g id="line2d_32">
      <path d="M 52.780627 318.19952 
L 52.780627 170.539062 
" clip-path="url(#p87dfe7f5ac)" style="fill: none; stroke: #ffffff; stroke-width: 1.1; stroke-linecap: square"/>
     </g>
     <g id="line2d_33">
      <g>
       <use xlink:href="#m6318d3a7db" x="52.780627" y="318.19952" style="fill: #5a5a5a; stroke: #5a5a5a; stroke-width: 0.8"/>
      </g>
     </g>
    </g>
    <g id="xtick_9">
     <g id="line2d_34">
      <path d="M 175.947922 318.19952 
L 175.947922 170.539062 
" clip-path="url(#p87dfe7f5ac)" style="fill: none; stroke: #ffffff; stroke-width: 1.1; stroke-linecap: square"/>
     </g>
     <g id="line2d_35">
      <g>
       <use xlink:href="#m6318d3a7db" x="175.947922" y="318.19952" style="fill: #5a5a5a; stroke: #5a5a5a; stroke-width: 0.8"/>
      </g>
     </g>
    </g>
    <g id="xtick_10">
     <g id="line2d_36">
      <path d="M 298.946726 318.19952 
L 298.946726 170.539062 
" clip-path="url(#p87dfe7f5ac)" style="fill: none; stroke: #ffffff; stroke-width: 1.1; stroke-linecap: square"/>
     </g>
     <g id="line2d_37">
      <g>
       <use xlink:href="#m6318d3a7db" x="298.946726" y="318.19952" style="fill: #5a5a5a; stroke: #5a5a5a; stroke-width: 0.8"/>
      </g>
     </g>
    </g>
    <g id="xtick_11">
     <g id="line2d_38">
      <path d="M 422.114021 318.19952 
L 422.114021 170.539062 
" clip-path="url(#p87dfe7f5ac)" style="fill: none; stroke: #ffffff; stroke-width: 1.1; stroke-linecap: square"/>
     </g>
     <g id="line2d_39">
      <g>
       <use xlink:href="#m6318d3a7db" x="422.114021" y="318.19952" style="fill: #5a5a5a; stroke: #5a5a5a; stroke-width: 0.8"/>
      </g>
     </g>
    </g>
    <g id="xtick_12">
     <g id="line2d_40">
      <path d="M 545.112825 318.19952 
L 545.112825 170.539062 
" clip-path="url(#p87dfe7f5ac)" style="fill: none; stroke: #ffffff; stroke-width: 1.1; stroke-linecap: square"/>
     </g>
     <g id="line2d_41">
      <g>
       <use xlink:href="#m6318d3a7db" x="545.112825" y="318.19952" style="fill: #5a5a5a; stroke: #5a5a5a; stroke-width: 0.8"/>
      </g>
     </g>
    </g>
    <g id="xtick_13">
     <g id="line2d_42">
      <path d="M 668.28012 318.19952 
L 668.28012 170.539062 
" clip-path="url(#p87dfe7f5ac)" style="fill: none; stroke: #ffffff; stroke-width: 1.1; stroke-linecap: square"/>
     </g>
     <g id="line2d_43">
      <g>
       <use xlink:href="#m6318d3a7db" x="668.28012" y="318.19952" style="fill: #5a5a5a; stroke: #5a5a5a; stroke-width: 0.8"/>
      </g>
     </g>
    </g>
    <g id="xtick_14">
     <g id="line2d_44">
      <path d="M 791.278924 318.19952 
L 791.278924 170.539062 
" clip-path="url(#p87dfe7f5ac)" style="fill: none; stroke: #ffffff; stroke-width: 1.1; stroke-linecap: square"/>
     </g>
     <g id="line2d_45">
      <g>
       <use xlink:href="#m6318d3a7db" x="791.278924" y="318.19952" style="fill: #5a5a5a; stroke: #5a5a5a; stroke-width: 0.8"/>
      </g>
     </g>
    </g>
   </g>
   <g id="matplotlib.axis_4">
    <g id="ytick_9">
     <g id="line2d_46">
      <path d="M 35.304688 310.217874 
L 865.19952 310.217874 
" clip-path="url(#p87dfe7f5ac)" style="fill: none; stroke: #ffffff; stroke-width: 1.1; stroke-linecap: square"/>
     </g>
     <g id="line2d_47">
      <g>
       <use xlink:href="#me2a73ff8ee" x="35.304688" y="310.217874" style="fill: #5a5a5a; stroke: #5a5a5a; stroke-width: 0.8"/>
      </g>
     </g>
     <g id="text_10">
      <!-- 80 -->
      <g style="fill: #5a5a5a" transform="translate(15.579687 314.017092) scale(0.1 -0.1)">
       <use xlink:href="#DejaVuSans-38"/>
       <use xlink:href="#DejaVuSans-30" x="63.623047"/>
      </g>
     </g>
    </g>
    <g id="ytick_10">
     <g id="line2d_48">
      <path d="M 35.304688 270.309642 
L 865.19952 270.309642 
" clip-path="url(#p87dfe7f5ac)" style="fill: none; stroke: #ffffff; stroke-width: 1.1; stroke-linecap: square"/>
     </g>
     <g id="line2d_49">
      <g>
       <use xlink:href="#me2a73ff8ee" x="35.304688" y="270.309642" style="fill: #5a5a5a; stroke: #5a5a5a; stroke-width: 0.8"/>
      </g>
     </g>
     <g id="text_11">
      <!-- 90 -->
      <g style="fill: #5a5a5a" transform="translate(15.579687 274.108861) scale(0.1 -0.1)">
       <use xlink:href="#DejaVuSans-39"/>
       <use xlink:href="#DejaVuSans-30" x="63.623047"/>
      </g>
     </g>
    </g>
    <g id="ytick_11">
     <g id="line2d_50">
      <path d="M 35.304688 230.40141 
L 865.19952 230.40141 
" clip-path="url(#p87dfe7f5ac)" style="fill: none; stroke: #ffffff; stroke-width: 1.1; stroke-linecap: square"/>
     </g>
     <g id="line2d_51">
      <g>
       <use xlink:href="#me2a73ff8ee" x="35.304688" y="230.40141" style="fill: #5a5a5a; stroke: #5a5a5a; stroke-width: 0.8"/>
      </g>
     </g>
     <g id="text_12">
      <!-- 100 -->
      <g style="fill: #5a5a5a" transform="translate(9.217187 234.200629) scale(0.1 -0.1)">
       <use xlink:href="#DejaVuSans-31"/>
       <use xlink:href="#DejaVuSans-30" x="63.623047"/>
       <use xlink:href="#DejaVuSans-30" x="127.246094"/>
      </g>
     </g>
    </g>
    <g id="ytick_12">
     <g id="line2d_52">
      <path d="M 35.304688 190.493178 
L 865.19952 190.493178 
" clip-path="url(#p87dfe7f5ac)" style="fill: none; stroke: #ffffff; stroke-width: 1.1; stroke-linecap: square"/>
     </g>
     <g id="line2d_53">
      <g>
       <use xlink:href="#me2a73ff8ee" x="35.304688" y="190.493178" style="fill: #5a5a5a; stroke: #5a5a5a; stroke-width: 0.8"/>
      </g>
     </g>
     <g id="text_13">
      <!-- 110 -->
      <g style="fill: #5a5a5a" transform="translate(9.217187 194.292397) scale(0.1 -0.1)">
       <use xlink:href="#DejaVuSans-31"/>
       <use xlink:href="#DejaVuSans-31" x="63.623047"/>
       <use xlink:href="#DejaVuSans-30" x="127.246094"/>
      </g>
     </g>
    </g>
   </g>
   <g id="line2d_54">
    <path d="M 52.780627 309.386452 
L 58.003864 308.555031 
L 68.113355 306.22705 
L 88.669319 300.905953 
L 119.671757 292.924307 
L 124.38952 291.594032 
L 134.667502 289.041568 
L 139.890739 288.035548 
L 144.945484 287.353783 
L 150.168721 287.104356 
L 155.391958 287.179184 
L 165.66994 287.869264 
L 232.224087 293.057334 
L 237.447324 293.094748 
L 242.670561 292.408825 
L 247.388323 290.637897 
L 252.61156 287.420296 
L 257.666306 283.11769 
L 262.889542 278.091747 
L 267.944288 272.704136 
L 278.390762 261.928913 
L 283.445507 256.541302 
L 288.668744 251.153691 
L 293.723489 245.766079 
L 304.169963 234.990857 
L 309.056217 229.603245 
L 314.279454 224.215634 
L 319.334199 218.828023 
L 324.557436 213.440412 
L 329.612181 208.0528 
L 334.835418 202.665189 
L 340.058655 197.832552 
L 345.1134 194.109862 
L 350.336637 192.052094 
L 355.391383 192.214221 
L 360.614619 194.04127 
L 365.837856 196.978266 
L 370.555619 200.470236 
L 386.056838 210.946147 
L 396.33482 217.930088 
L 411.836039 228.405999 
L 422.114021 235.389939 
L 427.337258 238.881909 
L 432.05502 242.37388 
L 447.55624 252.84979 
L 457.834222 259.833731 
L 463.057459 263.013918 
L 468.112204 265.570539 
L 473.335441 267.191811 
L 478.390186 267.565951 
L 483.613423 267.004741 
L 488.83666 265.819966 
L 493.554422 264.323407 
L 524.556861 255.344055 
L 545.112825 249.35782 
L 560.445553 244.868144 
L 586.224754 237.308822 
L 591.279499 235.582678 
L 596.502736 233.626948 
L 601.557481 231.365103 
L 606.780718 228.873673 
L 612.003955 226.229186 
L 616.721718 223.50817 
L 632.222937 215.345123 
L 642.500919 209.903091 
L 658.002138 201.740044 
L 668.28012 196.298012 
L 673.503357 193.576996 
L 678.221119 190.85598 
L 693.722338 182.692933 
L 698.777084 180.640834 
L 704.000321 179.926567 
L 709.223558 181.21905 
L 714.278303 185.187198 
L 719.50154 191.162095 
L 724.556285 198.474825 
L 735.002759 214.438117 
L 739.720521 222.419764 
L 744.943758 230.40141 
L 749.998503 238.383056 
L 755.22174 246.364703 
L 760.276486 254.346349 
L 770.722959 270.309642 
L 775.777705 278.291288 
L 781.000942 286.272935 
L 786.055687 293.506302 
L 791.278924 299.24311 
L 796.502161 302.73508 
L 801.388415 303.233933 
L 806.611651 301.487948 
L 811.666397 298.245404 
L 837.445598 278.540715 
L 842.668835 275.298171 
L 847.72358 272.803906 
L 847.72358 272.803906 
" clip-path="url(#p87dfe7f5ac)" style="fill: none; stroke: #3b3b3b; stroke-width: 2.2; stroke-linecap: square"/>
   </g>
   <g id="patch_7">
    <path d="M 35.304688 318.19952 
L 35.304688 170.539062 
" style="fill: none; stroke: #bbbbbb; stroke-linejoin: miter; stroke-linecap: square"/>
   </g>
   <g id="patch_8">
    <path d="M 35.304688 318.19952 
L 865.19952 318.19952 
" style="fill: none; stroke: #bbbbbb; stroke-linejoin: miter; stroke-linecap: square"/>
   </g>
   <g id="text_14">
    <g id="patch_9">
     <path d="M 68.458933 266.956479 
L 68.458933 221.782104 
L 43.645183 221.782104 
L 43.645183 266.956479 
z
" style="fill: #d9d9d9; stroke: #d9d9d9; stroke-width: 0.5; stroke-linejoin: miter"/>
    </g>
    <!-- trend -->
    <g style="fill: #3a3a3a" transform="translate(59.363308 260.356479) rotate(-90) scale(0.12 -0.12)">
     <defs>
      <path id="DejaVuSans-72" d="M 2631 2963 
Q 2534 3019 2420 3045 
Q 2306 3072 2169 3072 
Q 1681 3072 1420 2755 
Q 1159 2438 1159 1844 
L 1159 0 
L 581 0 
L 581 3500 
L 1159 3500 
L 1159 2956 
Q 1341 3275 1631 3429 
Q 1922 3584 2338 3584 
Q 2397 3584 2469 3576 
Q 2541 3569 2628 3553 
L 2631 2963 
z
" transform="scale(0.015625)"/>
      <path id="DejaVuSans-65" d="M 3597 1894 
L 3597 1613 
L 953 1613 
Q 991 1019 1311 708 
Q 1631 397 2203 397 
Q 2534 397 2845 478 
Q 3156 559 3463 722 
L 3463 178 
Q 3153 47 2828 -22 
Q 2503 -91 2169 -91 
Q 1331 -91 842 396 
Q 353 884 353 1716 
Q 353 2575 817 3079 
Q 1281 3584 2069 3584 
Q 2775 3584 3186 3129 
Q 3597 2675 3597 1894 
z
M 3022 2063 
Q 3016 2534 2758 2815 
Q 2500 3097 2075 3097 
Q 1594 3097 1305 2825 
Q 1016 2553 972 2059 
L 3022 2063 
z
" transform="scale(0.015625)"/>
      <path id="DejaVuSans-6e" d="M 3513 2113 
L 3513 0 
L 2938 0 
L 2938 2094 
Q 2938 2591 2744 2837 
Q 2550 3084 2163 3084 
Q 1697 3084 1428 2787 
Q 1159 2491 1159 1978 
L 1159 0 
L 581 0 
L 581 3500 
L 1159 3500 
L 1159 2956 
Q 1366 3272 1645 3428 
Q 1925 3584 2291 3584 
Q 2894 3584 3203 3211 
Q 3513 2838 3513 2113 
z
" transform="scale(0.015625)"/>
     </defs>
     <use xlink:href="#DejaVuSans-74"/>
     <use xlink:href="#DejaVuSans-72" x="39.208984"/>
     <use xlink:href="#DejaVuSans-65" x="78.072266"/>
     <use xlink:href="#DejaVuSans-6e" x="139.595703"/>
     <use xlink:href="#DejaVuSans-64" x="202.974609"/>
    </g>
   </g>
  </g>
  <g id="axes_3">
   <g id="patch_10">
    <path d="M 35.304688 475.360458 
L 865.19952 475.360458 
L 865.19952 327.7 
L 35.304688 327.7 
z
" style="fill: #f4f4f4"/>
   </g>
   <g id="matplotlib.axis_5">
    <g id="xtick_15">
     <g id="line2d_55">
      <path d="M 52.780627 475.360458 
L 52.780627 327.7 
" clip-path="url(#p66bab4b2ce)" style="fill: none; stroke: #ffffff; stroke-width: 1.1; stroke-linecap: square"/>
     </g>
     <g id="line2d_56">
      <g>
       <use xlink:href="#m6318d3a7db" x="52.780627" y="475.360458" style="fill: #5a5a5a; stroke: #5a5a5a; stroke-width: 0.8"/>
      </g>
     </g>
    </g>
    <g id="xtick_16">
     <g id="line2d_57">
      <path d="M 175.947922 475.360458 
L 175.947922 327.7 
" clip-path="url(#p66bab4b2ce)" style="fill: none; stroke: #ffffff; stroke-width: 1.1; stroke-linecap: square"/>
     </g>
     <g id="line2d_58">
      <g>
       <use xlink:href="#m6318d3a7db" x="175.947922" y="475.360458" style="fill: #5a5a5a; stroke: #5a5a5a; stroke-width: 0.8"/>
      </g>
     </g>
    </g>
    <g id="xtick_17">
     <g id="line2d_59">
      <path d="M 298.946726 475.360458 
L 298.946726 327.7 
" clip-path="url(#p66bab4b2ce)" style="fill: none; stroke: #ffffff; stroke-width: 1.1; stroke-linecap: square"/>
     </g>
     <g id="line2d_60">
      <g>
       <use xlink:href="#m6318d3a7db" x="298.946726" y="475.360458" style="fill: #5a5a5a; stroke: #5a5a5a; stroke-width: 0.8"/>
      </g>
     </g>
    </g>
    <g id="xtick_18">
     <g id="line2d_61">
      <path d="M 422.114021 475.360458 
L 422.114021 327.7 
" clip-path="url(#p66bab4b2ce)" style="fill: none; stroke: #ffffff; stroke-width: 1.1; stroke-linecap: square"/>
     </g>
     <g id="line2d_62">
      <g>
       <use xlink:href="#m6318d3a7db" x="422.114021" y="475.360458" style="fill: #5a5a5a; stroke: #5a5a5a; stroke-width: 0.8"/>
      </g>
     </g>
    </g>
    <g id="xtick_19">
     <g id="line2d_63">
      <path d="M 545.112825 475.360458 
L 545.112825 327.7 
" clip-path="url(#p66bab4b2ce)" style="fill: none; stroke: #ffffff; stroke-width: 1.1; stroke-linecap: square"/>
     </g>
     <g id="line2d_64">
      <g>
       <use xlink:href="#m6318d3a7db" x="545.112825" y="475.360458" style="fill: #5a5a5a; stroke: #5a5a5a; stroke-width: 0.8"/>
      </g>
     </g>
    </g>
    <g id="xtick_20">
     <g id="line2d_65">
      <path d="M 668.28012 475.360458 
L 668.28012 327.7 
" clip-path="url(#p66bab4b2ce)" style="fill: none; stroke: #ffffff; stroke-width: 1.1; stroke-linecap: square"/>
     </g>
     <g id="line2d_66">
      <g>
       <use xlink:href="#m6318d3a7db" x="668.28012" y="475.360458" style="fill: #5a5a5a; stroke: #5a5a5a; stroke-width: 0.8"/>
      </g>
     </g>
    </g>
    <g id="xtick_21">
     <g id="line2d_67">
      <path d="M 791.278924 475.360458 
L 791.278924 327.7 
" clip-path="url(#p66bab4b2ce)" style="fill: none; stroke: #ffffff; stroke-width: 1.1; stroke-linecap: square"/>
     </g>
     <g id="line2d_68">
      <g>
       <use xlink:href="#m6318d3a7db" x="791.278924" y="475.360458" style="fill: #5a5a5a; stroke: #5a5a5a; stroke-width: 0.8"/>
      </g>
     </g>
    </g>
   </g>
   <g id="matplotlib.axis_6">
    <g id="ytick_13">
     <g id="line2d_69">
      <path d="M 35.304688 460.594412 
L 865.19952 460.594412 
" clip-path="url(#p66bab4b2ce)" style="fill: none; stroke: #ffffff; stroke-width: 1.1; stroke-linecap: square"/>
     </g>
     <g id="line2d_70">
      <g>
       <use xlink:href="#me2a73ff8ee" x="35.304688" y="460.594412" style="fill: #5a5a5a; stroke: #5a5a5a; stroke-width: 0.8"/>
      </g>
     </g>
     <g id="text_15">
      <!-- −15 -->
      <g style="fill: #5a5a5a" transform="translate(7.2 464.393631) scale(0.1 -0.1)">
       <defs>
        <path id="DejaVuSans-2212" d="M 678 2272 
L 4684 2272 
L 4684 1741 
L 678 1741 
L 678 2272 
z
" transform="scale(0.015625)"/>
        <path id="DejaVuSans-35" d="M 691 4666 
L 3169 4666 
L 3169 4134 
L 1269 4134 
L 1269 2991 
Q 1406 3038 1543 3061 
Q 1681 3084 1819 3084 
Q 2600 3084 3056 2656 
Q 3513 2228 3513 1497 
Q 3513 744 3044 326 
Q 2575 -91 1722 -91 
Q 1428 -91 1123 -41 
Q 819 9 494 109 
L 494 744 
Q 775 591 1075 516 
Q 1375 441 1709 441 
Q 2250 441 2565 725 
Q 2881 1009 2881 1497 
Q 2881 1984 2565 2268 
Q 2250 2553 1709 2553 
Q 1456 2553 1204 2497 
Q 953 2441 691 2322 
L 691 4666 
z
" transform="scale(0.015625)"/>
       </defs>
       <use xlink:href="#DejaVuSans-2212"/>
       <use xlink:href="#DejaVuSans-31" x="83.789062"/>
       <use xlink:href="#DejaVuSans-35" x="147.412109"/>
      </g>
     </g>
    </g>
    <g id="ytick_14">
     <g id="line2d_71">
      <path d="M 35.304688 435.984336 
L 865.19952 435.984336 
" clip-path="url(#p66bab4b2ce)" style="fill: none; stroke: #ffffff; stroke-width: 1.1; stroke-linecap: square"/>
     </g>
     <g id="line2d_72">
      <g>
       <use xlink:href="#me2a73ff8ee" x="35.304688" y="435.984336" style="fill: #5a5a5a; stroke: #5a5a5a; stroke-width: 0.8"/>
      </g>
     </g>
     <g id="text_16">
      <!-- −10 -->
      <g style="fill: #5a5a5a" transform="translate(7.2 439.783554) scale(0.1 -0.1)">
       <use xlink:href="#DejaVuSans-2212"/>
       <use xlink:href="#DejaVuSans-31" x="83.789062"/>
       <use xlink:href="#DejaVuSans-30" x="147.412109"/>
      </g>
     </g>
    </g>
    <g id="ytick_15">
     <g id="line2d_73">
      <path d="M 35.304688 411.374259 
L 865.19952 411.374259 
" clip-path="url(#p66bab4b2ce)" style="fill: none; stroke: #ffffff; stroke-width: 1.1; stroke-linecap: square"/>
     </g>
     <g id="line2d_74">
      <g>
       <use xlink:href="#me2a73ff8ee" x="35.304688" y="411.374259" style="fill: #5a5a5a; stroke: #5a5a5a; stroke-width: 0.8"/>
      </g>
     </g>
     <g id="text_17">
      <!-- −5 -->
      <g style="fill: #5a5a5a" transform="translate(13.5625 415.173478) scale(0.1 -0.1)">
       <use xlink:href="#DejaVuSans-2212"/>
       <use xlink:href="#DejaVuSans-35" x="83.789062"/>
      </g>
     </g>
    </g>
    <g id="ytick_16">
     <g id="line2d_75">
      <path d="M 35.304688 386.764183 
L 865.19952 386.764183 
" clip-path="url(#p66bab4b2ce)" style="fill: none; stroke: #ffffff; stroke-width: 1.1; stroke-linecap: square"/>
     </g>
     <g id="line2d_76">
      <g>
       <use xlink:href="#me2a73ff8ee" x="35.304688" y="386.764183" style="fill: #5a5a5a; stroke: #5a5a5a; stroke-width: 0.8"/>
      </g>
     </g>
     <g id="text_18">
      <!-- 0 -->
      <g style="fill: #5a5a5a" transform="translate(21.942187 390.563402) scale(0.1 -0.1)">
       <use xlink:href="#DejaVuSans-30"/>
      </g>
     </g>
    </g>
    <g id="ytick_17">
     <g id="line2d_77">
      <path d="M 35.304688 362.154107 
L 865.19952 362.154107 
" clip-path="url(#p66bab4b2ce)" style="fill: none; stroke: #ffffff; stroke-width: 1.1; stroke-linecap: square"/>
     </g>
     <g id="line2d_78">
      <g>
       <use xlink:href="#me2a73ff8ee" x="35.304688" y="362.154107" style="fill: #5a5a5a; stroke: #5a5a5a; stroke-width: 0.8"/>
      </g>
     </g>
     <g id="text_19">
      <!-- 5 -->
      <g style="fill: #5a5a5a" transform="translate(21.942187 365.953326) scale(0.1 -0.1)">
       <use xlink:href="#DejaVuSans-35"/>
      </g>
     </g>
    </g>
    <g id="ytick_18">
     <g id="line2d_79">
      <path d="M 35.304688 337.544031 
L 865.19952 337.544031 
" clip-path="url(#p66bab4b2ce)" style="fill: none; stroke: #ffffff; stroke-width: 1.1; stroke-linecap: square"/>
     </g>
     <g id="line2d_80">
      <g>
       <use xlink:href="#me2a73ff8ee" x="35.304688" y="337.544031" style="fill: #5a5a5a; stroke: #5a5a5a; stroke-width: 0.8"/>
      </g>
     </g>
     <g id="text_20">
      <!-- 10 -->
      <g style="fill: #5a5a5a" transform="translate(15.579687 341.343249) scale(0.1 -0.1)">
       <use xlink:href="#DejaVuSans-31"/>
       <use xlink:href="#DejaVuSans-30" x="63.623047"/>
      </g>
     </g>
    </g>
   </g>
   <g id="line2d_81">
    <path d="M 52.780627 424.886363 
L 58.003864 337.835039 
L 62.890118 412.871865 
L 68.113355 397.862155 
L 73.1681 371.754473 
L 78.391337 424.595355 
L 83.446082 375.666211 
L 88.669319 337.835039 
L 93.892556 412.871865 
L 98.947301 397.862155 
L 104.170538 420.974626 
L 109.225284 424.595355 
L 114.44852 375.666211 
L 119.671757 337.835039 
L 124.38952 412.871865 
L 129.612757 397.862155 
L 134.667502 371.754473 
L 139.890739 424.595355 
L 144.945484 375.666211 
L 150.168721 337.835039 
L 155.391958 462.092018 
L 160.446703 397.862155 
L 165.66994 371.754473 
L 170.724685 424.595355 
L 175.947922 375.666211 
L 181.171159 337.835039 
L 185.888922 412.871865 
L 191.112158 397.862155 
L 196.166904 371.754473 
L 201.390141 424.595355 
L 206.444886 424.886363 
L 211.668123 337.835039 
L 216.89136 412.871865 
L 221.946105 397.862155 
L 227.169342 371.754473 
L 232.224087 424.595355 
L 237.447324 375.666211 
L 242.670561 337.835039 
L 247.388323 412.871865 
L 252.61156 397.862155 
L 257.666306 420.974626 
L 262.889542 424.595355 
L 267.944288 375.666211 
L 273.167525 337.835039 
L 278.390762 412.871865 
L 283.445507 397.862155 
L 288.668744 371.754473 
L 293.723489 424.595355 
L 298.946726 375.666211 
L 304.169963 337.835039 
L 309.056217 462.092018 
L 314.279454 397.862155 
L 319.334199 371.754473 
L 324.557436 424.595355 
L 329.612181 375.666211 
L 334.835418 337.835039 
L 340.058655 412.871865 
L 345.1134 397.862155 
L 350.336637 371.754473 
L 355.391383 424.595355 
L 360.614619 424.886363 
L 365.837856 337.835039 
L 370.555619 412.871865 
L 375.778855 397.862155 
L 380.833601 371.754473 
L 386.056838 424.595355 
L 391.111583 375.666211 
L 396.33482 337.835039 
L 401.558057 412.871865 
L 406.612802 397.862155 
L 411.836039 420.974626 
L 416.890784 424.595355 
L 422.114021 375.666211 
L 427.337258 337.835039 
L 432.05502 412.871865 
L 437.278257 397.862155 
L 442.333003 371.754473 
L 447.55624 424.595355 
L 452.610985 375.666211 
L 457.834222 337.835039 
L 463.057459 462.092018 
L 468.112204 397.862155 
L 473.335441 371.754473 
L 478.390186 424.595355 
L 483.613423 375.666211 
L 488.83666 337.835039 
L 493.554422 412.871865 
L 498.777659 397.862155 
L 503.832405 371.754473 
L 509.055641 424.595355 
L 514.110387 424.886363 
L 519.333624 337.835039 
L 524.556861 412.871865 
L 529.611606 397.862155 
L 534.834843 371.754473 
L 539.889588 424.595355 
L 545.112825 375.666211 
L 550.336062 337.835039 
L 555.222316 412.871865 
L 560.445553 397.862155 
L 565.500298 420.974626 
L 570.723535 424.595355 
L 575.77828 375.666211 
L 581.001517 337.835039 
L 586.224754 412.871865 
L 591.279499 397.862155 
L 596.502736 371.754473 
L 601.557481 424.595355 
L 606.780718 375.666211 
L 612.003955 337.835039 
L 616.721718 462.092018 
L 621.944954 397.862155 
L 626.9997 371.754473 
L 632.222937 424.595355 
L 637.277682 375.666211 
L 642.500919 337.835039 
L 647.724156 412.871865 
L 652.778901 397.862155 
L 658.002138 371.754473 
L 663.056883 424.595355 
L 668.28012 424.886363 
L 673.503357 337.835039 
L 678.221119 412.871865 
L 683.444356 397.862155 
L 688.499102 371.754473 
L 693.722338 424.595355 
L 698.777084 375.666211 
L 704.000321 337.835039 
L 709.223558 412.871865 
L 714.278303 397.862155 
L 719.50154 420.974626 
L 724.556285 424.595355 
L 729.779522 375.666211 
L 735.002759 337.835039 
L 739.720521 412.871865 
L 744.943758 397.862155 
L 749.998503 371.754473 
L 755.22174 424.595355 
L 760.276486 375.666211 
L 765.499723 337.835039 
L 770.722959 462.092018 
L 775.777705 397.862155 
L 781.000942 371.754473 
L 786.055687 424.595355 
L 791.278924 375.666211 
L 796.502161 337.835039 
L 801.388415 412.871865 
L 806.611651 397.862155 
L 811.666397 371.754473 
L 816.889634 424.595355 
L 821.944379 424.886363 
L 827.167616 337.835039 
L 832.390853 412.871865 
L 837.445598 397.862155 
L 842.668835 371.754473 
L 847.72358 424.595355 
L 847.72358 424.595355 
" clip-path="url(#p66bab4b2ce)" style="fill: none; stroke: #454545; stroke-width: 1.8; stroke-linecap: square"/>
   </g>
   <g id="patch_11">
    <path d="M 35.304688 475.360458 
L 35.304688 327.7 
" style="fill: none; stroke: #bbbbbb; stroke-linejoin: miter; stroke-linecap: square"/>
   </g>
   <g id="patch_12">
    <path d="M 35.304688 475.360458 
L 865.19952 475.360458 
" style="fill: none; stroke: #bbbbbb; stroke-linejoin: miter; stroke-linecap: square"/>
   </g>
   <g id="text_21">
    <g id="patch_13">
     <path d="M 68.458933 434.567729 
L 68.458933 368.492729 
L 43.645183 368.492729 
L 43.645183 434.567729 
z
" style="fill: #d9d9d9; stroke: #d9d9d9; stroke-width: 0.5; stroke-linejoin: miter"/>
    </g>
    <!-- seasonal -->
    <g style="fill: #3a3a3a" transform="translate(59.363308 427.967729) rotate(-90) scale(0.12 -0.12)">
     <defs>
      <path id="DejaVuSans-73" d="M 2834 3397 
L 2834 2853 
Q 2591 2978 2328 3040 
Q 2066 3103 1784 3103 
Q 1356 3103 1142 2972 
Q 928 2841 928 2578 
Q 928 2378 1081 2264 
Q 1234 2150 1697 2047 
L 1894 2003 
Q 2506 1872 2764 1633 
Q 3022 1394 3022 966 
Q 3022 478 2636 193 
Q 2250 -91 1575 -91 
Q 1294 -91 989 -36 
Q 684 19 347 128 
L 347 722 
Q 666 556 975 473 
Q 1284 391 1588 391 
Q 1994 391 2212 530 
Q 2431 669 2431 922 
Q 2431 1156 2273 1281 
Q 2116 1406 1581 1522 
L 1381 1569 
Q 847 1681 609 1914 
Q 372 2147 372 2553 
Q 372 3047 722 3315 
Q 1072 3584 1716 3584 
Q 2034 3584 2315 3537 
Q 2597 3491 2834 3397 
z
" transform="scale(0.015625)"/>
      <path id="DejaVuSans-6f" d="M 1959 3097 
Q 1497 3097 1228 2736 
Q 959 2375 959 1747 
Q 959 1119 1226 758 
Q 1494 397 1959 397 
Q 2419 397 2687 759 
Q 2956 1122 2956 1747 
Q 2956 2369 2687 2733 
Q 2419 3097 1959 3097 
z
M 1959 3584 
Q 2709 3584 3137 3096 
Q 3566 2609 3566 1747 
Q 3566 888 3137 398 
Q 2709 -91 1959 -91 
Q 1206 -91 779 398 
Q 353 888 353 1747 
Q 353 2609 779 3096 
Q 1206 3584 1959 3584 
z
" transform="scale(0.015625)"/>
      <path id="DejaVuSans-6c" d="M 603 4863 
L 1178 4863 
L 1178 0 
L 603 0 
L 603 4863 
z
" transform="scale(0.015625)"/>
     </defs>
     <use xlink:href="#DejaVuSans-73"/>
     <use xlink:href="#DejaVuSans-65" x="52.099609"/>
     <use xlink:href="#DejaVuSans-61" x="113.623047"/>
     <use xlink:href="#DejaVuSans-73" x="174.902344"/>
     <use xlink:href="#DejaVuSans-6f" x="227.001953"/>
     <use xlink:href="#DejaVuSans-6e" x="288.183594"/>
     <use xlink:href="#DejaVuSans-61" x="351.5625"/>
     <use xlink:href="#DejaVuSans-6c" x="412.841797"/>
    </g>
   </g>
  </g>
  <g id="axes_4">
   <g id="patch_14">
    <path d="M 35.304688 632.521395 
L 865.19952 632.521395 
L 865.19952 484.860938 
L 35.304688 484.860938 
z
" style="fill: #f4f4f4"/>
   </g>
   <g id="matplotlib.axis_7">
    <g id="xtick_22">
     <g id="line2d_82">
      <path d="M 52.780627 632.521395 
L 52.780627 484.860938 
" clip-path="url(#p58abd0f8b8)" style="fill: none; stroke: #ffffff; stroke-width: 1.1; stroke-linecap: square"/>
     </g>
     <g id="line2d_83">
      <g>
       <use xlink:href="#m6318d3a7db" x="52.780627" y="632.521395" style="fill: #5a5a5a; stroke: #5a5a5a; stroke-width: 0.8"/>
      </g>
     </g>
     <g id="text_22">
      <!-- 2000 -->
      <g style="fill: #5a5a5a" transform="translate(40.055627 647.119832) scale(0.1 -0.1)">
       <use xlink:href="#DejaVuSans-32"/>
       <use xlink:href="#DejaVuSans-30" x="63.623047"/>
       <use xlink:href="#DejaVuSans-30" x="127.246094"/>
       <use xlink:href="#DejaVuSans-30" x="190.869141"/>
      </g>
     </g>
    </g>
    <g id="xtick_23">
     <g id="line2d_84">
      <path d="M 175.947922 632.521395 
L 175.947922 484.860938 
" clip-path="url(#p58abd0f8b8)" style="fill: none; stroke: #ffffff; stroke-width: 1.1; stroke-linecap: square"/>
     </g>
     <g id="line2d_85">
      <g>
       <use xlink:href="#m6318d3a7db" x="175.947922" y="632.521395" style="fill: #5a5a5a; stroke: #5a5a5a; stroke-width: 0.8"/>
      </g>
     </g>
     <g id="text_23">
      <!-- 2002 -->
      <g style="fill: #5a5a5a" transform="translate(163.222922 647.119832) scale(0.1 -0.1)">
       <use xlink:href="#DejaVuSans-32"/>
       <use xlink:href="#DejaVuSans-30" x="63.623047"/>
       <use xlink:href="#DejaVuSans-30" x="127.246094"/>
       <use xlink:href="#DejaVuSans-32" x="190.869141"/>
      </g>
     </g>
    </g>
    <g id="xtick_24">
     <g id="line2d_86">
      <path d="M 298.946726 632.521395 
L 298.946726 484.860938 
" clip-path="url(#p58abd0f8b8)" style="fill: none; stroke: #ffffff; stroke-width: 1.1; stroke-linecap: square"/>
     </g>
     <g id="line2d_87">
      <g>
       <use xlink:href="#m6318d3a7db" x="298.946726" y="632.521395" style="fill: #5a5a5a; stroke: #5a5a5a; stroke-width: 0.8"/>
      </g>
     </g>
     <g id="text_24">
      <!-- 2004 -->
      <g style="fill: #5a5a5a" transform="translate(286.221726 647.119832) scale(0.1 -0.1)">
       <defs>
        <path id="DejaVuSans-34" d="M 2419 4116 
L 825 1625 
L 2419 1625 
L 2419 4116 
z
M 2253 4666 
L 3047 4666 
L 3047 1625 
L 3713 1625 
L 3713 1100 
L 3047 1100 
L 3047 0 
L 2419 0 
L 2419 1100 
L 313 1100 
L 313 1709 
L 2253 4666 
z
" transform="scale(0.015625)"/>
       </defs>
       <use xlink:href="#DejaVuSans-32"/>
       <use xlink:href="#DejaVuSans-30" x="63.623047"/>
       <use xlink:href="#DejaVuSans-30" x="127.246094"/>
       <use xlink:href="#DejaVuSans-34" x="190.869141"/>
      </g>
     </g>
    </g>
    <g id="xtick_25">
     <g id="line2d_88">
      <path d="M 422.114021 632.521395 
L 422.114021 484.860938 
" clip-path="url(#p58abd0f8b8)" style="fill: none; stroke: #ffffff; stroke-width: 1.1; stroke-linecap: square"/>
     </g>
     <g id="line2d_89">
      <g>
       <use xlink:href="#m6318d3a7db" x="422.114021" y="632.521395" style="fill: #5a5a5a; stroke: #5a5a5a; stroke-width: 0.8"/>
      </g>
     </g>
     <g id="text_25">
      <!-- 2006 -->
      <g style="fill: #5a5a5a" transform="translate(409.389021 647.119832) scale(0.1 -0.1)">
       <use xlink:href="#DejaVuSans-32"/>
       <use xlink:href="#DejaVuSans-30" x="63.623047"/>
       <use xlink:href="#DejaVuSans-30" x="127.246094"/>
       <use xlink:href="#DejaVuSans-36" x="190.869141"/>
      </g>
     </g>
    </g>
    <g id="xtick_26">
     <g id="line2d_90">
      <path d="M 545.112825 632.521395 
L 545.112825 484.860938 
" clip-path="url(#p58abd0f8b8)" style="fill: none; stroke: #ffffff; stroke-width: 1.1; stroke-linecap: square"/>
     </g>
     <g id="line2d_91">
      <g>
       <use xlink:href="#m6318d3a7db" x="545.112825" y="632.521395" style="fill: #5a5a5a; stroke: #5a5a5a; stroke-width: 0.8"/>
      </g>
     </g>
     <g id="text_26">
      <!-- 2008 -->
      <g style="fill: #5a5a5a" transform="translate(532.387825 647.119832) scale(0.1 -0.1)">
       <use xlink:href="#DejaVuSans-32"/>
       <use xlink:href="#DejaVuSans-30" x="63.623047"/>
       <use xlink:href="#DejaVuSans-30" x="127.246094"/>
       <use xlink:href="#DejaVuSans-38" x="190.869141"/>
      </g>
     </g>
    </g>
    <g id="xtick_27">
     <g id="line2d_92">
      <path d="M 668.28012 632.521395 
L 668.28012 484.860938 
" clip-path="url(#p58abd0f8b8)" style="fill: none; stroke: #ffffff; stroke-width: 1.1; stroke-linecap: square"/>
     </g>
     <g id="line2d_93">
      <g>
       <use xlink:href="#m6318d3a7db" x="668.28012" y="632.521395" style="fill: #5a5a5a; stroke: #5a5a5a; stroke-width: 0.8"/>
      </g>
     </g>
     <g id="text_27">
      <!-- 2010 -->
      <g style="fill: #5a5a5a" transform="translate(655.55512 647.119832) scale(0.1 -0.1)">
       <use xlink:href="#DejaVuSans-32"/>
       <use xlink:href="#DejaVuSans-30" x="63.623047"/>
       <use xlink:href="#DejaVuSans-31" x="127.246094"/>
       <use xlink:href="#DejaVuSans-30" x="190.869141"/>
      </g>
     </g>
    </g>
    <g id="xtick_28">
     <g id="line2d_94">
      <path d="M 791.278924 632.521395 
L 791.278924 484.860938 
" clip-path="url(#p58abd0f8b8)" style="fill: none; stroke: #ffffff; stroke-width: 1.1; stroke-linecap: square"/>
     </g>
     <g id="line2d_95">
      <g>
       <use xlink:href="#m6318d3a7db" x="791.278924" y="632.521395" style="fill: #5a5a5a; stroke: #5a5a5a; stroke-width: 0.8"/>
      </g>
     </g>
     <g id="text_28">
      <!-- 2012 -->
      <g style="fill: #5a5a5a" transform="translate(778.553924 647.119832) scale(0.1 -0.1)">
       <use xlink:href="#DejaVuSans-32"/>
       <use xlink:href="#DejaVuSans-30" x="63.623047"/>
       <use xlink:href="#DejaVuSans-31" x="127.246094"/>
       <use xlink:href="#DejaVuSans-32" x="190.869141"/>
      </g>
     </g>
    </g>
   </g>
   <g id="matplotlib.axis_8">
    <g id="ytick_19">
     <g id="line2d_96">
      <path d="M 35.304688 632.521395 
L 865.19952 632.521395 
" clip-path="url(#p58abd0f8b8)" style="fill: none; stroke: #ffffff; stroke-width: 1.1; stroke-linecap: square"/>
     </g>
     <g id="line2d_97">
      <g>
       <use xlink:href="#me2a73ff8ee" x="35.304688" y="632.521395" style="fill: #5a5a5a; stroke: #5a5a5a; stroke-width: 0.8"/>
      </g>
     </g>
     <g id="text_29">
      <!-- −10 -->
      <g style="fill: #5a5a5a" transform="translate(7.2 636.320614) scale(0.1 -0.1)">
       <use xlink:href="#DejaVuSans-2212"/>
       <use xlink:href="#DejaVuSans-31" x="83.789062"/>
       <use xlink:href="#DejaVuSans-30" x="147.412109"/>
      </g>
     </g>
    </g>
    <g id="ytick_20">
     <g id="line2d_98">
      <path d="M 35.304688 597.364143 
L 865.19952 597.364143 
" clip-path="url(#p58abd0f8b8)" style="fill: none; stroke: #ffffff; stroke-width: 1.1; stroke-linecap: square"/>
     </g>
     <g id="line2d_99">
      <g>
       <use xlink:href="#me2a73ff8ee" x="35.304688" y="597.364143" style="fill: #5a5a5a; stroke: #5a5a5a; stroke-width: 0.8"/>
      </g>
     </g>
     <g id="text_30">
      <!-- −5 -->
      <g style="fill: #5a5a5a" transform="translate(13.5625 601.163362) scale(0.1 -0.1)">
       <use xlink:href="#DejaVuSans-2212"/>
       <use xlink:href="#DejaVuSans-35" x="83.789062"/>
      </g>
     </g>
    </g>
    <g id="ytick_21">
     <g id="line2d_100">
      <path d="M 35.304688 562.206891 
L 865.19952 562.206891 
" clip-path="url(#p58abd0f8b8)" style="fill: none; stroke: #ffffff; stroke-width: 1.1; stroke-linecap: square"/>
     </g>
     <g id="line2d_101">
      <g>
       <use xlink:href="#me2a73ff8ee" x="35.304688" y="562.206891" style="fill: #5a5a5a; stroke: #5a5a5a; stroke-width: 0.8"/>
      </g>
     </g>
     <g id="text_31">
      <!-- 0 -->
      <g style="fill: #5a5a5a" transform="translate(21.942187 566.00611) scale(0.1 -0.1)">
       <use xlink:href="#DejaVuSans-30"/>
      </g>
     </g>
    </g>
    <g id="ytick_22">
     <g id="line2d_102">
      <path d="M 35.304688 527.04964 
L 865.19952 527.04964 
" clip-path="url(#p58abd0f8b8)" style="fill: none; stroke: #ffffff; stroke-width: 1.1; stroke-linecap: square"/>
     </g>
     <g id="line2d_103">
      <g>
       <use xlink:href="#me2a73ff8ee" x="35.304688" y="527.04964" style="fill: #5a5a5a; stroke: #5a5a5a; stroke-width: 0.8"/>
      </g>
     </g>
     <g id="text_32">
      <!-- 5 -->
      <g style="fill: #5a5a5a" transform="translate(21.942187 530.848858) scale(0.1 -0.1)">
       <use xlink:href="#DejaVuSans-35"/>
      </g>
     </g>
    </g>
    <g id="ytick_23">
     <g id="line2d_104">
      <path d="M 35.304688 491.892388 
L 865.19952 491.892388 
" clip-path="url(#p58abd0f8b8)" style="fill: none; stroke: #ffffff; stroke-width: 1.1; stroke-linecap: square"/>
     </g>
     <g id="line2d_105">
      <g>
       <use xlink:href="#me2a73ff8ee" x="35.304688" y="491.892388" style="fill: #5a5a5a; stroke: #5a5a5a; stroke-width: 0.8"/>
      </g>
     </g>
     <g id="text_33">
      <!-- 10 -->
      <g style="fill: #5a5a5a" transform="translate(15.579687 495.691607) scale(0.1 -0.1)">
       <use xlink:href="#DejaVuSans-31"/>
       <use xlink:href="#DejaVuSans-30" x="63.623047"/>
      </g>
     </g>
    </g>
   </g>
   <g id="patch_15">
    <path d="M 51.264204 562.206891 
L 54.297051 562.206891 
L 54.297051 562.195647 
L 51.264204 562.195647 
z
" clip-path="url(#p58abd0f8b8)" style="fill: #5a5a5a; stroke: #5a5a5a; stroke-width: 0.5; stroke-linejoin: miter"/>
   </g>
   <g id="patch_16">
    <path d="M 56.48744 562.206891 
L 59.520288 562.206891 
L 59.520288 559.476093 
L 56.48744 559.476093 
z
" clip-path="url(#p58abd0f8b8)" style="fill: #5a5a5a; stroke: #5a5a5a; stroke-width: 0.5; stroke-linejoin: miter"/>
   </g>
   <g id="patch_17">
    <path d="M 61.373694 562.206891 
L 64.406541 562.206891 
L 64.406541 564.712754 
L 61.373694 564.712754 
z
" clip-path="url(#p58abd0f8b8)" style="fill: #5a5a5a; stroke: #5a5a5a; stroke-width: 0.5; stroke-linejoin: miter"/>
   </g>
   <g id="patch_18">
    <path d="M 66.596931 562.206891 
L 69.629778 562.206891 
L 69.629778 570.347689 
L 66.596931 570.347689 
z
" clip-path="url(#p58abd0f8b8)" style="fill: #5a5a5a; stroke: #5a5a5a; stroke-width: 0.5; stroke-linejoin: miter"/>
   </g>
   <g id="patch_19">
    <path d="M 71.651676 562.206891 
L 74.684524 562.206891 
L 74.684524 566.362985 
L 71.651676 566.362985 
z
" clip-path="url(#p58abd0f8b8)" style="fill: #5a5a5a; stroke: #5a5a5a; stroke-width: 0.5; stroke-linejoin: miter"/>
   </g>
   <g id="patch_20">
    <path d="M 76.874913 562.206891 
L 79.907761 562.206891 
L 79.907761 571.271419 
L 76.874913 571.271419 
z
" clip-path="url(#p58abd0f8b8)" style="fill: #5a5a5a; stroke: #5a5a5a; stroke-width: 0.5; stroke-linejoin: miter"/>
   </g>
   <g id="patch_21">
    <path d="M 81.929659 562.206891 
L 84.962506 562.206891 
L 84.962506 561.657126 
L 81.929659 561.657126 
z
" clip-path="url(#p58abd0f8b8)" style="fill: #5a5a5a; stroke: #5a5a5a; stroke-width: 0.5; stroke-linejoin: miter"/>
   </g>
   <g id="patch_22">
    <path d="M 87.152896 562.206891 
L 90.185743 562.206891 
L 90.185743 549.956137 
L 87.152896 549.956137 
z
" clip-path="url(#p58abd0f8b8)" style="fill: #5a5a5a; stroke: #5a5a5a; stroke-width: 0.5; stroke-linejoin: miter"/>
   </g>
   <g id="patch_23">
    <path d="M 92.376132 562.206891 
L 95.40898 562.206891 
L 95.40898 566.706095 
L 92.376132 566.706095 
z
" clip-path="url(#p58abd0f8b8)" style="fill: #5a5a5a; stroke: #5a5a5a; stroke-width: 0.5; stroke-linejoin: miter"/>
   </g>
   <g id="patch_24">
    <path d="M 97.430878 562.206891 
L 100.463725 562.206891 
L 100.463725 567.878581 
L 97.430878 567.878581 
z
" clip-path="url(#p58abd0f8b8)" style="fill: #5a5a5a; stroke: #5a5a5a; stroke-width: 0.5; stroke-linejoin: miter"/>
   </g>
   <g id="patch_25">
    <path d="M 102.654115 562.206891 
L 105.686962 562.206891 
L 105.686962 557.729301 
L 102.654115 557.729301 
z
" clip-path="url(#p58abd0f8b8)" style="fill: #5a5a5a; stroke: #5a5a5a; stroke-width: 0.5; stroke-linejoin: miter"/>
   </g>
   <g id="patch_26">
    <path d="M 107.70886 562.206891 
L 110.741707 562.206891 
L 110.741707 558.944628 
L 107.70886 558.944628 
z
" clip-path="url(#p58abd0f8b8)" style="fill: #5a5a5a; stroke: #5a5a5a; stroke-width: 0.5; stroke-linejoin: miter"/>
   </g>
   <g id="patch_27">
    <path d="M 112.932097 562.206891 
L 115.964944 562.206891 
L 115.964944 561.243312 
L 112.932097 561.243312 
z
" clip-path="url(#p58abd0f8b8)" style="fill: #5a5a5a; stroke: #5a5a5a; stroke-width: 0.5; stroke-linejoin: miter"/>
   </g>
   <g id="patch_28">
    <path d="M 118.155334 562.206891 
L 121.188181 562.206891 
L 121.188181 570.712193 
L 118.155334 570.712193 
z
" clip-path="url(#p58abd0f8b8)" style="fill: #5a5a5a; stroke: #5a5a5a; stroke-width: 0.5; stroke-linejoin: miter"/>
   </g>
   <g id="patch_29">
    <path d="M 122.873096 562.206891 
L 125.905943 562.206891 
L 125.905943 562.474279 
L 122.873096 562.474279 
z
" clip-path="url(#p58abd0f8b8)" style="fill: #5a5a5a; stroke: #5a5a5a; stroke-width: 0.5; stroke-linejoin: miter"/>
   </g>
   <g id="patch_30">
    <path d="M 128.096333 562.206891 
L 131.12918 562.206891 
L 131.12918 555.851205 
L 128.096333 555.851205 
z
" clip-path="url(#p58abd0f8b8)" style="fill: #5a5a5a; stroke: #5a5a5a; stroke-width: 0.5; stroke-linejoin: miter"/>
   </g>
   <g id="patch_31">
    <path d="M 133.151078 562.206891 
L 136.183926 562.206891 
L 136.183926 574.494203 
L 133.151078 574.494203 
z
" clip-path="url(#p58abd0f8b8)" style="fill: #5a5a5a; stroke: #5a5a5a; stroke-width: 0.5; stroke-linejoin: miter"/>
   </g>
   <g id="patch_32">
    <path d="M 138.374315 562.206891 
L 141.407162 562.206891 
L 141.407162 566.389905 
L 138.374315 566.389905 
z
" clip-path="url(#p58abd0f8b8)" style="fill: #5a5a5a; stroke: #5a5a5a; stroke-width: 0.5; stroke-linejoin: miter"/>
   </g>
   <g id="patch_33">
    <path d="M 143.429061 562.206891 
L 146.461908 562.206891 
L 146.461908 579.585751 
L 143.429061 579.585751 
z
" clip-path="url(#p58abd0f8b8)" style="fill: #5a5a5a; stroke: #5a5a5a; stroke-width: 0.5; stroke-linejoin: miter"/>
   </g>
   <g id="patch_34">
    <path d="M 148.652297 562.206891 
L 151.685145 562.206891 
L 151.685145 573.994408 
L 148.652297 573.994408 
z
" clip-path="url(#p58abd0f8b8)" style="fill: #5a5a5a; stroke: #5a5a5a; stroke-width: 0.5; stroke-linejoin: miter"/>
   </g>
   <g id="patch_35">
    <path d="M 153.875534 562.206891 
L 156.908381 562.206891 
L 156.908381 579.04198 
L 153.875534 579.04198 
z
" clip-path="url(#p58abd0f8b8)" style="fill: #5a5a5a; stroke: #5a5a5a; stroke-width: 0.5; stroke-linejoin: miter"/>
   </g>
   <g id="patch_36">
    <path d="M 158.93028 562.206891 
L 161.963127 562.206891 
L 161.963127 564.355833 
L 158.93028 564.355833 
z
" clip-path="url(#p58abd0f8b8)" style="fill: #5a5a5a; stroke: #5a5a5a; stroke-width: 0.5; stroke-linejoin: miter"/>
   </g>
   <g id="patch_37">
    <path d="M 164.153516 562.206891 
L 167.186364 562.206891 
L 167.186364 573.792475 
L 164.153516 573.792475 
z
" clip-path="url(#p58abd0f8b8)" style="fill: #5a5a5a; stroke: #5a5a5a; stroke-width: 0.5; stroke-linejoin: miter"/>
   </g>
   <g id="patch_38">
    <path d="M 169.208262 562.206891 
L 172.241109 562.206891 
L 172.241109 559.727295 
L 169.208262 559.727295 
z
" clip-path="url(#p58abd0f8b8)" style="fill: #5a5a5a; stroke: #5a5a5a; stroke-width: 0.5; stroke-linejoin: miter"/>
   </g>
   <g id="patch_39">
    <path d="M 174.431499 562.206891 
L 177.464346 562.206891 
L 177.464346 527.023086 
L 174.431499 527.023086 
z
" clip-path="url(#p58abd0f8b8)" style="fill: #5a5a5a; stroke: #5a5a5a; stroke-width: 0.5; stroke-linejoin: miter"/>
   </g>
   <g id="patch_40">
    <path d="M 179.654736 562.206891 
L 182.687583 562.206891 
L 182.687583 563.915606 
L 179.654736 563.915606 
z
" clip-path="url(#p58abd0f8b8)" style="fill: #5a5a5a; stroke: #5a5a5a; stroke-width: 0.5; stroke-linejoin: miter"/>
   </g>
   <g id="patch_41">
    <path d="M 184.372498 562.206891 
L 187.405345 562.206891 
L 187.405345 585.212304 
L 184.372498 585.212304 
z
" clip-path="url(#p58abd0f8b8)" style="fill: #5a5a5a; stroke: #5a5a5a; stroke-width: 0.5; stroke-linejoin: miter"/>
   </g>
   <g id="patch_42">
    <path d="M 189.595735 562.206891 
L 192.628582 562.206891 
L 192.628582 567.131021 
L 189.595735 567.131021 
z
" clip-path="url(#p58abd0f8b8)" style="fill: #5a5a5a; stroke: #5a5a5a; stroke-width: 0.5; stroke-linejoin: miter"/>
   </g>
   <g id="patch_43">
    <path d="M 194.65048 562.206891 
L 197.683327 562.206891 
L 197.683327 562.650233 
L 194.65048 562.650233 
z
" clip-path="url(#p58abd0f8b8)" style="fill: #5a5a5a; stroke: #5a5a5a; stroke-width: 0.5; stroke-linejoin: miter"/>
   </g>
   <g id="patch_44">
    <path d="M 199.873717 562.206891 
L 202.906564 562.206891 
L 202.906564 561.171147 
L 199.873717 561.171147 
z
" clip-path="url(#p58abd0f8b8)" style="fill: #5a5a5a; stroke: #5a5a5a; stroke-width: 0.5; stroke-linejoin: miter"/>
   </g>
   <g id="patch_45">
    <path d="M 204.928462 562.206891 
L 207.96131 562.206891 
L 207.96131 576.193687 
L 204.928462 576.193687 
z
" clip-path="url(#p58abd0f8b8)" style="fill: #5a5a5a; stroke: #5a5a5a; stroke-width: 0.5; stroke-linejoin: miter"/>
   </g>
   <g id="patch_46">
    <path d="M 210.151699 562.206891 
L 213.184546 562.206891 
L 213.184546 610.168972 
L 210.151699 610.168972 
z
" clip-path="url(#p58abd0f8b8)" style="fill: #5a5a5a; stroke: #5a5a5a; stroke-width: 0.5; stroke-linejoin: miter"/>
   </g>
   <g id="patch_47">
    <path d="M 215.374936 562.206891 
L 218.407783 562.206891 
L 218.407783 571.151422 
L 215.374936 571.151422 
z
" clip-path="url(#p58abd0f8b8)" style="fill: #5a5a5a; stroke: #5a5a5a; stroke-width: 0.5; stroke-linejoin: miter"/>
   </g>
   <g id="patch_48">
    <path d="M 220.429681 562.206891 
L 223.462529 562.206891 
L 223.462529 569.60038 
L 220.429681 569.60038 
z
" clip-path="url(#p58abd0f8b8)" style="fill: #5a5a5a; stroke: #5a5a5a; stroke-width: 0.5; stroke-linejoin: miter"/>
   </g>
   <g id="patch_49">
    <path d="M 225.652918 562.206891 
L 228.685766 562.206891 
L 228.685766 552.509339 
L 225.652918 552.509339 
z
" clip-path="url(#p58abd0f8b8)" style="fill: #5a5a5a; stroke: #5a5a5a; stroke-width: 0.5; stroke-linejoin: miter"/>
   </g>
   <g id="patch_50">
    <path d="M 230.707664 562.206891 
L 233.740511 562.206891 
L 233.740511 569.588473 
L 230.707664 569.588473 
z
" clip-path="url(#p58abd0f8b8)" style="fill: #5a5a5a; stroke: #5a5a5a; stroke-width: 0.5; stroke-linejoin: miter"/>
   </g>
   <g id="patch_51">
    <path d="M 235.930901 562.206891 
L 238.963748 562.206891 
L 238.963748 562.504169 
L 235.930901 562.504169 
z
" clip-path="url(#p58abd0f8b8)" style="fill: #5a5a5a; stroke: #5a5a5a; stroke-width: 0.5; stroke-linejoin: miter"/>
   </g>
   <g id="patch_52">
    <path d="M 241.154137 562.206891 
L 244.186985 562.206891 
L 244.186985 554.122785 
L 241.154137 554.122785 
z
" clip-path="url(#p58abd0f8b8)" style="fill: #5a5a5a; stroke: #5a5a5a; stroke-width: 0.5; stroke-linejoin: miter"/>
   </g>
   <g id="patch_53">
    <path d="M 245.8719 562.206891 
L 248.904747 562.206891 
L 248.904747 567.541516 
L 245.8719 567.541516 
z
" clip-path="url(#p58abd0f8b8)" style="fill: #5a5a5a; stroke: #5a5a5a; stroke-width: 0.5; stroke-linejoin: miter"/>
   </g>
   <g id="patch_54">
    <path d="M 251.095137 562.206891 
L 254.127984 562.206891 
L 254.127984 563.227946 
L 251.095137 563.227946 
z
" clip-path="url(#p58abd0f8b8)" style="fill: #5a5a5a; stroke: #5a5a5a; stroke-width: 0.5; stroke-linejoin: miter"/>
   </g>
   <g id="patch_55">
    <path d="M 256.149882 562.206891 
L 259.182729 562.206891 
L 259.182729 561.197151 
L 256.149882 561.197151 
z
" clip-path="url(#p58abd0f8b8)" style="fill: #5a5a5a; stroke: #5a5a5a; stroke-width: 0.5; stroke-linejoin: miter"/>
   </g>
   <g id="patch_56">
    <path d="M 261.373119 562.206891 
L 264.405966 562.206891 
L 264.405966 561.62387 
L 261.373119 561.62387 
z
" clip-path="url(#p58abd0f8b8)" style="fill: #5a5a5a; stroke: #5a5a5a; stroke-width: 0.5; stroke-linejoin: miter"/>
   </g>
   <g id="patch_57">
    <path d="M 266.427864 562.206891 
L 269.460711 562.206891 
L 269.460711 573.404986 
L 266.427864 573.404986 
z
" clip-path="url(#p58abd0f8b8)" style="fill: #5a5a5a; stroke: #5a5a5a; stroke-width: 0.5; stroke-linejoin: miter"/>
   </g>
   <g id="patch_58">
    <path d="M 271.651101 562.206891 
L 274.683948 562.206891 
L 274.683948 561.510902 
L 271.651101 561.510902 
z
" clip-path="url(#p58abd0f8b8)" style="fill: #5a5a5a; stroke: #5a5a5a; stroke-width: 0.5; stroke-linejoin: miter"/>
   </g>
   <g id="patch_59">
    <path d="M 276.874338 562.206891 
L 279.907185 562.206891 
L 279.907185 549.786042 
L 276.874338 549.786042 
z
" clip-path="url(#p58abd0f8b8)" style="fill: #5a5a5a; stroke: #5a5a5a; stroke-width: 0.5; stroke-linejoin: miter"/>
   </g>
   <g id="patch_60">
    <path d="M 281.929083 562.206891 
L 284.961931 562.206891 
L 284.961931 576.349164 
L 281.929083 576.349164 
z
" clip-path="url(#p58abd0f8b8)" style="fill: #5a5a5a; stroke: #5a5a5a; stroke-width: 0.5; stroke-linejoin: miter"/>
   </g>
   <g id="patch_61">
    <path d="M 287.15232 562.206891 
L 290.185167 562.206891 
L 290.185167 554.351373 
L 287.15232 554.351373 
z
" clip-path="url(#p58abd0f8b8)" style="fill: #5a5a5a; stroke: #5a5a5a; stroke-width: 0.5; stroke-linejoin: miter"/>
   </g>
   <g id="patch_62">
    <path d="M 292.207066 562.206891 
L 295.239913 562.206891 
L 295.239913 507.676867 
L 292.207066 507.676867 
z
" clip-path="url(#p58abd0f8b8)" style="fill: #5a5a5a; stroke: #5a5a5a; stroke-width: 0.5; stroke-linejoin: miter"/>
   </g>
   <g id="patch_63">
    <path d="M 297.430302 562.206891 
L 300.46315 562.206891 
L 300.46315 568.070499 
L 297.430302 568.070499 
z
" clip-path="url(#p58abd0f8b8)" style="fill: #5a5a5a; stroke: #5a5a5a; stroke-width: 0.5; stroke-linejoin: miter"/>
   </g>
   <g id="patch_64">
    <path d="M 302.653539 562.206891 
L 305.686387 562.206891 
L 305.686387 543.921313 
L 302.653539 543.921313 
z
" clip-path="url(#p58abd0f8b8)" style="fill: #5a5a5a; stroke: #5a5a5a; stroke-width: 0.5; stroke-linejoin: miter"/>
   </g>
   <g id="patch_65">
    <path d="M 307.539793 562.206891 
L 310.57264 562.206891 
L 310.57264 555.239163 
L 307.539793 555.239163 
z
" clip-path="url(#p58abd0f8b8)" style="fill: #5a5a5a; stroke: #5a5a5a; stroke-width: 0.5; stroke-linejoin: miter"/>
   </g>
   <g id="patch_66">
    <path d="M 312.76303 562.206891 
L 315.795877 562.206891 
L 315.795877 573.169454 
L 312.76303 573.169454 
z
" clip-path="url(#p58abd0f8b8)" style="fill: #5a5a5a; stroke: #5a5a5a; stroke-width: 0.5; stroke-linejoin: miter"/>
   </g>
   <g id="patch_67">
    <path d="M 317.817775 562.206891 
L 320.850623 562.206891 
L 320.850623 561.525747 
L 317.817775 561.525747 
z
" clip-path="url(#p58abd0f8b8)" style="fill: #5a5a5a; stroke: #5a5a5a; stroke-width: 0.5; stroke-linejoin: miter"/>
   </g>
   <g id="patch_68">
    <path d="M 323.041012 562.206891 
L 326.073859 562.206891 
L 326.073859 556.935438 
L 323.041012 556.935438 
z
" clip-path="url(#p58abd0f8b8)" style="fill: #5a5a5a; stroke: #5a5a5a; stroke-width: 0.5; stroke-linejoin: miter"/>
   </g>
   <g id="patch_69">
    <path d="M 328.095758 562.206891 
L 331.128605 562.206891 
L 331.128605 563.932527 
L 328.095758 563.932527 
z
" clip-path="url(#p58abd0f8b8)" style="fill: #5a5a5a; stroke: #5a5a5a; stroke-width: 0.5; stroke-linejoin: miter"/>
   </g>
   <g id="patch_70">
    <path d="M 333.318994 562.206891 
L 336.351842 562.206891 
L 336.351842 555.964487 
L 333.318994 555.964487 
z
" clip-path="url(#p58abd0f8b8)" style="fill: #5a5a5a; stroke: #5a5a5a; stroke-width: 0.5; stroke-linejoin: miter"/>
   </g>
   <g id="patch_71">
    <path d="M 338.542231 562.206891 
L 341.575079 562.206891 
L 341.575079 562.814919 
L 338.542231 562.814919 
z
" clip-path="url(#p58abd0f8b8)" style="fill: #5a5a5a; stroke: #5a5a5a; stroke-width: 0.5; stroke-linejoin: miter"/>
   </g>
   <g id="patch_72">
    <path d="M 343.596977 562.206891 
L 346.629824 562.206891 
L 346.629824 556.107658 
L 343.596977 556.107658 
z
" clip-path="url(#p58abd0f8b8)" style="fill: #5a5a5a; stroke: #5a5a5a; stroke-width: 0.5; stroke-linejoin: miter"/>
   </g>
   <g id="patch_73">
    <path d="M 348.820214 562.206891 
L 351.853061 562.206891 
L 351.853061 589.839933 
L 348.820214 589.839933 
z
" clip-path="url(#p58abd0f8b8)" style="fill: #5a5a5a; stroke: #5a5a5a; stroke-width: 0.5; stroke-linejoin: miter"/>
   </g>
   <g id="patch_74">
    <path d="M 353.874959 562.206891 
L 356.907806 562.206891 
L 356.907806 568.383043 
L 353.874959 568.383043 
z
" clip-path="url(#p58abd0f8b8)" style="fill: #5a5a5a; stroke: #5a5a5a; stroke-width: 0.5; stroke-linejoin: miter"/>
   </g>
   <g id="patch_75">
    <path d="M 359.098196 562.206891 
L 362.131043 562.206891 
L 362.131043 560.350025 
L 359.098196 560.350025 
z
" clip-path="url(#p58abd0f8b8)" style="fill: #5a5a5a; stroke: #5a5a5a; stroke-width: 0.5; stroke-linejoin: miter"/>
   </g>
   <g id="patch_76">
    <path d="M 364.321433 562.206891 
L 367.35428 562.206891 
L 367.35428 566.441933 
L 364.321433 566.441933 
z
" clip-path="url(#p58abd0f8b8)" style="fill: #5a5a5a; stroke: #5a5a5a; stroke-width: 0.5; stroke-linejoin: miter"/>
   </g>
   <g id="patch_77">
    <path d="M 369.039195 562.206891 
L 372.072042 562.206891 
L 372.072042 561.043545 
L 369.039195 561.043545 
z
" clip-path="url(#p58abd0f8b8)" style="fill: #5a5a5a; stroke: #5a5a5a; stroke-width: 0.5; stroke-linejoin: miter"/>
   </g>
   <g id="patch_78">
    <path d="M 374.262432 562.206891 
L 377.295279 562.206891 
L 377.295279 573.058901 
L 374.262432 573.058901 
z
" clip-path="url(#p58abd0f8b8)" style="fill: #5a5a5a; stroke: #5a5a5a; stroke-width: 0.5; stroke-linejoin: miter"/>
   </g>
   <g id="patch_79">
    <path d="M 379.317177 562.206891 
L 382.350024 562.206891 
L 382.350024 567.502221 
L 379.317177 567.502221 
z
" clip-path="url(#p58abd0f8b8)" style="fill: #5a5a5a; stroke: #5a5a5a; stroke-width: 0.5; stroke-linejoin: miter"/>
   </g>
   <g id="patch_80">
    <path d="M 384.540414 562.206891 
L 387.573261 562.206891 
L 387.573261 564.000296 
L 384.540414 564.000296 
z
" clip-path="url(#p58abd0f8b8)" style="fill: #5a5a5a; stroke: #5a5a5a; stroke-width: 0.5; stroke-linejoin: miter"/>
   </g>
   <g id="patch_81">
    <path d="M 389.595159 562.206891 
L 392.628007 562.206891 
L 392.628007 553.991394 
L 389.595159 553.991394 
z
" clip-path="url(#p58abd0f8b8)" style="fill: #5a5a5a; stroke: #5a5a5a; stroke-width: 0.5; stroke-linejoin: miter"/>
   </g>
   <g id="patch_82">
    <path d="M 394.818396 562.206891 
L 397.851244 562.206891 
L 397.851244 551.738548 
L 394.818396 551.738548 
z
" clip-path="url(#p58abd0f8b8)" style="fill: #5a5a5a; stroke: #5a5a5a; stroke-width: 0.5; stroke-linejoin: miter"/>
   </g>
   <g id="patch_83">
    <path d="M 400.041633 562.206891 
L 403.07448 562.206891 
L 403.07448 574.305107 
L 400.041633 574.305107 
z
" clip-path="url(#p58abd0f8b8)" style="fill: #5a5a5a; stroke: #5a5a5a; stroke-width: 0.5; stroke-linejoin: miter"/>
   </g>
   <g id="patch_84">
    <path d="M 405.096379 562.206891 
L 408.129226 562.206891 
L 408.129226 569.470626 
L 405.096379 569.470626 
z
" clip-path="url(#p58abd0f8b8)" style="fill: #5a5a5a; stroke: #5a5a5a; stroke-width: 0.5; stroke-linejoin: miter"/>
   </g>
   <g id="patch_85">
    <path d="M 410.319615 562.206891 
L 413.352463 562.206891 
L 413.352463 556.293621 
L 410.319615 556.293621 
z
" clip-path="url(#p58abd0f8b8)" style="fill: #5a5a5a; stroke: #5a5a5a; stroke-width: 0.5; stroke-linejoin: miter"/>
   </g>
   <g id="patch_86">
    <path d="M 415.374361 562.206891 
L 418.407208 562.206891 
L 418.407208 580.419372 
L 415.374361 580.419372 
z
" clip-path="url(#p58abd0f8b8)" style="fill: #5a5a5a; stroke: #5a5a5a; stroke-width: 0.5; stroke-linejoin: miter"/>
   </g>
   <g id="patch_87">
    <path d="M 420.597598 562.206891 
L 423.630445 562.206891 
L 423.630445 566.440674 
L 420.597598 566.440674 
z
" clip-path="url(#p58abd0f8b8)" style="fill: #5a5a5a; stroke: #5a5a5a; stroke-width: 0.5; stroke-linejoin: miter"/>
   </g>
   <g id="patch_88">
    <path d="M 425.820835 562.206891 
L 428.853682 562.206891 
L 428.853682 563.09618 
L 425.820835 563.09618 
z
" clip-path="url(#p58abd0f8b8)" style="fill: #5a5a5a; stroke: #5a5a5a; stroke-width: 0.5; stroke-linejoin: miter"/>
   </g>
   <g id="patch_89">
    <path d="M 430.538597 562.206891 
L 433.571444 562.206891 
L 433.571444 550.716661 
L 430.538597 550.716661 
z
" clip-path="url(#p58abd0f8b8)" style="fill: #5a5a5a; stroke: #5a5a5a; stroke-width: 0.5; stroke-linejoin: miter"/>
   </g>
   <g id="patch_90">
    <path d="M 435.761834 562.206891 
L 438.794681 562.206891 
L 438.794681 555.905129 
L 435.761834 555.905129 
z
" clip-path="url(#p58abd0f8b8)" style="fill: #5a5a5a; stroke: #5a5a5a; stroke-width: 0.5; stroke-linejoin: miter"/>
   </g>
   <g id="patch_91">
    <path d="M 440.816579 562.206891 
L 443.849426 562.206891 
L 443.849426 565.197912 
L 440.816579 565.197912 
z
" clip-path="url(#p58abd0f8b8)" style="fill: #5a5a5a; stroke: #5a5a5a; stroke-width: 0.5; stroke-linejoin: miter"/>
   </g>
   <g id="patch_92">
    <path d="M 446.039816 562.206891 
L 449.072663 562.206891 
L 449.072663 528.309315 
L 446.039816 528.309315 
z
" clip-path="url(#p58abd0f8b8)" style="fill: #5a5a5a; stroke: #5a5a5a; stroke-width: 0.5; stroke-linejoin: miter"/>
   </g>
   <g id="patch_93">
    <path d="M 451.094561 562.206891 
L 454.127409 562.206891 
L 454.127409 564.493899 
L 451.094561 564.493899 
z
" clip-path="url(#p58abd0f8b8)" style="fill: #5a5a5a; stroke: #5a5a5a; stroke-width: 0.5; stroke-linejoin: miter"/>
   </g>
   <g id="patch_94">
    <path d="M 456.317798 562.206891 
L 459.350645 562.206891 
L 459.350645 548.280484 
L 456.317798 548.280484 
z
" clip-path="url(#p58abd0f8b8)" style="fill: #5a5a5a; stroke: #5a5a5a; stroke-width: 0.5; stroke-linejoin: miter"/>
   </g>
   <g id="patch_95">
    <path d="M 461.541035 562.206891 
L 464.573882 562.206891 
L 464.573882 566.119418 
L 461.541035 566.119418 
z
" clip-path="url(#p58abd0f8b8)" style="fill: #5a5a5a; stroke: #5a5a5a; stroke-width: 0.5; stroke-linejoin: miter"/>
   </g>
   <g id="patch_96">
    <path d="M 466.59578 562.206891 
L 469.628628 562.206891 
L 469.628628 564.982799 
L 466.59578 564.982799 
z
" clip-path="url(#p58abd0f8b8)" style="fill: #5a5a5a; stroke: #5a5a5a; stroke-width: 0.5; stroke-linejoin: miter"/>
   </g>
   <g id="patch_97">
    <path d="M 471.819017 562.206891 
L 474.851864 562.206891 
L 474.851864 558.983915 
L 471.819017 558.983915 
z
" clip-path="url(#p58abd0f8b8)" style="fill: #5a5a5a; stroke: #5a5a5a; stroke-width: 0.5; stroke-linejoin: miter"/>
   </g>
   <g id="patch_98">
    <path d="M 476.873763 562.206891 
L 479.90661 562.206891 
L 479.90661 563.31084 
L 476.873763 563.31084 
z
" clip-path="url(#p58abd0f8b8)" style="fill: #5a5a5a; stroke: #5a5a5a; stroke-width: 0.5; stroke-linejoin: miter"/>
   </g>
   <g id="patch_99">
    <path d="M 482.097 562.206891 
L 485.129847 562.206891 
L 485.129847 564.010244 
L 482.097 564.010244 
z
" clip-path="url(#p58abd0f8b8)" style="fill: #5a5a5a; stroke: #5a5a5a; stroke-width: 0.5; stroke-linejoin: miter"/>
   </g>
   <g id="patch_100">
    <path d="M 487.320236 562.206891 
L 490.353084 562.206891 
L 490.353084 572.390452 
L 487.320236 572.390452 
z
" clip-path="url(#p58abd0f8b8)" style="fill: #5a5a5a; stroke: #5a5a5a; stroke-width: 0.5; stroke-linejoin: miter"/>
   </g>
   <g id="patch_101">
    <path d="M 492.037999 562.206891 
L 495.070846 562.206891 
L 495.070846 562.312208 
L 492.037999 562.312208 
z
" clip-path="url(#p58abd0f8b8)" style="fill: #5a5a5a; stroke: #5a5a5a; stroke-width: 0.5; stroke-linejoin: miter"/>
   </g>
   <g id="patch_102">
    <path d="M 497.261236 562.206891 
L 500.294083 562.206891 
L 500.294083 566.261617 
L 497.261236 566.261617 
z
" clip-path="url(#p58abd0f8b8)" style="fill: #5a5a5a; stroke: #5a5a5a; stroke-width: 0.5; stroke-linejoin: miter"/>
   </g>
   <g id="patch_103">
    <path d="M 502.315981 562.206891 
L 505.348828 562.206891 
L 505.348828 551.547451 
L 502.315981 551.547451 
z
" clip-path="url(#p58abd0f8b8)" style="fill: #5a5a5a; stroke: #5a5a5a; stroke-width: 0.5; stroke-linejoin: miter"/>
   </g>
   <g id="patch_104">
    <path d="M 507.539218 562.206891 
L 510.572065 562.206891 
L 510.572065 556.237084 
L 507.539218 556.237084 
z
" clip-path="url(#p58abd0f8b8)" style="fill: #5a5a5a; stroke: #5a5a5a; stroke-width: 0.5; stroke-linejoin: miter"/>
   </g>
   <g id="patch_105">
    <path d="M 512.593963 562.206891 
L 515.62681 562.206891 
L 515.62681 562.427585 
L 512.593963 562.427585 
z
" clip-path="url(#p58abd0f8b8)" style="fill: #5a5a5a; stroke: #5a5a5a; stroke-width: 0.5; stroke-linejoin: miter"/>
   </g>
   <g id="patch_106">
    <path d="M 517.8172 562.206891 
L 520.850047 562.206891 
L 520.850047 556.097297 
L 517.8172 556.097297 
z
" clip-path="url(#p58abd0f8b8)" style="fill: #5a5a5a; stroke: #5a5a5a; stroke-width: 0.5; stroke-linejoin: miter"/>
   </g>
   <g id="patch_107">
    <path d="M 523.040437 562.206891 
L 526.073284 562.206891 
L 526.073284 565.3136 
L 523.040437 565.3136 
z
" clip-path="url(#p58abd0f8b8)" style="fill: #5a5a5a; stroke: #5a5a5a; stroke-width: 0.5; stroke-linejoin: miter"/>
   </g>
   <g id="patch_108">
    <path d="M 528.095182 562.206891 
L 531.128029 562.206891 
L 531.128029 552.589525 
L 528.095182 552.589525 
z
" clip-path="url(#p58abd0f8b8)" style="fill: #5a5a5a; stroke: #5a5a5a; stroke-width: 0.5; stroke-linejoin: miter"/>
   </g>
   <g id="patch_109">
    <path d="M 533.318419 562.206891 
L 536.351266 562.206891 
L 536.351266 562.256248 
L 533.318419 562.256248 
z
" clip-path="url(#p58abd0f8b8)" style="fill: #5a5a5a; stroke: #5a5a5a; stroke-width: 0.5; stroke-linejoin: miter"/>
   </g>
   <g id="patch_110">
    <path d="M 538.373164 562.206891 
L 541.406012 562.206891 
L 541.406012 556.87426 
L 538.373164 556.87426 
z
" clip-path="url(#p58abd0f8b8)" style="fill: #5a5a5a; stroke: #5a5a5a; stroke-width: 0.5; stroke-linejoin: miter"/>
   </g>
   <g id="patch_111">
    <path d="M 543.596401 562.206891 
L 546.629249 562.206891 
L 546.629249 574.006799 
L 543.596401 574.006799 
z
" clip-path="url(#p58abd0f8b8)" style="fill: #5a5a5a; stroke: #5a5a5a; stroke-width: 0.5; stroke-linejoin: miter"/>
   </g>
   <g id="patch_112">
    <path d="M 548.819638 562.206891 
L 551.852485 562.206891 
L 551.852485 559.037929 
L 548.819638 559.037929 
z
" clip-path="url(#p58abd0f8b8)" style="fill: #5a5a5a; stroke: #5a5a5a; stroke-width: 0.5; stroke-linejoin: miter"/>
   </g>
   <g id="patch_113">
    <path d="M 553.705892 562.206891 
L 556.738739 562.206891 
L 556.738739 577.638572 
L 553.705892 577.638572 
z
" clip-path="url(#p58abd0f8b8)" style="fill: #5a5a5a; stroke: #5a5a5a; stroke-width: 0.5; stroke-linejoin: miter"/>
   </g>
   <g id="patch_114">
    <path d="M 558.929129 562.206891 
L 561.961976 562.206891 
L 561.961976 580.8116 
L 558.929129 580.8116 
z
" clip-path="url(#p58abd0f8b8)" style="fill: #5a5a5a; stroke: #5a5a5a; stroke-width: 0.5; stroke-linejoin: miter"/>
   </g>
   <g id="patch_115">
    <path d="M 563.983874 562.206891 
L 567.016722 562.206891 
L 567.016722 564.99008 
L 563.983874 564.99008 
z
" clip-path="url(#p58abd0f8b8)" style="fill: #5a5a5a; stroke: #5a5a5a; stroke-width: 0.5; stroke-linejoin: miter"/>
   </g>
   <g id="patch_116">
    <path d="M 569.207111 562.206891 
L 572.239958 562.206891 
L 572.239958 527.541179 
L 569.207111 527.541179 
z
" clip-path="url(#p58abd0f8b8)" style="fill: #5a5a5a; stroke: #5a5a5a; stroke-width: 0.5; stroke-linejoin: miter"/>
   </g>
   <g id="patch_117">
    <path d="M 574.261857 562.206891 
L 577.294704 562.206891 
L 577.294704 560.707304 
L 574.261857 560.707304 
z
" clip-path="url(#p58abd0f8b8)" style="fill: #5a5a5a; stroke: #5a5a5a; stroke-width: 0.5; stroke-linejoin: miter"/>
   </g>
   <g id="patch_118">
    <path d="M 579.485093 562.206891 
L 582.517941 562.206891 
L 582.517941 541.687828 
L 579.485093 541.687828 
z
" clip-path="url(#p58abd0f8b8)" style="fill: #5a5a5a; stroke: #5a5a5a; stroke-width: 0.5; stroke-linejoin: miter"/>
   </g>
   <g id="patch_119">
    <path d="M 584.70833 562.206891 
L 587.741177 562.206891 
L 587.741177 569.809578 
L 584.70833 569.809578 
z
" clip-path="url(#p58abd0f8b8)" style="fill: #5a5a5a; stroke: #5a5a5a; stroke-width: 0.5; stroke-linejoin: miter"/>
   </g>
   <g id="patch_120">
    <path d="M 589.763076 562.206891 
L 592.795923 562.206891 
L 592.795923 567.910288 
L 589.763076 567.910288 
z
" clip-path="url(#p58abd0f8b8)" style="fill: #5a5a5a; stroke: #5a5a5a; stroke-width: 0.5; stroke-linejoin: miter"/>
   </g>
   <g id="patch_121">
    <path d="M 594.986312 562.206891 
L 598.01916 562.206891 
L 598.01916 560.329317 
L 594.986312 560.329317 
z
" clip-path="url(#p58abd0f8b8)" style="fill: #5a5a5a; stroke: #5a5a5a; stroke-width: 0.5; stroke-linejoin: miter"/>
   </g>
   <g id="patch_122">
    <path d="M 600.041058 562.206891 
L 603.073905 562.206891 
L 603.073905 557.700313 
L 600.041058 557.700313 
z
" clip-path="url(#p58abd0f8b8)" style="fill: #5a5a5a; stroke: #5a5a5a; stroke-width: 0.5; stroke-linejoin: miter"/>
   </g>
   <g id="patch_123">
    <path d="M 605.264295 562.206891 
L 608.297142 562.206891 
L 608.297142 563.819399 
L 605.264295 563.819399 
z
" clip-path="url(#p58abd0f8b8)" style="fill: #5a5a5a; stroke: #5a5a5a; stroke-width: 0.5; stroke-linejoin: miter"/>
   </g>
   <g id="patch_124">
    <path d="M 610.487532 562.206891 
L 613.520379 562.206891 
L 613.520379 564.089277 
L 610.487532 564.089277 
z
" clip-path="url(#p58abd0f8b8)" style="fill: #5a5a5a; stroke: #5a5a5a; stroke-width: 0.5; stroke-linejoin: miter"/>
   </g>
   <g id="patch_125">
    <path d="M 615.205294 562.206891 
L 618.238141 562.206891 
L 618.238141 555.785758 
L 615.205294 555.785758 
z
" clip-path="url(#p58abd0f8b8)" style="fill: #5a5a5a; stroke: #5a5a5a; stroke-width: 0.5; stroke-linejoin: miter"/>
   </g>
   <g id="patch_126">
    <path d="M 620.428531 562.206891 
L 623.461378 562.206891 
L 623.461378 557.454475 
L 620.428531 557.454475 
z
" clip-path="url(#p58abd0f8b8)" style="fill: #5a5a5a; stroke: #5a5a5a; stroke-width: 0.5; stroke-linejoin: miter"/>
   </g>
   <g id="patch_127">
    <path d="M 625.483276 562.206891 
L 628.516123 562.206891 
L 628.516123 571.655604 
L 625.483276 571.655604 
z
" clip-path="url(#p58abd0f8b8)" style="fill: #5a5a5a; stroke: #5a5a5a; stroke-width: 0.5; stroke-linejoin: miter"/>
   </g>
   <g id="patch_128">
    <path d="M 630.706513 562.206891 
L 633.73936 562.206891 
L 633.73936 562.930679 
L 630.706513 562.930679 
z
" clip-path="url(#p58abd0f8b8)" style="fill: #5a5a5a; stroke: #5a5a5a; stroke-width: 0.5; stroke-linejoin: miter"/>
   </g>
   <g id="patch_129">
    <path d="M 635.761258 562.206891 
L 638.794106 562.206891 
L 638.794106 561.884338 
L 635.761258 561.884338 
z
" clip-path="url(#p58abd0f8b8)" style="fill: #5a5a5a; stroke: #5a5a5a; stroke-width: 0.5; stroke-linejoin: miter"/>
   </g>
   <g id="patch_130">
    <path d="M 640.984495 562.206891 
L 644.017342 562.206891 
L 644.017342 571.845815 
L 640.984495 571.845815 
z
" clip-path="url(#p58abd0f8b8)" style="fill: #5a5a5a; stroke: #5a5a5a; stroke-width: 0.5; stroke-linejoin: miter"/>
   </g>
   <g id="patch_131">
    <path d="M 646.207732 562.206891 
L 649.240579 562.206891 
L 649.240579 559.831732 
L 646.207732 559.831732 
z
" clip-path="url(#p58abd0f8b8)" style="fill: #5a5a5a; stroke: #5a5a5a; stroke-width: 0.5; stroke-linejoin: miter"/>
   </g>
   <g id="patch_132">
    <path d="M 651.262477 562.206891 
L 654.295325 562.206891 
L 654.295325 570.049373 
L 651.262477 570.049373 
z
" clip-path="url(#p58abd0f8b8)" style="fill: #5a5a5a; stroke: #5a5a5a; stroke-width: 0.5; stroke-linejoin: miter"/>
   </g>
   <g id="patch_133">
    <path d="M 656.485714 562.206891 
L 659.518562 562.206891 
L 659.518562 613.088669 
L 656.485714 613.088669 
z
" clip-path="url(#p58abd0f8b8)" style="fill: #5a5a5a; stroke: #5a5a5a; stroke-width: 0.5; stroke-linejoin: miter"/>
   </g>
   <g id="patch_134">
    <path d="M 661.54046 562.206891 
L 664.573307 562.206891 
L 664.573307 626.540656 
L 661.54046 626.540656 
z
" clip-path="url(#p58abd0f8b8)" style="fill: #5a5a5a; stroke: #5a5a5a; stroke-width: 0.5; stroke-linejoin: miter"/>
   </g>
   <g id="patch_135">
    <path d="M 666.763697 562.206891 
L 669.796544 562.206891 
L 669.796544 611.313849 
L 666.763697 611.313849 
z
" clip-path="url(#p58abd0f8b8)" style="fill: #5a5a5a; stroke: #5a5a5a; stroke-width: 0.5; stroke-linejoin: miter"/>
   </g>
   <g id="patch_136">
    <path d="M 671.986933 562.206891 
L 675.019781 562.206891 
L 675.019781 567.609414 
L 671.986933 567.609414 
z
" clip-path="url(#p58abd0f8b8)" style="fill: #5a5a5a; stroke: #5a5a5a; stroke-width: 0.5; stroke-linejoin: miter"/>
   </g>
   <g id="patch_137">
    <path d="M 676.704696 562.206891 
L 679.737543 562.206891 
L 679.737543 563.29109 
L 676.704696 563.29109 
z
" clip-path="url(#p58abd0f8b8)" style="fill: #5a5a5a; stroke: #5a5a5a; stroke-width: 0.5; stroke-linejoin: miter"/>
   </g>
   <g id="patch_138">
    <path d="M 681.927933 562.206891 
L 684.96078 562.206891 
L 684.96078 580.468061 
L 681.927933 580.468061 
z
" clip-path="url(#p58abd0f8b8)" style="fill: #5a5a5a; stroke: #5a5a5a; stroke-width: 0.5; stroke-linejoin: miter"/>
   </g>
   <g id="patch_139">
    <path d="M 686.982678 562.206891 
L 690.015525 562.206891 
L 690.015525 572.548958 
L 686.982678 572.548958 
z
" clip-path="url(#p58abd0f8b8)" style="fill: #5a5a5a; stroke: #5a5a5a; stroke-width: 0.5; stroke-linejoin: miter"/>
   </g>
   <g id="patch_140">
    <path d="M 692.205915 562.206891 
L 695.238762 562.206891 
L 695.238762 558.890214 
L 692.205915 558.890214 
z
" clip-path="url(#p58abd0f8b8)" style="fill: #5a5a5a; stroke: #5a5a5a; stroke-width: 0.5; stroke-linejoin: miter"/>
   </g>
   <g id="patch_141">
    <path d="M 697.26066 562.206891 
L 700.293507 562.206891 
L 700.293507 581.663879 
L 697.26066 581.663879 
z
" clip-path="url(#p58abd0f8b8)" style="fill: #5a5a5a; stroke: #5a5a5a; stroke-width: 0.5; stroke-linejoin: miter"/>
   </g>
   <g id="patch_142">
    <path d="M 702.483897 562.206891 
L 705.516744 562.206891 
L 705.516744 482.747346 
L 702.483897 482.747346 
z
" clip-path="url(#p58abd0f8b8)" style="fill: #5a5a5a; stroke: #5a5a5a; stroke-width: 0.5; stroke-linejoin: miter"/>
   </g>
   <g id="patch_143">
    <path d="M 707.707134 562.206891 
L 710.739981 562.206891 
L 710.739981 578.167759 
L 707.707134 578.167759 
z
" clip-path="url(#p58abd0f8b8)" style="fill: #5a5a5a; stroke: #5a5a5a; stroke-width: 0.5; stroke-linejoin: miter"/>
   </g>
   <g id="patch_144">
    <path d="M 712.761879 562.206891 
L 715.794727 562.206891 
L 715.794727 555.289631 
L 712.761879 555.289631 
z
" clip-path="url(#p58abd0f8b8)" style="fill: #5a5a5a; stroke: #5a5a5a; stroke-width: 0.5; stroke-linejoin: miter"/>
   </g>
   <g id="patch_145">
    <path d="M 717.985116 562.206891 
L 721.017963 562.206891 
L 721.017963 569.935483 
L 717.985116 569.935483 
z
" clip-path="url(#p58abd0f8b8)" style="fill: #5a5a5a; stroke: #5a5a5a; stroke-width: 0.5; stroke-linejoin: miter"/>
   </g>
   <g id="patch_146">
    <path d="M 723.039862 562.206891 
L 726.072709 562.206891 
L 726.072709 555.086223 
L 723.039862 555.086223 
z
" clip-path="url(#p58abd0f8b8)" style="fill: #5a5a5a; stroke: #5a5a5a; stroke-width: 0.5; stroke-linejoin: miter"/>
   </g>
   <g id="patch_147">
    <path d="M 728.263098 562.206891 
L 731.295946 562.206891 
L 731.295946 561.009881 
L 728.263098 561.009881 
z
" clip-path="url(#p58abd0f8b8)" style="fill: #5a5a5a; stroke: #5a5a5a; stroke-width: 0.5; stroke-linejoin: miter"/>
   </g>
   <g id="patch_148">
    <path d="M 733.486335 562.206891 
L 736.519183 562.206891 
L 736.519183 576.254924 
L 733.486335 576.254924 
z
" clip-path="url(#p58abd0f8b8)" style="fill: #5a5a5a; stroke: #5a5a5a; stroke-width: 0.5; stroke-linejoin: miter"/>
   </g>
   <g id="patch_149">
    <path d="M 738.204098 562.206891 
L 741.236945 562.206891 
L 741.236945 550.788566 
L 738.204098 550.788566 
z
" clip-path="url(#p58abd0f8b8)" style="fill: #5a5a5a; stroke: #5a5a5a; stroke-width: 0.5; stroke-linejoin: miter"/>
   </g>
   <g id="patch_150">
    <path d="M 743.427335 562.206891 
L 746.460182 562.206891 
L 746.460182 549.028411 
L 743.427335 549.028411 
z
" clip-path="url(#p58abd0f8b8)" style="fill: #5a5a5a; stroke: #5a5a5a; stroke-width: 0.5; stroke-linejoin: miter"/>
   </g>
   <g id="patch_151">
    <path d="M 748.48208 562.206891 
L 751.514927 562.206891 
L 751.514927 562.808407 
L 748.48208 562.808407 
z
" clip-path="url(#p58abd0f8b8)" style="fill: #5a5a5a; stroke: #5a5a5a; stroke-width: 0.5; stroke-linejoin: miter"/>
   </g>
   <g id="patch_152">
    <path d="M 753.705317 562.206891 
L 756.738164 562.206891 
L 756.738164 564.710729 
L 753.705317 564.710729 
z
" clip-path="url(#p58abd0f8b8)" style="fill: #5a5a5a; stroke: #5a5a5a; stroke-width: 0.5; stroke-linejoin: miter"/>
   </g>
   <g id="patch_153">
    <path d="M 758.760062 562.206891 
L 761.792909 562.206891 
L 761.792909 563.668217 
L 758.760062 563.668217 
z
" clip-path="url(#p58abd0f8b8)" style="fill: #5a5a5a; stroke: #5a5a5a; stroke-width: 0.5; stroke-linejoin: miter"/>
   </g>
   <g id="patch_154">
    <path d="M 763.983299 562.206891 
L 767.016146 562.206891 
L 767.016146 571.120647 
L 763.983299 571.120647 
z
" clip-path="url(#p58abd0f8b8)" style="fill: #5a5a5a; stroke: #5a5a5a; stroke-width: 0.5; stroke-linejoin: miter"/>
   </g>
   <g id="patch_155">
    <path d="M 769.206536 562.206891 
L 772.239383 562.206891 
L 772.239383 521.226454 
L 769.206536 521.226454 
z
" clip-path="url(#p58abd0f8b8)" style="fill: #5a5a5a; stroke: #5a5a5a; stroke-width: 0.5; stroke-linejoin: miter"/>
   </g>
   <g id="patch_156">
    <path d="M 774.261281 562.206891 
L 777.294128 562.206891 
L 777.294128 567.169404 
L 774.261281 567.169404 
z
" clip-path="url(#p58abd0f8b8)" style="fill: #5a5a5a; stroke: #5a5a5a; stroke-width: 0.5; stroke-linejoin: miter"/>
   </g>
   <g id="patch_157">
    <path d="M 779.484518 562.206891 
L 782.517365 562.206891 
L 782.517365 562.674817 
L 779.484518 562.674817 
z
" clip-path="url(#p58abd0f8b8)" style="fill: #5a5a5a; stroke: #5a5a5a; stroke-width: 0.5; stroke-linejoin: miter"/>
   </g>
   <g id="patch_158">
    <path d="M 784.539263 562.206891 
L 787.572111 562.206891 
L 787.572111 569.458323 
L 784.539263 569.458323 
z
" clip-path="url(#p58abd0f8b8)" style="fill: #5a5a5a; stroke: #5a5a5a; stroke-width: 0.5; stroke-linejoin: miter"/>
   </g>
   <g id="patch_159">
    <path d="M 789.7625 562.206891 
L 792.795347 562.206891 
L 792.795347 567.929754 
L 789.7625 567.929754 
z
" clip-path="url(#p58abd0f8b8)" style="fill: #5a5a5a; stroke: #5a5a5a; stroke-width: 0.5; stroke-linejoin: miter"/>
   </g>
   <g id="patch_160">
    <path d="M 794.985737 562.206891 
L 798.018584 562.206891 
L 798.018584 573.886431 
L 794.985737 573.886431 
z
" clip-path="url(#p58abd0f8b8)" style="fill: #5a5a5a; stroke: #5a5a5a; stroke-width: 0.5; stroke-linejoin: miter"/>
   </g>
   <g id="patch_161">
    <path d="M 799.871991 562.206891 
L 802.904838 562.206891 
L 802.904838 550.716165 
L 799.871991 550.716165 
z
" clip-path="url(#p58abd0f8b8)" style="fill: #5a5a5a; stroke: #5a5a5a; stroke-width: 0.5; stroke-linejoin: miter"/>
   </g>
   <g id="patch_162">
    <path d="M 805.095228 562.206891 
L 808.128075 562.206891 
L 808.128075 563.615388 
L 805.095228 563.615388 
z
" clip-path="url(#p58abd0f8b8)" style="fill: #5a5a5a; stroke: #5a5a5a; stroke-width: 0.5; stroke-linejoin: miter"/>
   </g>
   <g id="patch_163">
    <path d="M 810.149973 562.206891 
L 813.18282 562.206891 
L 813.18282 577.987589 
L 810.149973 577.987589 
z
" clip-path="url(#p58abd0f8b8)" style="fill: #5a5a5a; stroke: #5a5a5a; stroke-width: 0.5; stroke-linejoin: miter"/>
   </g>
   <g id="patch_164">
    <path d="M 815.37321 562.206891 
L 818.406057 562.206891 
L 818.406057 562.085093 
L 815.37321 562.085093 
z
" clip-path="url(#p58abd0f8b8)" style="fill: #5a5a5a; stroke: #5a5a5a; stroke-width: 0.5; stroke-linejoin: miter"/>
   </g>
   <g id="patch_165">
    <path d="M 820.427955 562.206891 
L 823.460803 562.206891 
L 823.460803 568.554355 
L 820.427955 568.554355 
z
" clip-path="url(#p58abd0f8b8)" style="fill: #5a5a5a; stroke: #5a5a5a; stroke-width: 0.5; stroke-linejoin: miter"/>
   </g>
   <g id="patch_166">
    <path d="M 825.651192 562.206891 
L 828.68404 562.206891 
L 828.68404 565.193084 
L 825.651192 565.193084 
z
" clip-path="url(#p58abd0f8b8)" style="fill: #5a5a5a; stroke: #5a5a5a; stroke-width: 0.5; stroke-linejoin: miter"/>
   </g>
   <g id="patch_167">
    <path d="M 830.874429 562.206891 
L 833.907276 562.206891 
L 833.907276 567.327899 
L 830.874429 567.327899 
z
" clip-path="url(#p58abd0f8b8)" style="fill: #5a5a5a; stroke: #5a5a5a; stroke-width: 0.5; stroke-linejoin: miter"/>
   </g>
   <g id="patch_168">
    <path d="M 835.929175 562.206891 
L 838.962022 562.206891 
L 838.962022 562.134138 
L 835.929175 562.134138 
z
" clip-path="url(#p58abd0f8b8)" style="fill: #5a5a5a; stroke: #5a5a5a; stroke-width: 0.5; stroke-linejoin: miter"/>
   </g>
   <g id="patch_169">
    <path d="M 841.152411 562.206891 
L 844.185259 562.206891 
L 844.185259 565.637163 
L 841.152411 565.637163 
z
" clip-path="url(#p58abd0f8b8)" style="fill: #5a5a5a; stroke: #5a5a5a; stroke-width: 0.5; stroke-linejoin: miter"/>
   </g>
   <g id="patch_170">
    <path d="M 846.207157 562.206891 
L 849.240004 562.206891 
L 849.240004 564.948441 
L 846.207157 564.948441 
z
" clip-path="url(#p58abd0f8b8)" style="fill: #5a5a5a; stroke: #5a5a5a; stroke-width: 0.5; stroke-linejoin: miter"/>
   </g>
   <g id="line2d_106">
    <path d="M 35.304688 562.206891 
L 865.19952 562.206891 
" clip-path="url(#p58abd0f8b8)" style="fill: none; stroke: #242424; stroke-width: 1.1; stroke-linecap: square"/>
   </g>
   <g id="patch_171">
    <path d="M 35.304688 632.521395 
L 35.304688 484.860938 
" style="fill: none; stroke: #bbbbbb; stroke-linejoin: miter; stroke-linecap: square"/>
   </g>
   <g id="patch_172">
    <path d="M 35.304688 632.521395 
L 865.19952 632.521395 
" style="fill: none; stroke: #bbbbbb; stroke-linejoin: miter; stroke-linecap: square"/>
   </g>
   <g id="text_34">
    <g id="patch_173">
     <path d="M 68.458933 596.272729 
L 68.458933 521.109604 
L 43.645183 521.109604 
L 43.645183 596.272729 
z
" style="fill: #d9d9d9; stroke: #d9d9d9; stroke-width: 0.5; stroke-linejoin: miter"/>
    </g>
    <!-- remainder -->
    <g style="fill: #3a3a3a" transform="translate(59.363308 589.672729) rotate(-90) scale(0.12 -0.12)">
     <defs>
      <path id="DejaVuSans-6d" d="M 3328 2828 
Q 3544 3216 3844 3400 
Q 4144 3584 4550 3584 
Q 5097 3584 5394 3201 
Q 5691 2819 5691 2113 
L 5691 0 
L 5113 0 
L 5113 2094 
Q 5113 2597 4934 2840 
Q 4756 3084 4391 3084 
Q 3944 3084 3684 2787 
Q 3425 2491 3425 1978 
L 3425 0 
L 2847 0 
L 2847 2094 
Q 2847 2600 2669 2842 
Q 2491 3084 2119 3084 
Q 1678 3084 1418 2786 
Q 1159 2488 1159 1978 
L 1159 0 
L 581 0 
L 581 3500 
L 1159 3500 
L 1159 2956 
Q 1356 3278 1631 3431 
Q 1906 3584 2284 3584 
Q 2666 3584 2933 3390 
Q 3200 3197 3328 2828 
z
" transform="scale(0.015625)"/>
      <path id="DejaVuSans-69" d="M 603 3500 
L 1178 3500 
L 1178 0 
L 603 0 
L 603 3500 
z
M 603 4863 
L 1178 4863 
L 1178 4134 
L 603 4134 
L 603 4863 
z
" transform="scale(0.015625)"/>
     </defs>
     <use xlink:href="#DejaVuSans-72"/>
     <use xlink:href="#DejaVuSans-65" x="38.863281"/>
     <use xlink:href="#DejaVuSans-6d" x="100.386719"/>
     <use xlink:href="#DejaVuSans-61" x="197.798828"/>
     <use xlink:href="#DejaVuSans-69" x="259.078125"/>
     <use xlink:href="#DejaVuSans-6e" x="286.861328"/>
     <use xlink:href="#DejaVuSans-64" x="350.240234"/>
     <use xlink:href="#DejaVuSans-65" x="413.716797"/>
     <use xlink:href="#DejaVuSans-72" x="475.240234"/>
    </g>
   </g>
  </g>
 </g>
 <defs>
  <clipPath id="p7394a4bdef">
   <rect x="35.304688" y="10.999219" width="829.894832" height="147.660457"/>
  </clipPath>
  <clipPath id="p87dfe7f5ac">
   <rect x="35.304688" y="170.539062" width="829.894832" height="147.660458"/>
  </clipPath>
  <clipPath id="p66bab4b2ce">
   <rect x="35.304688" y="327.7" width="829.894832" height="147.660458"/>
  </clipPath>
  <clipPath id="p58abd0f8b8">
   <rect x="35.304688" y="484.860938" width="829.894832" height="147.660457"/>
  </clipPath>
 </defs>
</svg>
